<svg width="36" height="37" viewBox="0 0 36 37" fill="none" xmlns="http://www.w3.org/2000/svg">
<path fill-rule="evenodd" clip-rule="evenodd" d="M31.5 36.6438C32.6935 36.6438 33.8381 36.1697 34.682 35.3258C35.5259 34.4819 36 33.3373 36 32.1438L36 5.14381C36 3.95033 35.5259 2.80574 34.682 1.96183C33.8381 1.11791 32.6935 0.643807 31.5 0.643807L4.5 0.6438C3.30653 0.643799 2.16194 1.11791 1.31802 1.96182C0.474108 2.80573 1.88662e-06 3.95032 1.57361e-06 5.1438L-5.50764e-06 32.1438C-5.82065e-06 33.3373 0.4741 34.4819 1.31801 35.3258C2.16193 36.1697 3.30652 36.6438 4.49999 36.6438L31.5 36.6438ZM17.2 12.6898C17.0954 12.5847 17.0125 12.4601 16.9561 12.323C16.8997 12.1859 16.8708 12.0391 16.8711 11.8908C16.8714 11.7426 16.9009 11.5958 16.958 11.459C17.015 11.3222 17.0984 11.1979 17.2035 11.0933C17.3086 10.9887 17.4332 10.9058 17.5703 10.8494C17.7074 10.793 17.8542 10.7641 18.0025 10.7644C18.1507 10.7647 18.2975 10.7943 18.4343 10.8513C18.5711 10.9083 18.6954 10.9917 18.8 11.0968L25.55 17.8468C25.6548 17.9513 25.7379 18.0755 25.7946 18.2121C25.8513 18.3488 25.8805 18.4953 25.8805 18.6433C25.8805 18.7913 25.8513 18.9378 25.7946 19.0745C25.7379 19.2112 25.6548 19.3353 25.55 19.4398L18.8 26.1898C18.6954 26.2949 18.5711 26.3783 18.4343 26.4353C18.2975 26.4924 18.1507 26.5219 18.0025 26.5222C17.8542 26.5225 17.7074 26.4936 17.5703 26.4372C17.4332 26.3808 17.3086 26.2979 17.2035 26.1933C17.0984 26.0887 17.015 25.9644 16.958 25.8276C16.9009 25.6908 16.8714 25.544 16.8711 25.3958C16.8708 25.2475 16.8997 25.1007 16.9561 24.9636C17.0125 24.8265 17.0954 24.7019 17.2 24.5968L22.03 19.7688L11.25 19.7688C10.9516 19.7688 10.6655 19.6503 10.4545 19.4393C10.2435 19.2283 10.125 18.9422 10.125 18.6438C10.125 18.3454 10.2435 18.0593 10.4545 17.8483C10.6655 17.6373 10.9516 17.5188 11.25 17.5188L22.034 17.5188L17.2 12.6898Z" fill="#FFF001"/>
</svg>
