<svg width="36" height="37" viewBox="0 0 36 37" fill="none" xmlns="http://www.w3.org/2000/svg">
<path fill-rule="evenodd" clip-rule="evenodd" d="M4.5 0.643799C3.30653 0.643799 2.16193 1.1179 1.31802 1.96182C0.474106 2.80573 0 3.95032 0 5.1438L0 32.1438C0 33.3373 0.474106 34.4819 1.31802 35.3258C2.16193 36.1697 3.30653 36.6438 4.5 36.6438H31.5C32.6935 36.6438 33.8381 36.1697 34.682 35.3258C35.5259 34.4819 36 33.3373 36 32.1438V5.1438C36 3.95032 35.5259 2.80573 34.682 1.96182C33.8381 1.1179 32.6935 0.643799 31.5 0.643799L4.5 0.643799ZM18.8 24.5978C18.9046 24.7029 18.9875 24.8275 19.0439 24.9646C19.1003 25.1017 19.1292 25.2485 19.1289 25.3968C19.1286 25.545 19.0991 25.6918 19.042 25.8286C18.985 25.9654 18.9016 26.0897 18.7965 26.1943C18.6914 26.2989 18.5668 26.3818 18.4297 26.4382C18.2926 26.4946 18.1458 26.5235 17.9975 26.5232C17.8493 26.5229 17.7025 26.4933 17.5657 26.4363C17.4289 26.3793 17.3046 26.2959 17.2 26.1908L10.45 19.4408C10.3452 19.3363 10.2621 19.2122 10.2054 19.0755C10.1487 18.9388 10.1195 18.7923 10.1195 18.6443C10.1195 18.4963 10.1487 18.3498 10.2054 18.2131C10.2621 18.0764 10.3452 17.9523 10.45 17.8478L17.2 11.0978C17.3046 10.9927 17.4289 10.9093 17.5657 10.8523C17.7025 10.7952 17.8493 10.7657 17.9975 10.7654C18.1458 10.7651 18.2926 10.794 18.4297 10.8504C18.5668 10.9068 18.6914 10.9897 18.7965 11.0943C18.9016 11.1989 18.985 11.3232 19.042 11.46C19.0991 11.5968 19.1286 11.7436 19.1289 11.8918C19.1292 12.0401 19.1003 12.1869 19.0439 12.324C18.9875 12.4611 18.9046 12.5857 18.8 12.6908L13.97 17.5188H24.75C25.0484 17.5188 25.3345 17.6373 25.5455 17.8483C25.7565 18.0593 25.875 18.3454 25.875 18.6438C25.875 18.9422 25.7565 19.2283 25.5455 19.4393C25.3345 19.6503 25.0484 19.7688 24.75 19.7688H13.966L18.8 24.5978Z" fill="#FFF001"/>
</svg>
