<svg width="181" height="248" viewBox="0 0 181 248" fill="none" xmlns="http://www.w3.org/2000/svg">
<g opacity="0.04">
<path d="M130.666 0H130.155C131.019 1.50254 131.556 3.17474 131.727 4.90724C131.933 6.99275 131.601 9.09612 130.763 11.0169C129.925 12.9378 128.609 14.612 126.94 15.8798C126.56 16.1757 126.262 16.5642 126.075 17.0084C125.888 17.4526 125.818 17.9374 125.872 18.4163L127.207 32.0638C127.3 33.0007 127.736 33.87 128.433 34.5032C129.13 35.1364 130.037 35.4882 130.978 35.4907C131.105 35.4907 131.23 35.4845 131.354 35.472L142.763 34.4267L142.564 32.4216V32.4156C142.519 32.0068 142.636 31.5966 142.891 31.2735C143.145 30.9503 143.516 30.7401 143.924 30.6879C144.332 30.6357 144.744 30.7457 145.071 30.9944C145.398 31.2431 145.615 31.6106 145.674 32.0175L145.881 34.1178L180 30.7144V30.2721L146.282 33.6352L146.129 32.0728L146.119 31.9667C146.085 31.7047 146.001 31.452 145.87 31.2226C145.739 30.9933 145.564 30.7919 145.356 30.6301C145.147 30.4683 144.909 30.3493 144.654 30.2796C144.399 30.21 144.133 30.1911 143.871 30.2242C143.609 30.2574 143.357 30.3418 143.127 30.4727C142.898 30.6035 142.697 30.7783 142.535 30.987C142.373 31.1957 142.254 31.4342 142.184 31.6889C142.114 31.9436 142.096 32.2097 142.129 32.4716L142.283 34.0289L131.317 35.034C130.432 35.1209 129.548 34.8525 128.86 34.2878C128.172 33.7231 127.737 32.9084 127.65 32.0228L126.314 18.3737C126.268 17.9698 126.327 17.5609 126.484 17.186C126.641 16.8111 126.892 16.4827 127.212 16.2324C128.941 14.9189 130.304 13.1845 131.172 11.1945C132.04 9.20455 132.384 7.02524 132.171 4.86464C132.002 3.1535 131.488 1.49933 130.666 0Z" stroke="#1E1E1C" stroke-width="2" stroke-miterlimit="10"/>
<path d="M180 217.869L140.163 221.842L139.942 221.865L140.14 223.859C140.164 224.263 140.03 224.661 139.767 224.968C139.505 225.276 139.133 225.47 138.73 225.51C138.327 225.55 137.925 225.433 137.607 225.182C137.289 224.932 137.08 224.569 137.024 224.168L136.827 222.174L125.424 223.219C124.928 223.268 124.446 223.413 124.007 223.648C123.567 223.883 123.178 224.203 122.861 224.588C122.545 224.974 122.308 225.417 122.163 225.895C122.019 226.372 121.969 226.873 122.018 227.369L123.341 240.802C123.382 241.282 123.546 241.745 123.817 242.144C124.087 242.543 124.456 242.866 124.888 243.082C126.772 243.999 128.39 245.384 129.587 247.104C129.79 247.395 129.979 247.694 130.155 248H130.666C130.45 247.606 130.212 247.223 129.954 246.852C128.714 245.07 127.038 243.636 125.086 242.686C124.722 242.503 124.411 242.23 124.183 241.893C123.955 241.556 123.817 241.166 123.782 240.761L122.46 227.326C122.417 226.888 122.46 226.446 122.588 226.024C122.716 225.603 122.925 225.211 123.204 224.87C123.483 224.53 123.827 224.248 124.215 224.04C124.603 223.833 125.029 223.704 125.467 223.66L136.43 222.655L136.587 224.217V224.223C136.654 224.741 136.92 225.213 137.329 225.538C137.738 225.863 138.258 226.016 138.778 225.965C139.298 225.914 139.777 225.662 140.115 225.263C140.452 224.864 140.621 224.349 140.586 223.828L140.431 222.264L180 218.318V217.869Z" stroke="#1E1E1C" stroke-width="2" stroke-miterlimit="10"/>
<path d="M111.903 248L108.795 216.424C108.695 215.422 108.202 214.501 107.423 213.862C106.645 213.224 105.644 212.92 104.642 213.018L16.1629 221.842L15.9423 221.865L16.1399 223.859C16.1636 224.263 16.0301 224.661 15.7673 224.968C15.5046 225.276 15.1328 225.47 14.73 225.51C14.3273 225.55 13.9248 225.433 13.6067 225.182C13.2886 224.932 13.0797 224.569 13.0237 224.168L12.8269 222.174L1.424 223.219C0.927818 223.268 0.446228 223.413 0.00650024 223.648C-0.433228 223.883 -0.822334 224.203 -1.13861 224.588C-1.45489 224.974 -1.69219 225.417 -1.83682 225.895C-1.98145 226.372 -2.03064 226.873 -1.98158 227.369L-0.659302 240.802C-0.618164 241.282 -0.454422 241.745 -0.183472 242.144C0.0874786 242.543 0.456383 242.866 0.887955 243.082C2.77222 243.999 4.39013 245.384 5.58734 247.104C5.78999 247.395 5.97944 247.694 6.15535 248H6.66573C6.44966 247.606 6.21228 247.223 5.95425 246.852C4.71393 245.07 3.03786 243.636 1.08575 242.686C0.722069 242.503 0.411217 242.23 0.183014 241.893C-0.0451889 241.556 -0.183197 241.166 -0.217819 240.761L-1.53989 227.326C-1.58318 226.888 -1.53974 226.446 -1.41206 226.024C-1.28439 225.603 -1.07503 225.211 -0.795822 224.87C-0.516617 224.53 -0.173042 224.248 0.215179 224.04C0.603401 223.833 1.02869 223.704 1.46681 223.66L12.4298 222.655L12.5865 224.217V224.223C12.6538 224.741 12.9202 225.213 13.3293 225.538C13.7384 225.863 14.2578 226.016 14.7779 225.965C15.2979 225.914 15.7774 225.662 16.1149 225.263C16.4524 224.864 16.6214 224.349 16.586 223.828L16.431 222.264L104.691 213.461C105.576 213.375 106.459 213.644 107.147 214.207C107.834 214.771 108.27 215.585 108.359 216.47L111.462 248H111.903Z" stroke="#1E1E1C" stroke-width="2" stroke-miterlimit="10"/>
<path d="M-12.0967 248L-15.2049 216.424C-15.3051 215.422 -15.7985 214.501 -16.577 213.862C-17.3555 213.224 -18.3556 212.92 -19.3576 213.018L-68 217.869V218.318L-19.3094 213.461C-18.4242 213.375 -17.5411 213.644 -16.8535 214.207C-16.1658 214.771 -15.7299 215.585 -15.6412 216.47L-12.5376 248H-12.0967Z" stroke="#1E1E1C" stroke-width="2" stroke-miterlimit="10"/>
<path d="M-68 30.7144L-13.4233 25.2703C-12.422 25.1701 -11.5013 24.677 -10.8629 23.8991C-10.2245 23.1212 -9.92062 22.122 -10.0178 21.1204L-12.0967 0H-12.5376L-10.454 21.1667C-10.3681 22.0515 -10.6365 22.9344 -11.2005 23.6215C-11.7645 24.3087 -12.5779 24.744 -13.4625 24.8323L-68 30.2721V30.7144Z" stroke="#1E1E1C" stroke-width="2" stroke-miterlimit="10"/>
<path d="M6.15535 0C7.0187 1.50254 7.55597 3.17474 7.72693 4.90724C7.93272 6.99275 7.60084 9.09612 6.76289 11.0169C5.92495 12.9378 4.60904 14.612 2.94038 15.8798C2.55994 16.1757 2.2619 16.5642 2.07481 17.0084C1.88773 17.4526 1.81769 17.9374 1.87178 18.4163L3.20732 32.0638C3.29954 33.0007 3.73642 33.87 4.43309 34.5032C5.12976 35.1364 6.03668 35.4882 6.97809 35.4907C7.10452 35.4907 7.22987 35.4845 7.35393 35.472L18.763 34.4267L18.5643 32.4216V32.4156C18.5191 32.0068 18.6363 31.5966 18.8905 31.2735C19.1448 30.9503 19.5159 30.7401 19.9237 30.6879C20.3316 30.6357 20.7436 30.7457 21.071 30.9944C21.3985 31.2431 21.6153 31.6106 21.6744 32.0175L21.881 34.1178L110.577 25.2703C111.578 25.1701 112.499 24.677 113.137 23.8991C113.775 23.1212 114.079 22.122 113.982 21.1204L111.903 0H111.462L113.546 21.1667C113.632 22.0515 113.363 22.9344 112.799 23.6215C112.236 24.3087 111.422 24.744 110.538 24.8323L22.2824 33.6352L22.1294 32.0728L22.1185 31.9667C22.0854 31.7047 22.0012 31.452 21.8703 31.2226C21.7394 30.9933 21.5645 30.7919 21.3558 30.6301C21.1471 30.4683 20.9086 30.3493 20.6539 30.2796C20.3992 30.21 20.1333 30.1911 19.8713 30.2242C19.6094 30.2574 19.3566 30.3418 19.1273 30.4727C18.8979 30.6035 18.6965 30.7783 18.5347 30.987C18.3729 31.1957 18.2537 31.4342 18.1841 31.6889C18.1145 31.9436 18.0957 32.2097 18.1289 32.4716L18.283 34.0289L7.3174 35.034C6.43179 35.1209 5.54774 34.8525 4.86 34.2878C4.17226 33.7231 3.73701 32.9084 3.64989 32.0228L2.31435 18.3737C2.2683 17.9698 2.32677 17.5609 2.4839 17.186C2.64103 16.8111 2.89163 16.4827 3.21188 16.2324C4.94063 14.9189 6.30407 13.1845 7.1722 11.1945C8.04032 9.20455 8.38424 7.02524 8.17104 4.86464C8.00218 3.1535 7.48833 1.49933 6.66573 0H6.15535Z" stroke="#1E1E1C" stroke-width="2" stroke-miterlimit="10"/>
<path fill-rule="evenodd" clip-rule="evenodd" d="M18.311 28.7315C18.6775 29.0544 19.1488 29.2331 19.6372 29.2343L19.6416 29.2315C19.727 29.2322 19.8125 29.2273 19.8972 29.2165C20.4257 29.1494 20.9059 28.875 21.2323 28.4539C21.5587 28.0329 21.7047 27.4996 21.6379 26.971L21.2816 23.4157L21.271 23.3081C21.2039 22.7792 20.9296 22.2986 20.5082 21.9721C20.0869 21.6456 19.5531 21.4998 19.0242 21.5669C18.4954 21.634 18.0148 21.9083 17.6883 22.3297C17.3617 22.751 17.216 23.2848 17.2831 23.8137L17.6339 27.3751L17.6454 27.4792C17.7081 27.9636 17.9446 28.4087 18.311 28.7315ZM19.0773 22.0108C19.1449 22.0019 19.213 21.9973 19.2812 21.9973C19.6609 21.9983 20.0282 22.1373 20.313 22.3884C20.5979 22.6395 20.7818 22.9856 20.8304 23.3622L21.1919 27.0191V27.0251C21.2451 27.4373 21.1324 27.8538 20.8786 28.1829C20.6248 28.512 20.2507 28.727 19.8385 28.7802C19.4263 28.8335 19.0099 28.7208 18.6808 28.467C18.3517 28.2132 18.1367 27.839 18.0835 27.4268L18.0728 27.3288L17.7211 23.7674V23.7611C17.695 23.5571 17.7094 23.35 17.7635 23.1516C17.8175 22.9531 17.9103 22.7674 18.0363 22.6049C18.1622 22.4423 18.3189 22.306 18.4975 22.204C18.6762 22.1021 18.8732 22.0365 19.0773 22.0108Z" stroke="#1E1E1C" stroke-width="2" stroke-miterlimit="10"/>
<path fill-rule="evenodd" clip-rule="evenodd" d="M17.2535 18.0544C17.6201 18.3776 18.0917 18.5564 18.5804 18.5578L18.5821 18.5552C18.667 18.5581 18.7522 18.5557 18.8369 18.548C19.3644 18.4789 19.8433 18.2043 20.1691 17.7838C20.495 17.3632 20.6414 16.8307 20.5765 16.3026L20.2204 12.7411V12.7351C20.153 12.2171 19.8864 11.7458 19.4775 11.4208C19.0685 11.0959 18.5493 10.9429 18.0295 10.9941C17.5098 11.0454 17.0303 11.2968 16.6927 11.6954C16.3551 12.0939 16.186 12.6082 16.221 13.1294L16.5771 16.6908L16.5877 16.8012C16.6503 17.2859 16.8869 17.7312 17.2535 18.0544ZM17.6239 17.7888C17.295 17.5346 17.0806 17.16 17.0277 16.7478L16.6625 13.0894C16.6484 12.8843 16.675 12.6786 16.7405 12.4838C16.806 12.289 16.9093 12.1089 17.0444 11.954C17.1795 11.7992 17.3437 11.6724 17.5278 11.581C17.712 11.4897 17.9123 11.4356 18.1174 11.4217C18.5158 11.3929 18.9101 11.5177 19.2194 11.7706C19.5287 12.0234 19.7294 12.3852 19.7805 12.7814L20.1367 16.3428V16.3489C20.1896 16.7612 20.0766 17.1777 19.8224 17.5066C19.5683 17.8355 19.1939 18.05 18.7816 18.1029C18.3693 18.1558 17.9529 18.0429 17.6239 17.7888Z" stroke="#1E1E1C" stroke-width="2" stroke-miterlimit="10"/>
<path fill-rule="evenodd" clip-rule="evenodd" d="M16.1951 7.37681C16.5607 7.69976 17.0314 7.87851 17.5191 7.87981L17.5209 7.8772C17.6084 7.87784 17.6958 7.8727 17.7826 7.86199C18.3108 7.79424 18.7905 7.51995 19.1166 7.09901C19.4428 6.67807 19.5888 6.14488 19.5224 5.61653L19.1555 1.94836C19.0834 1.42385 18.8073 0.948883 18.3871 0.626736C17.967 0.304588 17.4366 0.16116 16.9114 0.227638C16.3861 0.294116 15.9083 0.565038 15.5817 0.981705C15.255 1.39837 15.1059 1.92716 15.1667 2.4531L15.5228 6.01454L15.5326 6.11779V6.12496C15.594 6.60885 15.8296 7.05386 16.1951 7.37681ZM16.5699 7.11292C16.2407 6.85904 16.0258 6.48466 15.9725 6.07236L15.6111 2.41115V2.40506C15.558 1.99277 15.6709 1.57636 15.9249 1.24733C16.179 0.91831 16.5534 0.703659 16.9657 0.650646C17.378 0.597633 17.7944 0.710483 18.1234 0.964535C18.4525 1.21859 18.6671 1.59302 18.7201 2.00531L19.0816 5.6637V5.67087C19.1349 6.08317 19.0221 6.49962 18.7682 6.82882C18.5143 7.15801 18.1401 7.37291 17.7278 7.42616C17.3155 7.47941 16.8991 7.36681 16.5699 7.11292Z" stroke="#1E1E1C" stroke-width="2" stroke-miterlimit="10"/>
<path fill-rule="evenodd" clip-rule="evenodd" d="M143.637 29.2343C143.149 29.2331 142.677 29.0544 142.311 28.7315C141.945 28.4087 141.708 27.9636 141.645 27.4792L141.634 27.3751L141.283 23.8137C141.216 23.2848 141.362 22.751 141.688 22.3297C142.015 21.9083 142.495 21.634 143.024 21.5669C143.553 21.4998 144.087 21.6456 144.508 21.9721C144.93 22.2986 145.204 22.7792 145.271 23.3081L145.282 23.4157L145.638 26.971C145.705 27.4996 145.559 28.0329 145.232 28.4539C144.906 28.875 144.426 29.1494 143.897 29.2165C143.812 29.2273 143.727 29.2322 143.642 29.2315L143.637 29.2343ZM143.281 21.9973C143.213 21.9973 143.145 22.0019 143.077 22.0108C142.873 22.0365 142.676 22.1021 142.498 22.204C142.319 22.306 142.162 22.4423 142.036 22.6049C141.91 22.7674 141.818 22.9531 141.763 23.1516C141.709 23.35 141.695 23.5571 141.721 23.7611V23.7674L142.073 27.3288L142.083 27.4268C142.137 27.839 142.352 28.2132 142.681 28.467C143.01 28.7208 143.426 28.8335 143.839 28.7802C144.251 28.727 144.625 28.512 144.879 28.1829C145.132 27.8538 145.245 27.4373 145.192 27.0251V27.0191L144.83 23.3622C144.782 22.9856 144.598 22.6395 144.313 22.3884C144.028 22.1373 143.661 21.9983 143.281 21.9973Z" stroke="#1E1E1C" stroke-width="2" stroke-miterlimit="10"/>
<path fill-rule="evenodd" clip-rule="evenodd" d="M142.58 18.5578C142.092 18.5564 141.62 18.3776 141.254 18.0544C140.887 17.7312 140.65 17.2859 140.588 16.8012L140.577 16.6908L140.221 13.1294C140.186 12.6082 140.355 12.0939 140.693 11.6954C141.03 11.2968 141.51 11.0454 142.03 10.9941C142.549 10.9429 143.069 11.0959 143.477 11.4208C143.886 11.7458 144.153 12.2171 144.22 12.7351V12.7411L144.577 16.3026C144.641 16.8307 144.495 17.3632 144.169 17.7838C143.843 18.2043 143.364 18.4789 142.837 18.548C142.752 18.5557 142.667 18.5581 142.582 18.5552L142.58 18.5578ZM141.028 16.7478C141.081 17.16 141.295 17.5346 141.624 17.7888C141.953 18.0429 142.369 18.1558 142.782 18.1029C143.194 18.05 143.568 17.8355 143.822 17.5066C144.077 17.1777 144.19 16.7612 144.137 16.3489V16.3428L143.78 12.7814C143.729 12.3852 143.529 12.0234 143.219 11.7706C142.91 11.5177 142.516 11.3929 142.117 11.4217C141.912 11.4356 141.712 11.4897 141.528 11.581C141.344 11.6724 141.18 11.7992 141.044 11.954C140.909 12.1089 140.806 12.289 140.741 12.4838C140.675 12.6786 140.648 12.8843 140.662 13.0894L141.028 16.7478Z" stroke="#1E1E1C" stroke-width="2" stroke-miterlimit="10"/>
<path fill-rule="evenodd" clip-rule="evenodd" d="M141.519 7.87981C141.031 7.87851 140.561 7.69976 140.195 7.37681C139.83 7.05386 139.594 6.60885 139.533 6.12496V6.11779L139.523 6.01454L139.167 2.4531C139.106 1.92716 139.255 1.39837 139.582 0.981705C139.908 0.565038 140.386 0.294116 140.911 0.227638C141.437 0.16116 141.967 0.304588 142.387 0.626736C142.807 0.948883 143.083 1.42385 143.156 1.94836L143.522 5.61653C143.589 6.14488 143.443 6.67807 143.117 7.09901C142.79 7.51995 142.311 7.79424 141.783 7.86199C141.696 7.8727 141.608 7.87784 141.521 7.8772L141.519 7.87981ZM139.973 6.07236C140.026 6.48466 140.241 6.85904 140.57 7.11292C140.899 7.36681 141.316 7.47941 141.728 7.42616C142.14 7.37291 142.514 7.15801 142.768 6.82882C143.022 6.49962 143.135 6.08317 143.082 5.67087V5.6637L142.72 2.00531C142.667 1.59302 142.452 1.21859 142.123 0.964535C141.794 0.710483 141.378 0.597633 140.966 0.650646C140.553 0.703659 140.179 0.91831 139.925 1.24733C139.671 1.57636 139.558 1.99277 139.611 2.40506V2.41115L139.973 6.07236Z" stroke="#1E1E1C" stroke-width="2" stroke-miterlimit="10"/>
<path fill-rule="evenodd" clip-rule="evenodd" d="M-42.3628 153.234C-42.8511 153.233 -43.3225 153.054 -43.689 152.732C-44.0554 152.409 -44.2919 151.964 -44.3546 151.479L-44.3661 151.375L-44.7169 147.814C-44.784 147.285 -44.6383 146.751 -44.3117 146.33C-43.9852 145.908 -43.5046 145.634 -42.9758 145.567C-42.4469 145.5 -41.9131 145.646 -41.4918 145.972C-41.0704 146.299 -40.7961 146.779 -40.729 147.308L-40.7184 147.416L-40.3621 150.971C-40.2953 151.5 -40.4413 152.033 -40.7677 152.454C-41.0941 152.875 -41.5743 153.149 -42.1028 153.216C-42.1875 153.227 -42.273 153.232 -42.3584 153.231L-42.3628 153.234ZM-42.7188 145.997C-42.787 145.997 -42.8551 146.002 -42.9227 146.011C-43.1268 146.037 -43.3238 146.102 -43.5025 146.204C-43.6811 146.306 -43.8378 146.442 -43.9637 146.605C-44.0897 146.767 -44.1825 146.953 -44.2365 147.152C-44.2906 147.35 -44.305 147.557 -44.2789 147.761V147.767L-43.9272 151.329L-43.9165 151.427C-43.8633 151.839 -43.6483 152.213 -43.3192 152.467C-42.9901 152.721 -42.5737 152.833 -42.1615 152.78C-41.7493 152.727 -41.3752 152.512 -41.1214 152.183C-40.8676 151.854 -40.7549 151.437 -40.8081 151.025V151.019L-41.1696 147.362C-41.2182 146.986 -41.4021 146.639 -41.687 146.388C-41.9718 146.137 -42.3391 145.998 -42.7188 145.997Z" stroke="#1E1E1C" stroke-width="2" stroke-miterlimit="10"/>
<path fill-rule="evenodd" clip-rule="evenodd" d="M-43.4196 142.558C-43.9083 142.556 -44.3799 142.378 -44.7465 142.054C-45.1131 141.731 -45.3497 141.286 -45.4123 140.801L-45.4229 140.691L-45.779 137.129C-45.814 136.608 -45.6449 136.094 -45.3073 135.695C-44.9697 135.297 -44.4903 135.045 -43.9705 134.994C-43.4507 134.943 -42.9315 135.096 -42.5225 135.421C-42.1136 135.746 -41.847 136.217 -41.7796 136.735V136.741L-41.4235 140.303C-41.3586 140.831 -41.505 141.363 -41.8309 141.784C-42.1567 142.204 -42.6356 142.479 -43.1631 142.548C-43.2478 142.556 -43.333 142.558 -43.4179 142.555L-43.4196 142.558ZM-44.9723 140.748C-44.9194 141.16 -44.705 141.535 -44.3761 141.789C-44.0471 142.043 -43.6306 142.156 -43.2184 142.103C-42.8061 142.05 -42.4317 141.836 -42.1776 141.507C-41.9234 141.178 -41.8104 140.761 -41.8633 140.349V140.343L-42.2195 136.781C-42.2706 136.385 -42.4713 136.023 -42.7806 135.771C-43.0899 135.518 -43.4842 135.393 -43.8826 135.422C-44.0877 135.436 -44.288 135.49 -44.4722 135.581C-44.6563 135.672 -44.8205 135.799 -44.9556 135.954C-45.0907 136.109 -45.194 136.289 -45.2595 136.484C-45.325 136.679 -45.3516 136.884 -45.3375 137.089L-44.9723 140.748Z" stroke="#1E1E1C" stroke-width="2" stroke-miterlimit="10"/>
<path fill-rule="evenodd" clip-rule="evenodd" d="M-44.4809 131.88C-44.9686 131.879 -45.4393 131.7 -45.8049 131.377C-46.1704 131.054 -46.406 130.609 -46.4674 130.125V130.118L-46.4772 130.015L-46.8333 126.453C-46.8941 125.927 -46.745 125.398 -46.4183 124.982C-46.0916 124.565 -45.6139 124.294 -45.0886 124.228C-44.5634 124.161 -44.033 124.305 -43.6129 124.627C-43.1927 124.949 -42.9166 125.424 -42.8445 125.948L-42.4776 129.617C-42.4112 130.145 -42.5572 130.678 -42.8834 131.099C-43.2095 131.52 -43.6892 131.794 -44.2174 131.862C-44.3042 131.873 -44.3916 131.878 -44.4791 131.877L-44.4809 131.88ZM-46.0275 130.072C-45.9742 130.485 -45.7593 130.859 -45.4301 131.113C-45.1009 131.367 -44.6845 131.479 -44.2722 131.426C-43.8599 131.373 -43.4857 131.158 -43.2318 130.829C-42.9779 130.5 -42.8651 130.083 -42.9184 129.671V129.664L-43.2799 126.005C-43.3329 125.593 -43.5475 125.219 -43.8766 124.965C-44.2056 124.71 -44.622 124.598 -45.0343 124.651C-45.4466 124.704 -45.821 124.918 -46.0751 125.247C-46.3291 125.576 -46.442 125.993 -46.3889 126.405V126.411L-46.0275 130.072Z" stroke="#1E1E1C" stroke-width="2" stroke-miterlimit="10"/>
<path fill-rule="evenodd" clip-rule="evenodd" d="M-45.5299 121.201C-46.0182 121.2 -46.4895 121.021 -46.8561 120.699C-47.2227 120.376 -47.4593 119.931 -47.5223 119.447V119.44L-47.5321 119.337L-47.8884 115.775C-47.9278 115.252 -47.7608 114.733 -47.4232 114.332C-47.0856 113.93 -46.6042 113.676 -46.0818 113.624C-45.5594 113.573 -45.0377 113.728 -44.628 114.056C-44.2184 114.384 -43.9534 114.86 -43.8898 115.381V115.386L-43.5335 118.942C-43.4667 119.471 -43.6128 120.004 -43.9392 120.425C-44.2656 120.846 -44.7457 121.12 -45.2743 121.187C-45.3585 121.196 -45.4432 121.2 -45.5279 121.198L-45.5299 121.201ZM-47.0826 119.394C-47.0282 119.805 -46.8133 120.178 -46.4848 120.431C-46.1563 120.685 -45.7409 120.797 -45.3295 120.745C-45.1253 120.719 -44.9282 120.653 -44.7495 120.551C-44.5708 120.449 -44.414 120.312 -44.288 120.15C-44.1621 119.987 -44.0694 119.801 -44.0155 119.602C-43.9615 119.403 -43.9473 119.196 -43.9735 118.992V118.986L-44.3296 115.431C-44.3858 115.03 -44.5948 114.667 -44.9128 114.417C-45.2307 114.166 -45.633 114.049 -46.0355 114.089C-46.4381 114.129 -46.8097 114.322 -47.0726 114.63C-47.3354 114.937 -47.4691 115.335 -47.4458 115.739L-47.0826 119.394Z" stroke="#1E1E1C" stroke-width="2" stroke-miterlimit="10"/>
<path fill-rule="evenodd" clip-rule="evenodd" d="M-46.592 110.423C-47.0811 110.423 -47.5534 110.244 -47.9206 109.921C-48.2878 109.598 -48.5247 109.152 -48.5872 108.667V108.66L-48.7138 107.339C-48.7806 106.81 -48.6346 106.276 -48.3077 105.854C-47.9809 105.433 -47.4999 105.159 -46.9709 105.092C-46.4418 105.025 -45.9078 105.171 -45.4864 105.498C-45.0651 105.825 -44.7909 106.306 -44.7241 106.835V106.841L-44.7134 106.941L-44.5878 108.276C-44.5508 108.808 -44.7264 109.333 -45.076 109.735C-45.4256 110.138 -45.9206 110.385 -46.4522 110.422C-46.4874 110.42 -46.5216 110.42 -46.5568 110.42L-46.5902 110.42L-46.592 110.423ZM-48.1475 108.615C-48.0913 109.015 -47.8822 109.379 -47.5643 109.629C-47.2463 109.879 -46.8441 109.996 -46.4416 109.956C-46.039 109.917 -45.6673 109.723 -45.4045 109.415C-45.1416 109.108 -45.0079 108.71 -45.0312 108.307L-45.1656 106.888C-45.2247 106.482 -45.4416 106.114 -45.769 105.865C-46.0965 105.617 -46.5084 105.507 -46.9163 105.559C-47.3242 105.611 -47.6952 105.821 -47.9495 106.144C-48.2038 106.468 -48.321 106.878 -48.2758 107.286V107.293L-48.1475 108.615Z" stroke="#1E1E1C" stroke-width="2" stroke-miterlimit="10"/>
<path fill-rule="evenodd" clip-rule="evenodd" d="M-55.0219 159.491C-55.9633 159.488 -56.8702 159.136 -57.5669 158.503C-58.2636 157.87 -58.7005 157.001 -58.7927 156.064L-60.1282 142.416C-60.1823 141.937 -60.1123 141.453 -59.9252 141.008C-59.7381 140.564 -59.4401 140.176 -59.0596 139.88C-57.391 138.612 -56.0751 136.938 -55.2371 135.017C-54.3992 133.096 -54.0673 130.993 -54.2731 128.907C-54.4789 126.822 -55.2154 124.824 -56.4127 123.104C-57.6099 121.384 -59.2278 119.999 -61.112 119.082C-61.5436 118.866 -61.9125 118.543 -62.1835 118.144C-62.4544 117.745 -62.6182 117.282 -62.6593 116.802L-63.9816 103.369C-64.0306 102.873 -63.9814 102.372 -63.8368 101.895C-63.6922 101.417 -63.4549 100.974 -63.1386 100.588C-62.8223 100.203 -62.4332 99.8834 -61.9935 99.6484C-61.5538 99.4135 -61.0722 99.2676 -60.576 99.2189L-49.1731 98.1736L-48.9763 100.168C-48.9203 100.569 -48.7114 100.932 -48.3933 101.182C-48.0752 101.433 -47.6727 101.55 -47.27 101.51C-46.8672 101.47 -46.4954 101.276 -46.2327 100.968C-45.9699 100.661 -45.8364 100.263 -45.8601 99.8591L-46.0577 97.8647L-45.8371 97.8423L42.6424 89.018C43.6444 88.9201 44.6445 89.2236 45.423 89.8621C46.2015 90.5005 46.6949 91.4218 46.7951 92.4236L51.9822 145.12C52.0794 146.122 51.7755 147.121 51.1371 147.899C50.4987 148.677 49.578 149.17 48.5767 149.27L-40.119 158.118L-40.3256 156.018C-40.3847 155.611 -40.6015 155.243 -40.929 154.994C-41.2564 154.746 -41.6684 154.636 -42.0763 154.688C-42.4841 154.74 -42.8552 154.95 -43.1095 155.273C-43.3637 155.597 -43.4809 156.007 -43.4357 156.416V156.422L-43.237 158.427L-54.6461 159.472C-54.7701 159.484 -54.8955 159.491 -55.0219 159.491ZM-49.5702 98.6553L-60.5332 99.6604C-60.9713 99.7036 -61.3966 99.8327 -61.7848 100.04C-62.173 100.248 -62.5166 100.53 -62.7958 100.87C-63.075 101.211 -63.2844 101.603 -63.4121 102.024C-63.5398 102.446 -63.5832 102.888 -63.5399 103.326L-62.2178 116.761C-62.1832 117.166 -62.0452 117.556 -61.817 117.893C-61.5888 118.23 -61.2779 118.503 -60.9142 118.686C-58.9621 119.636 -57.2861 121.07 -56.0457 122.852C-54.8054 124.634 -54.0422 126.704 -53.829 128.865C-53.6158 131.025 -53.9597 133.205 -54.8278 135.195C-55.6959 137.185 -57.0594 138.919 -58.7881 140.232C-59.1084 140.483 -59.359 140.811 -59.5161 141.186C-59.6732 141.561 -59.7317 141.97 -59.6857 142.374L-58.3501 156.023C-58.263 156.908 -57.8277 157.723 -57.14 158.288C-56.4523 158.852 -55.5682 159.121 -54.6826 159.034L-43.717 158.029L-43.8711 156.472C-43.9043 156.21 -43.8855 155.944 -43.8159 155.689C-43.7463 155.434 -43.6271 155.196 -43.4653 154.987C-43.3035 154.778 -43.1021 154.604 -42.8727 154.473C-42.6434 154.342 -42.3906 154.257 -42.1287 154.224C-41.8667 154.191 -41.6008 154.21 -41.3461 154.28C-41.0914 154.349 -40.8529 154.468 -40.6442 154.63C-40.4355 154.792 -40.2606 154.993 -40.1297 155.223C-39.9988 155.452 -39.9146 155.705 -39.8815 155.967L-39.8706 156.073L-39.7176 157.635L48.5375 148.832C49.4221 148.744 50.2355 148.309 50.7995 147.622C51.3635 146.934 51.6319 146.052 51.546 145.167L46.3588 92.4699C46.2701 91.585 45.8342 90.7715 45.1465 90.2075C44.4589 89.6435 43.5758 89.375 42.6906 89.4613L-45.569 98.2644L-45.414 99.8278C-45.3786 100.349 -45.5476 100.864 -45.8851 101.263C-46.2226 101.662 -46.7021 101.914 -47.2221 101.965C-47.7422 102.016 -48.2616 101.863 -48.6707 101.538C-49.0798 101.213 -49.3462 100.741 -49.4135 100.223V100.217L-49.5702 98.6553Z" stroke="#1E1E1C" stroke-width="2" stroke-miterlimit="10"/>
<path fill-rule="evenodd" clip-rule="evenodd" d="M80.311 152.732C80.6775 153.054 81.1489 153.233 81.6372 153.234L81.6416 153.231C81.727 153.232 81.8125 153.227 81.8972 153.216C82.4258 153.149 82.9059 152.875 83.2323 152.454C83.5587 152.033 83.7047 151.5 83.6379 150.971L83.2816 147.416L83.271 147.308C83.2039 146.779 82.9296 146.299 82.5082 145.972C82.0869 145.646 81.5531 145.5 81.0242 145.567C80.4954 145.634 80.0148 145.908 79.6883 146.33C79.3617 146.751 79.216 147.285 79.2831 147.814L79.6339 151.375L79.6454 151.479C79.7081 151.964 79.9446 152.409 80.311 152.732ZM81.0773 146.011C81.1449 146.002 81.213 145.997 81.2812 145.997C81.6609 145.998 82.0282 146.137 82.313 146.388C82.5979 146.639 82.7818 146.986 82.8304 147.362L83.1919 151.019V151.025C83.2451 151.437 83.1324 151.854 82.8786 152.183C82.6248 152.512 82.2507 152.727 81.8385 152.78C81.4263 152.833 81.0099 152.721 80.6808 152.467C80.3517 152.213 80.1367 151.839 80.0834 151.427L80.0728 151.329L79.7211 147.767V147.761C79.695 147.557 79.7094 147.35 79.7635 147.152C79.8175 146.953 79.9103 146.767 80.0363 146.605C80.1622 146.442 80.3189 146.306 80.4975 146.204C80.6761 146.102 80.8732 146.037 81.0773 146.011Z" stroke="#1E1E1C" stroke-width="2" stroke-miterlimit="10"/>
<path fill-rule="evenodd" clip-rule="evenodd" d="M79.2535 142.054C79.6201 142.378 80.0917 142.556 80.5804 142.558L80.5821 142.555C80.667 142.558 80.7522 142.556 80.8369 142.548C81.3644 142.479 81.8433 142.204 82.1691 141.784C82.495 141.363 82.6414 140.831 82.5765 140.303L82.2204 136.741V136.735C82.1529 136.217 81.8864 135.746 81.4774 135.421C81.0685 135.096 80.5493 134.943 80.0295 134.994C79.5098 135.045 79.0303 135.297 78.6927 135.695C78.3551 136.094 78.186 136.608 78.221 137.129L78.5771 140.691L78.5877 140.801C78.6503 141.286 78.8869 141.731 79.2535 142.054ZM79.6239 141.789C79.295 141.535 79.0806 141.16 79.0277 140.748L78.6625 137.089C78.6484 136.884 78.675 136.679 78.7405 136.484C78.806 136.289 78.9093 136.109 79.0444 135.954C79.1795 135.799 79.3437 135.672 79.5278 135.581C79.7119 135.49 79.9123 135.436 80.1173 135.422C80.5158 135.393 80.9101 135.518 81.2194 135.771C81.5287 136.023 81.7294 136.385 81.7805 136.781L82.1367 140.343V140.349C82.1897 140.761 82.0766 141.178 81.8224 141.507C81.5683 141.836 81.1939 142.05 80.7816 142.103C80.3694 142.156 79.9529 142.043 79.6239 141.789Z" stroke="#1E1E1C" stroke-width="2" stroke-miterlimit="10"/>
<path fill-rule="evenodd" clip-rule="evenodd" d="M78.1951 131.377C78.5607 131.7 79.0314 131.879 79.5191 131.88L79.5209 131.877C79.6084 131.878 79.6958 131.873 79.7826 131.862C80.3108 131.794 80.7905 131.52 81.1166 131.099C81.4427 130.678 81.5888 130.145 81.5225 129.617L81.1555 125.948C81.0834 125.424 80.8073 124.949 80.3871 124.627C79.9669 124.305 79.4366 124.161 78.9114 124.228C78.3861 124.294 77.9084 124.565 77.5817 124.982C77.255 125.398 77.1059 125.927 77.1667 126.453L77.5228 130.015L77.5326 130.118V130.125C77.594 130.609 77.8296 131.054 78.1951 131.377ZM78.5699 131.113C78.2407 130.859 78.0258 130.485 77.9725 130.072L77.6111 126.411V126.405C77.558 125.993 77.6709 125.576 77.9249 125.247C78.179 124.918 78.5534 124.704 78.9657 124.651C79.378 124.598 79.7944 124.71 80.1234 124.965C80.4525 125.219 80.6671 125.593 80.7201 126.005L81.0816 129.664V129.671C81.1349 130.083 81.022 130.5 80.7682 130.829C80.5143 131.158 80.1401 131.373 79.7278 131.426C79.3155 131.479 78.8991 131.367 78.5699 131.113Z" stroke="#1E1E1C" stroke-width="2" stroke-miterlimit="10"/>
<path fill-rule="evenodd" clip-rule="evenodd" d="M77.1439 120.699C77.5105 121.021 77.9818 121.2 78.4701 121.201L78.472 121.198C78.5568 121.2 78.6414 121.196 78.7257 121.187C79.2543 121.12 79.7345 120.846 80.0609 120.425C80.3873 120.004 80.5332 119.471 80.4665 118.942L80.1102 115.386V115.381C80.0466 114.86 79.7816 114.384 79.372 114.056C78.9623 113.728 78.4406 113.573 77.9182 113.624C77.3958 113.676 76.9144 113.93 76.5768 114.332C76.2392 114.733 76.0721 115.252 76.1116 115.775L76.4679 119.337L76.4777 119.44V119.447C76.5407 119.931 76.7774 120.376 77.1439 120.699ZM77.5152 120.431C77.1867 120.178 76.9718 119.805 76.9174 119.394L76.5542 115.739C76.5309 115.335 76.6646 114.937 76.9274 114.63C77.1902 114.322 77.562 114.129 77.9645 114.089C78.3671 114.049 78.7693 114.166 79.0872 114.417C79.4052 114.667 79.6142 115.03 79.6704 115.431L80.0265 118.986V118.992C80.0527 119.196 80.0385 119.403 79.9845 119.602C79.9305 119.801 79.8379 119.987 79.7119 120.15C79.586 120.312 79.4292 120.449 79.2505 120.551C79.0718 120.653 78.8747 120.719 78.6705 120.745C78.2591 120.797 77.8437 120.685 77.5152 120.431Z" stroke="#1E1E1C" stroke-width="2" stroke-miterlimit="10"/>
<path fill-rule="evenodd" clip-rule="evenodd" d="M76.0794 109.921C76.4466 110.244 76.9189 110.423 77.408 110.423L77.4098 110.42L77.4432 110.42C77.4784 110.42 77.5126 110.42 77.5478 110.422C78.0794 110.385 78.5744 110.138 78.924 109.735C79.2736 109.333 79.4492 108.808 79.4122 108.276L79.2866 106.941L79.2759 106.841V106.835C79.2091 106.306 78.9349 105.825 78.5136 105.498C78.0922 105.171 77.5582 105.025 77.0291 105.092C76.5001 105.159 76.0191 105.433 75.6923 105.854C75.3654 106.276 75.2194 106.81 75.2863 107.339L75.4128 108.66V108.667C75.4753 109.152 75.7122 109.598 76.0794 109.921ZM76.4357 109.629C76.1177 109.379 75.9087 109.015 75.8525 108.615L75.7242 107.293V107.286C75.679 106.878 75.7963 106.468 76.0505 106.144C76.3048 105.821 76.6758 105.611 77.0837 105.559C77.4916 105.507 77.9035 105.617 78.231 105.865C78.5584 106.114 78.7753 106.482 78.8344 106.888L78.9688 108.307C78.9921 108.71 78.8584 109.108 78.5955 109.415C78.3327 109.723 77.961 109.917 77.5584 109.956C77.1559 109.996 76.7537 109.879 76.4357 109.629Z" stroke="#1E1E1C" stroke-width="2" stroke-miterlimit="10"/>
<path fill-rule="evenodd" clip-rule="evenodd" d="M66.4331 158.503C67.1298 159.136 68.0367 159.488 68.9781 159.491C69.1045 159.491 69.2299 159.484 69.3539 159.472L80.7629 158.427L80.5643 156.422V156.416C80.5191 156.007 80.6363 155.597 80.8906 155.273C81.1448 154.95 81.5159 154.74 81.9237 154.688C82.3316 154.636 82.7436 154.746 83.071 154.994C83.3985 155.243 83.6153 155.611 83.6744 156.018L83.881 158.118L172.577 149.27C173.578 149.17 174.499 148.677 175.137 147.899C175.775 147.121 176.079 146.122 175.982 145.12L170.795 92.4236C170.695 91.4218 170.202 90.5005 169.423 89.8621C168.645 89.2236 167.644 88.9201 166.642 89.018L78.163 97.8423L77.9423 97.8647L78.1399 99.8591C78.1636 100.263 78.0301 100.661 77.7673 100.968C77.5046 101.276 77.1328 101.47 76.73 101.51C76.3273 101.55 75.9248 101.433 75.6067 101.182C75.2886 100.932 75.0797 100.569 75.0237 100.168L74.8269 98.1736L63.424 99.2189C62.9278 99.2676 62.4462 99.4135 62.0065 99.6484C61.5668 99.8834 61.1777 100.203 60.8614 100.588C60.5451 100.974 60.3078 101.417 60.1632 101.895C60.0186 102.372 59.9694 102.873 60.0184 103.369L61.3407 116.802C61.3818 117.282 61.5456 117.745 61.8165 118.144C62.0875 118.543 62.4564 118.866 62.888 119.082C64.7722 119.999 66.3901 121.384 67.5873 123.104C68.7845 124.824 69.5211 126.822 69.7269 128.907C69.9327 130.993 69.6008 133.096 68.7629 135.017C67.9249 136.938 66.609 138.612 64.9404 139.88C64.5599 140.176 64.2619 140.564 64.0748 141.008C63.8877 141.453 63.8177 141.937 63.8718 142.416L65.2073 156.064C65.2995 157.001 65.7364 157.87 66.4331 158.503ZM63.4668 99.6604L74.4298 98.6553L74.5865 100.217V100.223C74.6538 100.741 74.9202 101.213 75.3293 101.538C75.7384 101.863 76.2578 102.016 76.7779 101.965C77.2979 101.914 77.7774 101.662 78.1149 101.263C78.4524 100.864 78.6214 100.349 78.586 99.8278L78.431 98.2644L166.691 89.4613C167.576 89.375 168.459 89.6435 169.147 90.2075C169.834 90.7715 170.27 91.585 170.359 92.4699L175.546 145.167C175.632 146.052 175.363 146.934 174.799 147.622C174.236 148.309 173.422 148.744 172.538 148.832L84.2824 157.635L84.1294 156.073L84.1185 155.967C84.0854 155.705 84.0012 155.452 83.8703 155.223C83.7394 154.993 83.5645 154.792 83.3558 154.63C83.1471 154.468 82.9086 154.349 82.6539 154.28C82.3992 154.21 82.1333 154.191 81.8713 154.224C81.6094 154.257 81.3566 154.342 81.1273 154.473C80.8979 154.604 80.6965 154.778 80.5347 154.987C80.3729 155.196 80.2537 155.434 80.1841 155.689C80.1145 155.944 80.0957 156.21 80.1289 156.472L80.283 158.029L69.3174 159.034C68.4318 159.121 67.5477 158.852 66.86 158.288C66.1723 157.723 65.737 156.908 65.6499 156.023L64.3143 142.374C64.2683 141.97 64.3268 141.561 64.4839 141.186C64.641 140.811 64.8916 140.483 65.2119 140.232C66.9406 138.919 68.3041 137.185 69.1722 135.195C70.0403 133.205 70.3842 131.025 70.171 128.865C69.9578 126.704 69.1946 124.634 67.9543 122.852C66.7139 121.07 65.0379 119.636 63.0858 118.686C62.7221 118.503 62.4112 118.23 62.183 117.893C61.9548 117.556 61.8168 117.166 61.7822 116.761L60.4601 103.326C60.4168 102.888 60.4603 102.446 60.5879 102.024C60.7156 101.603 60.925 101.211 61.2042 100.87C61.4834 100.53 61.827 100.248 62.2152 100.04C62.6034 99.8327 63.0287 99.7036 63.4668 99.6604Z" stroke="#1E1E1C" stroke-width="2" stroke-miterlimit="10"/>
<path fill-rule="evenodd" clip-rule="evenodd" d="M16.4701 245.201C15.9818 245.2 15.5105 245.021 15.1439 244.699C14.7774 244.376 14.5407 243.931 14.4777 243.447V243.44L14.4679 243.337L14.1116 239.775C14.0722 239.252 14.2392 238.733 14.5768 238.332C14.9144 237.93 15.3958 237.676 15.9182 237.624C16.4406 237.573 16.9623 237.728 17.372 238.056C17.7816 238.384 18.0466 238.859 18.1102 239.381V239.386L18.4665 242.942C18.5333 243.471 18.3872 244.004 18.0608 244.425C17.7344 244.846 17.2543 245.12 16.7257 245.187C16.6415 245.196 16.5568 245.2 16.4721 245.198L16.4701 245.201ZM14.9174 243.394C14.9718 243.805 15.1867 244.178 15.5152 244.431C15.8437 244.685 16.2591 244.797 16.6705 244.745C16.8747 244.719 17.0718 244.653 17.2505 244.551C17.4292 244.449 17.586 244.312 17.712 244.15C17.8379 243.987 17.9306 243.801 17.9845 243.602C18.0385 243.403 18.0527 243.196 18.0265 242.992V242.986L17.6704 239.431C17.6142 239.03 17.4052 238.667 17.0872 238.417C16.7693 238.166 16.3671 238.049 15.9645 238.089C15.5619 238.129 15.1903 238.322 14.9274 238.63C14.6646 238.937 14.5309 239.335 14.5542 239.739L14.9174 243.394Z" stroke="#1E1E1C" stroke-width="2" stroke-miterlimit="10"/>
<path fill-rule="evenodd" clip-rule="evenodd" d="M15.408 234.423C14.9189 234.423 14.4466 234.244 14.0794 233.921C13.7122 233.598 13.4753 233.152 13.4128 232.667V232.66L13.2862 231.339C13.2194 230.81 13.3654 230.276 13.6923 229.854C14.0191 229.433 14.5001 229.159 15.0291 229.092C15.5582 229.025 16.0922 229.171 16.5136 229.498C16.9349 229.825 17.2091 230.306 17.2759 230.835V230.841L17.2866 230.941L17.4122 232.276C17.4492 232.808 17.2736 233.333 16.924 233.735C16.5744 234.137 16.0794 234.385 15.5478 234.422C15.5015 234.419 15.4569 234.42 15.4098 234.42L15.408 234.423ZM13.8525 232.615C13.9087 233.015 14.1178 233.379 14.4357 233.629C14.7537 233.879 15.1559 233.996 15.5584 233.956C15.961 233.917 16.3327 233.723 16.5955 233.415C16.8584 233.108 16.9921 232.71 16.9688 232.307L16.8344 230.888C16.7753 230.482 16.5584 230.114 16.231 229.865C15.9035 229.617 15.4916 229.507 15.0837 229.559C14.6758 229.611 14.3048 229.821 14.0505 230.144C13.7962 230.468 13.679 230.878 13.7242 231.286V231.293L13.8525 232.615Z" stroke="#1E1E1C" stroke-width="2" stroke-miterlimit="10"/>
<path fill-rule="evenodd" clip-rule="evenodd" d="M139.144 244.699C139.51 245.021 139.982 245.2 140.47 245.201L140.472 245.198C140.557 245.2 140.641 245.196 140.726 245.187C141.254 245.12 141.734 244.846 142.061 244.425C142.387 244.004 142.533 243.471 142.466 242.942L142.11 239.386V239.381C142.047 238.859 141.782 238.384 141.372 238.056C140.962 237.728 140.441 237.573 139.918 237.624C139.396 237.676 138.914 237.93 138.577 238.332C138.239 238.733 138.072 239.252 138.112 239.775L138.468 243.337L138.478 243.44V243.447C138.541 243.931 138.777 244.376 139.144 244.699ZM139.515 244.431C139.187 244.178 138.972 243.805 138.917 243.394L138.554 239.739C138.531 239.335 138.665 238.937 138.927 238.63C139.19 238.322 139.562 238.129 139.965 238.089C140.367 238.049 140.769 238.166 141.087 238.417C141.405 238.667 141.614 239.03 141.67 239.431L142.026 242.986V242.992C142.053 243.196 142.039 243.403 141.985 243.602C141.931 243.801 141.838 243.987 141.712 244.15C141.586 244.312 141.429 244.449 141.25 244.551C141.072 244.653 140.875 244.719 140.671 244.745C140.259 244.797 139.844 244.685 139.515 244.431Z" stroke="#1E1E1C" stroke-width="2" stroke-miterlimit="10"/>
<path fill-rule="evenodd" clip-rule="evenodd" d="M138.079 233.921C138.447 234.244 138.919 234.423 139.408 234.423L139.41 234.42C139.457 234.42 139.501 234.419 139.548 234.422C140.079 234.385 140.574 234.137 140.924 233.735C141.274 233.333 141.449 232.808 141.412 232.276L141.287 230.941L141.276 230.841V230.835C141.209 230.306 140.935 229.825 140.514 229.498C140.092 229.171 139.558 229.025 139.029 229.092C138.5 229.159 138.019 229.433 137.692 229.854C137.365 230.276 137.219 230.81 137.286 231.339L137.413 232.66V232.667C137.475 233.152 137.712 233.598 138.079 233.921ZM138.436 233.629C138.118 233.379 137.909 233.015 137.853 232.615L137.724 231.293V231.286C137.679 230.878 137.796 230.468 138.051 230.144C138.305 229.821 138.676 229.611 139.084 229.559C139.492 229.507 139.904 229.617 140.231 229.865C140.558 230.114 140.775 230.482 140.834 230.888L140.969 232.307C140.992 232.71 140.858 233.108 140.596 233.415C140.333 233.723 139.961 233.917 139.558 233.956C139.156 233.996 138.754 233.879 138.436 233.629Z" stroke="#1E1E1C" stroke-width="2" stroke-miterlimit="10"/>
</g>
</svg>
