<svg width="248" height="249" viewBox="0 0 248 249" fill="none" xmlns="http://www.w3.org/2000/svg">
<g opacity="0.04">
<path d="M223.242 0.64917H200.617L207.653 33.234C208.007 34.873 208.68 36.4261 209.634 37.8049C210.588 39.1837 211.805 40.361 213.214 41.2697C214.623 42.1784 216.197 42.8006 217.847 43.1009C219.496 43.4012 221.189 43.3735 222.828 43.0197L248 37.5843V19.5285C242.839 16.4978 235.231 11.9755 230.259 8.76895C227.898 7.2674 225.904 5.25378 224.427 2.8772C223.981 2.16022 223.585 1.41571 223.242 0.64917Z" fill="#1E1E1C"/>
<path d="M248 204.372L206.073 213.426C204.434 213.779 202.881 214.453 201.502 215.407C200.124 216.361 198.946 217.577 198.038 218.986C197.129 220.395 196.507 221.97 196.207 223.619C195.906 225.269 195.934 226.961 196.288 228.6L200.617 248.649H223.242C222.448 246.875 221.934 244.983 221.723 243.04C221.723 243.04 220.244 232.216 229.416 228.378C238.588 224.54 244.839 230.334 244.839 230.334C244.839 230.334 245.736 228.201 248 226.117V204.372Z" fill="#1E1E1C"/>
<path d="M172.969 248.649L164.347 208.722C163.993 207.083 163.32 205.53 162.366 204.152C161.412 202.773 160.195 201.595 158.786 200.687C157.377 199.778 155.803 199.156 154.153 198.856C152.504 198.555 150.811 198.583 149.172 198.937L82.0732 213.426C80.4341 213.779 78.8813 214.453 77.5024 215.407C76.1235 216.361 74.9463 217.577 74.0376 218.986C73.1289 220.395 72.5068 221.97 72.2065 223.619C71.9062 225.269 71.9336 226.961 72.2876 228.6L76.6167 248.649H99.2422C98.4478 246.875 97.9341 244.983 97.7231 243.04C97.7231 243.04 96.2437 232.216 105.416 228.378C114.588 224.54 120.839 230.334 120.839 230.334C120.839 230.334 124.143 222.475 134.082 222.189C144.02 221.902 147.137 232.371 147.137 232.371C148.009 235.03 148.273 237.851 147.907 240.625C147.542 243.399 146.557 246.056 145.025 248.398C144.972 248.481 144.918 248.565 144.863 248.649H172.969Z" fill="#1E1E1C"/>
<path d="M48.9688 248.649L40.3472 208.722C39.9932 207.083 39.3198 205.53 38.3657 204.152C37.4116 202.773 36.1953 201.595 34.7861 200.687C33.3774 199.778 31.8027 199.156 30.1533 198.856C28.5039 198.555 26.811 198.583 25.1724 198.937L0 204.372V226.117C2.08203 224.201 5.32031 222.326 10.0815 222.189C20.02 221.902 23.1367 232.371 23.1367 232.371C24.0093 235.03 24.2729 237.851 23.9072 240.625C23.542 243.399 22.5566 246.056 21.0254 248.398C20.9717 248.481 20.918 248.565 20.8633 248.649H48.9688Z" fill="#1E1E1C"/>
<path d="M0 37.5843L0.629883 37.4483L24.1138 50.4573C24.3394 50.5823 24.5967 50.6397 24.854 50.6226C25.1113 50.6055 25.3584 50.5146 25.5654 50.3608C25.7725 50.207 25.9312 49.9967 26.022 49.7552C26.0635 49.6443 26.0903 49.529 26.1016 49.4123C26.1152 49.2748 26.1074 49.1354 26.0776 48.999L22.561 32.7128L41.9268 28.5309C43.5659 28.1771 45.1187 27.5039 46.4976 26.5497C47.8765 25.5956 49.0537 24.3793 49.9624 22.9702C50.8711 21.561 51.4932 19.9868 51.7935 18.3372C52.0938 16.6876 52.0664 14.9949 51.7124 13.356L48.9688 0.64917H20.8633C16.7148 7.05841 9.66602 17.0266 6.81885 21.0282C6.47803 21.5072 5.9707 21.8416 5.396 21.9658C4.82178 22.09 4.22119 21.995 3.71338 21.6996C2.75586 21.1422 1.47803 20.3965 0 19.5285V37.5843Z" fill="#1E1E1C"/>
<path d="M76.6167 0.64917L83.6528 33.234C84.0068 34.873 84.6802 36.4261 85.6343 37.8049C86.5884 39.1837 87.8047 40.361 89.2139 41.2697C90.6226 42.1784 92.1973 42.8006 93.8467 43.1009C95.4961 43.4012 97.189 43.3735 98.8276 43.0197L124.63 37.4483L148.114 50.4573C148.339 50.5823 148.597 50.6397 148.854 50.6226C149.111 50.6055 149.358 50.5146 149.565 50.3608C149.772 50.207 149.931 49.9967 150.022 49.7552C150.097 49.5562 150.123 49.3429 150.1 49.1329C150.095 49.0881 150.087 49.0434 150.078 48.999L146.561 32.7128L165.927 28.5309C167.566 28.1771 169.119 27.5039 170.498 26.5497C171.876 25.5956 173.054 24.3793 173.962 22.9702C174.871 21.561 175.493 19.9868 175.793 18.3372C176.094 16.6876 176.066 14.9949 175.712 13.356L172.969 0.64917H144.863C140.715 7.05841 133.666 17.0266 130.819 21.0282C130.478 21.5072 129.971 21.8416 129.396 21.9658C128.822 22.09 128.221 21.995 127.713 21.6996C123.413 19.1963 112.656 12.8939 106.259 8.76895C103.898 7.2674 101.904 5.25378 100.427 2.8772C99.981 2.16022 99.5854 1.41571 99.2422 0.64917H76.6167Z" fill="#1E1E1C"/>
<path fill-rule="evenodd" clip-rule="evenodd" d="M20.0732 89.4255L87.1724 74.9368C88.811 74.5829 90.5039 74.5553 92.1533 74.8555C93.8027 75.1558 95.3774 75.778 96.7861 76.6867C98.1953 77.5954 99.4116 78.7727 100.366 80.1515C101.32 81.5303 101.993 83.0835 102.347 84.7224L113.712 137.356C114.066 138.995 114.094 140.688 113.793 142.337C113.493 143.987 112.871 145.561 111.962 146.97C111.054 148.379 109.876 149.596 108.498 150.55C107.119 151.504 105.566 152.177 103.927 152.531L84.561 156.713L88.0776 172.999C88.1323 173.251 88.1128 173.514 88.022 173.755C87.9312 173.997 87.7725 174.207 87.5654 174.361C87.3584 174.515 87.1113 174.605 86.854 174.623C86.5967 174.64 86.3394 174.582 86.1138 174.457L62.6299 161.448L36.8276 167.02C35.189 167.374 33.4961 167.401 31.8467 167.101C30.1973 166.801 28.6226 166.178 27.2139 165.27C25.8047 164.361 24.5884 163.184 23.6343 161.805C22.6802 160.426 22.0068 158.873 21.6528 157.234L10.2876 104.6C9.93359 102.961 9.90625 101.269 10.2065 99.6193C10.5068 97.9697 11.1289 96.3954 12.0376 94.9863C12.9463 93.5771 14.1235 92.3608 15.5024 91.4067C16.8813 90.4526 18.4341 89.7794 20.0732 89.4255ZM72.0815 98.1886C82.02 97.9019 85.1367 108.371 85.1367 108.371C86.0093 111.03 86.2729 113.851 85.9072 116.625C85.542 119.4 84.5566 122.056 83.0254 124.398C78.9009 130.795 71.7036 140.974 68.8188 145.028C68.478 145.507 67.9707 145.842 67.396 145.966C66.8218 146.09 66.2212 145.995 65.7134 145.7C61.4126 143.196 50.6558 136.894 44.2593 132.769C41.8979 131.267 39.9043 129.254 38.4268 126.877C36.9492 124.501 36.0249 121.822 35.7231 119.04C35.7231 119.04 34.2437 108.216 43.416 104.378C52.5879 100.54 58.8394 106.334 58.8394 106.334C58.8394 106.334 62.1431 98.4753 72.0815 98.1886Z" fill="#1E1E1C"/>
<path fill-rule="evenodd" clip-rule="evenodd" d="M211.172 74.9368L144.073 89.4255C142.434 89.7794 140.881 90.4526 139.502 91.4067C138.124 92.3608 136.946 93.5771 136.038 94.9863C135.129 96.3954 134.507 97.9697 134.207 99.6193C133.906 101.269 133.934 102.961 134.288 104.6L145.653 157.234C146.007 158.873 146.68 160.426 147.634 161.805C148.588 163.184 149.805 164.361 151.214 165.27C152.623 166.178 154.197 166.801 155.847 167.101C157.496 167.401 159.189 167.374 160.828 167.02L186.63 161.448L210.114 174.457C210.196 174.503 210.283 174.54 210.373 174.567C210.458 174.593 210.547 174.611 210.636 174.619C210.708 174.626 210.781 174.627 210.854 174.623C211.016 174.612 211.173 174.572 211.32 174.505C211.406 174.466 211.489 174.418 211.565 174.361C211.662 174.289 211.749 174.205 211.822 174.111C211.906 174.004 211.974 173.884 212.022 173.755C212.113 173.514 212.132 173.251 212.078 172.999L208.561 156.713L227.927 152.531C229.566 152.177 231.119 151.504 232.498 150.55C233.876 149.596 235.054 148.379 235.962 146.97C236.871 145.561 237.493 143.987 237.793 142.337C238.094 140.688 238.066 138.995 237.712 137.356L226.347 84.7224C225.993 83.0835 225.32 81.5303 224.366 80.1515C223.412 78.7727 222.195 77.5954 220.786 76.6867C219.377 75.778 217.803 75.1558 216.153 74.8555C214.504 74.5553 212.811 74.5829 211.172 74.9368ZM209.137 108.371C209.137 108.371 206.02 97.9019 196.082 98.1886C186.143 98.4753 182.839 106.334 182.839 106.334C182.839 106.334 176.588 100.54 167.416 104.378C158.244 108.216 159.723 119.04 159.723 119.04C160.025 121.822 160.949 124.501 162.427 126.877C163.904 129.254 165.898 131.267 168.259 132.769C174.656 136.894 185.413 143.196 189.713 145.7C190.221 145.995 190.822 146.09 191.396 145.966C191.971 145.842 192.478 145.507 192.819 145.028C195.704 140.974 202.901 130.795 207.025 124.398C208.557 122.056 209.542 119.4 209.907 116.625C210.273 113.851 210.009 111.03 209.137 108.371Z" fill="#1E1E1C"/>
</g>
</svg>
