<svg width="248" height="249" viewBox="0 0 248 249" fill="none" xmlns="http://www.w3.org/2000/svg">
<g opacity="0.04">
<path fill-rule="evenodd" clip-rule="evenodd" d="M16.2324 0.146973L25.5264 57.4286C25.6445 58.1567 25.9043 58.8545 26.292 59.4821C26.6797 60.1096 27.1875 60.6547 27.7861 61.0861C28.0381 61.2677 28.3037 61.4277 28.5801 61.5648C28.9609 61.7532 29.3633 61.8983 29.7793 61.9965C30.4971 62.1661 31.2412 62.1926 31.9697 62.0746L103.208 50.517C103.937 50.3989 104.634 50.1387 105.262 49.7509C105.89 49.3632 106.435 48.8555 106.866 48.2571L106.952 48.134C107.025 48.0259 107.096 47.9154 107.161 47.8029L107.199 47.7357L107.258 47.6316L107.285 47.578L107.357 47.4349C107.404 47.3397 107.447 47.2433 107.488 47.1456C107.525 47.0586 107.56 46.9706 107.592 46.8817C107.665 46.6796 107.727 46.473 107.776 46.2631C107.945 45.545 107.972 44.8007 107.854 44.0724L100.728 0.146973H16.2324ZM68.7412 38.4252L65.7949 20.2679C67.4316 19.0897 68.6221 17.3936 69.1738 15.4541C69.7266 13.5145 69.6064 11.4453 68.8359 9.58191C68.0645 7.71851 66.6865 6.17029 64.9258 5.18787C63.1641 4.20544 61.123 3.84668 59.1328 4.16956C57.1416 4.49255 55.3184 5.47815 53.958 6.9668C52.5977 8.45557 51.7803 10.3601 51.6377 12.3717C51.4951 14.3833 52.0361 16.3842 53.1729 18.0499C54.3096 19.7156 55.9756 20.9485 57.9004 21.5488L60.8467 39.7097L68.7412 38.4252Z" fill="#1E1E1C"/>
<path fill-rule="evenodd" clip-rule="evenodd" d="M140.232 0.146973L149.526 57.4286C149.645 58.1567 149.904 58.8545 150.292 59.4821C150.68 60.1096 151.188 60.6547 151.786 61.0861C152.384 61.5175 153.062 61.8269 153.779 61.9965C154.497 62.1661 155.241 62.1926 155.97 62.0746L227.208 50.517C227.937 50.3989 228.634 50.1387 229.262 49.7509C229.89 49.3632 230.435 48.8555 230.866 48.2571C231.297 47.6586 231.606 46.9811 231.776 46.2631C231.945 45.545 231.972 44.8007 231.854 44.0724L224.728 0.146973H140.232ZM189.795 20.2679L192.741 38.4252L184.847 39.7097L181.9 21.5488C179.976 20.9485 178.31 19.7156 177.173 18.0499C176.036 16.3842 175.495 14.3833 175.638 12.3717C175.78 10.3601 176.598 8.45557 177.958 6.9668C179.318 5.47815 181.142 4.49255 183.133 4.16956C185.123 3.84668 187.164 4.20544 188.926 5.18787C190.687 6.17029 192.064 7.71851 192.836 9.58191C193.606 11.4453 193.727 13.5145 193.174 15.4541C192.622 17.3936 191.432 19.0897 189.795 20.2679Z" fill="#1E1E1C"/>
<path d="M234.483 62.5399C239.039 61.8009 243.656 62.1135 248 63.3994V75.7825C246.624 75.0608 245.161 74.5118 243.643 74.1508C241.245 73.5806 238.759 73.4901 236.326 73.8848C233.895 74.2793 231.563 75.1511 229.47 76.4501C227.375 77.7489 225.559 79.4491 224.124 81.4529C222.689 83.4565 221.666 85.7242 221.111 88.1252C220.557 90.5264 220.482 93.0134 220.893 95.4432L223.893 113.929L248 110.018V128.17C247.057 128.017 246.089 128.014 245.133 128.17C243.142 128.493 241.318 129.478 239.958 130.967C238.598 132.456 237.78 134.36 237.638 136.372C237.495 138.383 238.036 140.384 239.173 142.05C240.31 143.716 241.976 144.948 243.9 145.549L246.847 163.71L248 163.522V181.203L217.97 186.075C217.241 186.193 216.497 186.166 215.779 185.996C215.062 185.827 214.384 185.517 213.786 185.086C213.188 184.655 212.68 184.11 212.292 183.482C211.904 182.854 211.645 182.157 211.526 181.429L202.072 123.16C201.954 122.432 201.98 121.688 202.15 120.97C202.175 120.865 202.203 120.761 202.233 120.658L202.273 120.528C202.349 120.296 202.438 120.07 202.543 119.85C202.688 119.545 202.861 119.252 203.061 118.976C203.491 118.377 204.036 117.87 204.664 117.482C205.292 117.094 205.989 116.833 206.718 116.715L212.287 115.812L209.286 97.3253C208.034 89.3739 209.981 81.2501 214.704 74.7312C219.426 68.2124 226.537 63.829 234.483 62.5399Z" fill="#1E1E1C"/>
<path d="M41.208 174.517L0 181.203V163.522L6.74121 162.425L3.79492 144.268C5.43164 143.09 6.62207 141.394 7.17383 139.454C7.72656 137.515 7.60645 135.445 6.83594 133.582C6.06445 131.719 4.68652 130.17 2.92578 129.188C2.01074 128.677 1.01953 128.335 0 128.17V110.018L12.7822 107.945L9.78418 89.4586C9.40527 87.0236 8.54883 84.6875 7.26367 82.585C5.97852 80.4824 4.29004 78.6547 2.2959 77.2072C1.56445 76.6763 0.796875 76.2004 0 75.7825V63.3995C3.23145 64.3562 6.31152 65.8514 9.10156 67.853C15.6426 72.5448 20.0586 79.636 21.3848 87.5756L24.3857 106.062L29.9561 105.159C30.6836 105.041 31.4287 105.067 32.1465 105.236C32.8643 105.406 33.542 105.715 34.1406 106.146C34.374 106.314 34.5928 106.499 34.7959 106.699C34.8574 106.76 34.917 106.822 34.9756 106.885L35.0703 106.991L35.1699 107.107C35.3389 107.309 35.4941 107.524 35.6338 107.75C36.0225 108.378 36.2822 109.075 36.4004 109.804L45.8535 168.072C45.9717 168.801 45.9453 169.545 45.7764 170.263C45.6064 170.981 45.2969 171.659 44.8662 172.257C44.4346 172.856 43.8896 173.363 43.2617 173.751C42.6338 174.139 41.9365 174.399 41.208 174.517Z" fill="#1E1E1C"/>
<path fill-rule="evenodd" clip-rule="evenodd" d="M88.2871 115.812L85.2861 97.3253C84.0342 89.3739 85.9814 81.2501 90.7041 74.7312C95.4258 68.2124 102.537 63.829 110.483 62.5399C118.429 61.251 126.562 63.1613 133.102 67.853C139.643 72.5448 144.059 79.636 145.385 87.5756L148.386 106.062L153.956 105.159C154.684 105.041 155.429 105.067 156.146 105.236C156.344 105.283 156.537 105.34 156.728 105.407C156.928 105.478 157.124 105.559 157.314 105.652C157.603 105.792 157.879 105.958 158.141 106.146C158.739 106.578 159.246 107.122 159.634 107.75C160.022 108.378 160.282 109.075 160.4 109.804L169.854 168.072C169.972 168.801 169.945 169.545 169.776 170.263C169.606 170.981 169.297 171.659 168.866 172.257C168.435 172.856 167.89 173.363 167.262 173.751C166.634 174.139 165.937 174.399 165.208 174.517L93.9697 186.075C93.2412 186.193 92.4971 186.166 91.7793 185.996C91.0615 185.827 90.3838 185.517 89.7861 185.086C89.1875 184.655 88.6797 184.11 88.292 183.482C88.2246 183.373 88.1611 183.261 88.1016 183.148C87.999 182.954 87.9082 182.754 87.8291 182.55C87.7461 182.333 87.6768 182.111 87.6201 181.886C87.583 181.735 87.5518 181.583 87.5264 181.429L78.0723 123.16C77.9541 122.432 77.9805 121.688 78.1504 120.97C78.3193 120.252 78.6289 119.574 79.0605 118.976C79.4912 118.377 80.0361 117.87 80.6641 117.482C81.292 117.094 81.9893 116.833 82.7178 116.715L88.2871 115.812ZM99.8926 113.929L96.8926 95.4432C96.4824 93.0134 96.5566 90.5264 97.1113 88.1252C97.666 85.7242 98.6895 83.4565 100.124 81.4529C101.559 79.4491 103.375 77.7489 105.47 76.4501C107.563 75.1511 109.894 74.2793 112.326 73.8848C114.759 73.4901 117.245 73.5806 119.643 74.1508C122.04 74.7209 124.301 75.7596 126.296 77.2072C128.29 78.6547 129.979 80.4824 131.264 82.585C132.549 84.6875 133.405 87.0236 133.784 89.4586L136.782 107.945L99.8926 113.929ZM130.741 162.425L127.795 144.268C129.432 143.09 130.622 141.394 131.174 139.454C131.727 137.515 131.606 135.445 130.836 133.582C130.064 131.719 128.687 130.17 126.926 129.188C125.164 128.206 123.123 127.847 121.133 128.17C119.142 128.493 117.318 129.478 115.958 130.967C114.598 132.456 113.78 134.36 113.638 136.372C113.495 138.383 114.036 140.384 115.173 142.05C116.31 143.716 117.976 144.948 119.9 145.549L122.847 163.71L130.741 162.425Z" fill="#1E1E1C"/>
<path fill-rule="evenodd" clip-rule="evenodd" d="M26.2871 239.812L23.2861 221.325C22.0342 213.374 23.9814 205.25 28.7041 198.731C33.4258 192.212 40.5371 187.829 48.4834 186.54C56.4287 185.251 64.5615 187.161 71.1016 191.853C77.6426 196.545 82.0586 203.636 83.3848 211.576L86.3857 230.062L91.9561 229.159C92.3105 229.101 92.6689 229.078 93.0264 229.089C93.1748 229.093 93.3232 229.104 93.4707 229.12C93.6982 229.145 93.9238 229.184 94.1465 229.236C94.8643 229.406 95.542 229.715 96.1406 230.146C96.7393 230.578 97.2461 231.122 97.6338 231.75C98.0225 232.378 98.2822 233.076 98.4004 233.804L100.728 248.147H16.2324L16.0723 247.16C15.9541 246.432 15.9805 245.688 16.1504 244.969C16.3193 244.252 16.6289 243.574 17.0605 242.976C17.4912 242.377 18.0361 241.87 18.6641 241.482C19.292 241.094 19.9893 240.833 20.7178 240.715L26.2871 239.812ZM37.8926 237.929L34.8926 219.443C34.4824 217.013 34.5566 214.526 35.1113 212.125C35.666 209.724 36.6895 207.457 38.124 205.453C39.5586 203.449 41.375 201.749 43.4697 200.45C45.5635 199.151 47.8936 198.279 50.3262 197.885C52.7588 197.49 55.2451 197.581 57.6426 198.151C60.04 198.721 62.3008 199.76 64.2959 201.207C66.29 202.655 67.9785 204.482 69.2637 206.585C70.5488 208.688 71.4053 211.024 71.7842 213.459L74.7822 231.945L37.8926 237.929Z" fill="#1E1E1C"/>
<path fill-rule="evenodd" clip-rule="evenodd" d="M224.728 248.147L222.4 233.804C222.282 233.076 222.022 232.378 221.634 231.75C221.246 231.122 220.739 230.578 220.141 230.146C219.542 229.715 218.864 229.406 218.146 229.236C217.429 229.067 216.684 229.041 215.956 229.159L210.386 230.062L207.385 211.576C206.059 203.636 201.643 196.545 195.102 191.853C188.562 187.161 180.429 185.251 172.483 186.54C164.537 187.829 157.426 192.212 152.704 198.731C147.981 205.25 146.034 213.374 147.286 221.325L150.287 239.812L144.718 240.715C143.989 240.833 143.292 241.094 142.664 241.482C142.036 241.87 141.491 242.377 141.061 242.976C140.629 243.574 140.319 244.252 140.15 244.969C139.98 245.688 139.954 246.432 140.072 247.16L140.232 248.147H224.728ZM158.893 219.443L161.893 237.929L198.782 231.945L195.784 213.459C195.405 211.024 194.549 208.688 193.264 206.585C191.979 204.482 190.29 202.655 188.296 201.207C186.301 199.76 184.04 198.721 181.643 198.151C179.245 197.581 176.759 197.49 174.326 197.885C171.895 198.279 169.563 199.151 167.47 200.45C165.375 201.749 163.559 203.449 162.124 205.453C160.689 207.457 159.666 209.724 159.111 212.125C158.557 214.526 158.482 217.013 158.893 219.443Z" fill="#1E1E1C"/>
</g>
</svg>
