<svg width="10" height="10649" viewBox="0 0 10 10649" fill="none" xmlns="http://www.w3.org/2000/svg">
<path d="M0 10.7865L10 0V13.2135L0 24V10.7865Z" fill="#FFF001"/>
<path d="M0 42.7865L10 32V45.2135L0 56V42.7865Z" fill="#FFF001"/>
<path d="M0 74.7865L10 64V77.2135L0 88V74.7865Z" fill="#FFF001"/>
<path d="M0 106.787L10 96V109.213L0 120V106.787Z" fill="#FFF001"/>
<path d="M0 138.787L10 128V141.213L0 152V138.787Z" fill="#FFF001"/>
<path d="M0 170.787L10 160V173.213L0 184V170.787Z" fill="#FFF001"/>
<path d="M0 202.787L10 192V205.213L0 216V202.787Z" fill="#FFF001"/>
<path d="M0 234.787L10 224V237.213L0 248V234.787Z" fill="#FFF001"/>
<path d="M0 266.787L10 256V269.213L0 280V266.787Z" fill="#FFF001"/>
<path d="M0 298.787L10 288V301.213L0 312V298.787Z" fill="#FFF001"/>
<path d="M0 330.787L10 320V333.213L0 344V330.787Z" fill="#FFF001"/>
<path d="M0 362.787L10 352V365.213L0 376V362.787Z" fill="#FFF001"/>
<path d="M0 394.787L10 384V397.213L0 408V394.787Z" fill="#FFF001"/>
<path d="M0 426.787L10 416V429.213L0 440V426.787Z" fill="#FFF001"/>
<path d="M0 458.787L10 448V461.213L0 472V458.787Z" fill="#FFF001"/>
<path d="M0 490.787L10 480V493.213L0 504V490.787Z" fill="#FFF001"/>
<path d="M0 522.787L10 512V525.213L0 536V522.787Z" fill="#FFF001"/>
<path d="M0 554.787L10 544V557.213L0 568V554.787Z" fill="#FFF001"/>
<path d="M0 586.787L10 576V589.213L0 600V586.787Z" fill="#FFF001"/>
<path d="M0 618.787L10 608V621.213L0 632V618.787Z" fill="#FFF001"/>
<path d="M0 650.787L10 640V653.213L0 664V650.787Z" fill="#FFF001"/>
<path d="M0 682.787L10 672V685.213L0 696V682.787Z" fill="#FFF001"/>
<path d="M0 714.787L10 704V717.213L0 728V714.787Z" fill="#FFF001"/>
<path d="M0 746.787L10 736V749.213L0 760V746.787Z" fill="#FFF001"/>
<path d="M0 778.787L10 768V781.213L0 792V778.787Z" fill="#FFF001"/>
<path d="M0 810.787L10 800V813.213L0 824V810.787Z" fill="#FFF001"/>
<path d="M0 842.787L10 832V845.213L0 856V842.787Z" fill="#FFF001"/>
<path d="M0 874.787L10 864V877.213L0 888V874.787Z" fill="#FFF001"/>
<path d="M0 906.787L10 896V909.213L0 920V906.787Z" fill="#FFF001"/>
<path d="M0 938.787L10 928V941.213L0 952V938.787Z" fill="#FFF001"/>
<path d="M0 970.787L10 960V973.213L0 984V970.787Z" fill="#FFF001"/>
<path d="M0 1002.79L10 992V1005.21L0 1016V1002.79Z" fill="#FFF001"/>
<path d="M0 1034.79L10 1024V1037.21L0 1048V1034.79Z" fill="#FFF001"/>
<path d="M0 1066.79L10 1056V1069.21L0 1080V1066.79Z" fill="#FFF001"/>
<path d="M0 1098.79L10 1088V1101.21L0 1112V1098.79Z" fill="#FFF001"/>
<path d="M0 1130.79L10 1120V1133.21L0 1144V1130.79Z" fill="#FFF001"/>
<path d="M0 1162.79L10 1152V1165.21L0 1176V1162.79Z" fill="#FFF001"/>
<path d="M0 1194.79L10 1184V1197.21L0 1208V1194.79Z" fill="#FFF001"/>
<path d="M0 1226.79L10 1216V1229.21L0 1240V1226.79Z" fill="#FFF001"/>
<path d="M0 1258.79L10 1248V1261.21L0 1272V1258.79Z" fill="#FFF001"/>
<path d="M0 1290.79L10 1280V1293.21L0 1304V1290.79Z" fill="#FFF001"/>
<path d="M0 1322.79L10 1312V1325.21L0 1336V1322.79Z" fill="#FFF001"/>
<path d="M0 1354.79L10 1344V1357.21L0 1368V1354.79Z" fill="#FFF001"/>
<path d="M0 1386.79L10 1376V1389.21L0 1400V1386.79Z" fill="#FFF001"/>
<path d="M0 1418.79L10 1408V1421.21L0 1432V1418.79Z" fill="#FFF001"/>
<path d="M0 1450.79L10 1440V1453.21L0 1464V1450.79Z" fill="#FFF001"/>
<path d="M0 1482.79L10 1472V1485.21L0 1496V1482.79Z" fill="#FFF001"/>
<path d="M0 1514.79L10 1504V1517.21L0 1528V1514.79Z" fill="#FFF001"/>
<path d="M0 1546.79L10 1536V1549.21L0 1560V1546.79Z" fill="#FFF001"/>
<path d="M0 1578.79L10 1568V1581.21L0 1592V1578.79Z" fill="#FFF001"/>
<path d="M0 1610.79L10 1600V1613.21L0 1624V1610.79Z" fill="#FFF001"/>
<path d="M0 1642.79L10 1632V1645.21L0 1656V1642.79Z" fill="#FFF001"/>
<path d="M0 1674.79L10 1664V1677.21L0 1688V1674.79Z" fill="#FFF001"/>
<path d="M0 1706.79L10 1696V1709.21L0 1720V1706.79Z" fill="#FFF001"/>
<path d="M0 1738.79L10 1728V1741.21L0 1752V1738.79Z" fill="#FFF001"/>
<path d="M0 1770.79L10 1760V1773.21L0 1784V1770.79Z" fill="#FFF001"/>
<path d="M0 1802.79L10 1792V1805.21L0 1816V1802.79Z" fill="#FFF001"/>
<path d="M0 1834.79L10 1824V1837.21L0 1848V1834.79Z" fill="#FFF001"/>
<path d="M0 1866.79L10 1856V1869.21L0 1880V1866.79Z" fill="#FFF001"/>
<path d="M0 1898.79L10 1888V1901.21L0 1912V1898.79Z" fill="#FFF001"/>
<path d="M0 1930.79L10 1920V1933.21L0 1944V1930.79Z" fill="#FFF001"/>
<path d="M0 1962.79L10 1952V1965.21L0 1976V1962.79Z" fill="#FFF001"/>
<path d="M0 1994.79L10 1984V1997.21L0 2008V1994.79Z" fill="#FFF001"/>
<path d="M0 2026.79L10 2016V2029.21L0 2040V2026.79Z" fill="#FFF001"/>
<path d="M0 2058.79L10 2048V2061.21L0 2072V2058.79Z" fill="#FFF001"/>
<path d="M0 2090.79L10 2080V2093.21L0 2104V2090.79Z" fill="#FFF001"/>
<path d="M0 2122.79L10 2112V2125.21L0 2136V2122.79Z" fill="#FFF001"/>
<path d="M0 2154.79L10 2144V2157.21L0 2168V2154.79Z" fill="#FFF001"/>
<path d="M0 2186.79L10 2176V2189.21L0 2200V2186.79Z" fill="#FFF001"/>
<path d="M0 2218.79L10 2208V2221.21L0 2232V2218.79Z" fill="#FFF001"/>
<path d="M0 2250.79L10 2240V2253.21L0 2264V2250.79Z" fill="#FFF001"/>
<path d="M0 2282.79L10 2272V2285.21L0 2296V2282.79Z" fill="#FFF001"/>
<path d="M0 2314.79L10 2304V2317.21L0 2328V2314.79Z" fill="#FFF001"/>
<path d="M0 2346.79L10 2336V2349.21L0 2360V2346.79Z" fill="#FFF001"/>
<path d="M0 2378.79L10 2368V2381.21L0 2392V2378.79Z" fill="#FFF001"/>
<path d="M0 2410.79L10 2400V2413.21L0 2424V2410.79Z" fill="#FFF001"/>
<path d="M0 2442.79L10 2432V2445.21L0 2456V2442.79Z" fill="#FFF001"/>
<path d="M0 2474.79L10 2464V2477.21L0 2488V2474.79Z" fill="#FFF001"/>
<path d="M0 2506.79L10 2496V2509.21L0 2520V2506.79Z" fill="#FFF001"/>
<path d="M0 2538.79L10 2528V2541.21L0 2552V2538.79Z" fill="#FFF001"/>
<path d="M0 2570.79L10 2560V2573.21L0 2584V2570.79Z" fill="#FFF001"/>
<path d="M0 2602.79L10 2592V2605.21L0 2616V2602.79Z" fill="#FFF001"/>
<path d="M0 2634.79L10 2624V2637.21L0 2648V2634.79Z" fill="#FFF001"/>
<path d="M0 2666.79L10 2656V2669.21L0 2680V2666.79Z" fill="#FFF001"/>
<path d="M0 2698.79L10 2688V2701.21L0 2712V2698.79Z" fill="#FFF001"/>
<path d="M0 2730.79L10 2720V2733.21L0 2744V2730.79Z" fill="#FFF001"/>
<path d="M0 2762.79L10 2752V2765.21L0 2776V2762.79Z" fill="#FFF001"/>
<path d="M0 2794.79L10 2784V2797.21L0 2808V2794.79Z" fill="#FFF001"/>
<path d="M0 2826.79L10 2816V2829.21L0 2840V2826.79Z" fill="#FFF001"/>
<path d="M0 2858.79L10 2848V2861.21L0 2872V2858.79Z" fill="#FFF001"/>
<path d="M0 2890.79L10 2880V2893.21L0 2904V2890.79Z" fill="#FFF001"/>
<path d="M0 2922.79L10 2912V2925.21L0 2936V2922.79Z" fill="#FFF001"/>
<path d="M0 2954.79L10 2944V2957.21L0 2968V2954.79Z" fill="#FFF001"/>
<path d="M0 2986.79L10 2976V2989.21L0 3000V2986.79Z" fill="#FFF001"/>
<path d="M0 3018.79L10 3008V3021.21L0 3032V3018.79Z" fill="#FFF001"/>
<path d="M0 3050.79L10 3040V3053.21L0 3064V3050.79Z" fill="#FFF001"/>
<path d="M0 3082.79L10 3072V3085.21L0 3096V3082.79Z" fill="#FFF001"/>
<path d="M0 3114.79L10 3104V3117.21L0 3128V3114.79Z" fill="#FFF001"/>
<path d="M0 3146.79L10 3136V3149.21L0 3160V3146.79Z" fill="#FFF001"/>
<path d="M0 3178.79L10 3168V3181.21L0 3192V3178.79Z" fill="#FFF001"/>
<path d="M0 3210.79L10 3200V3213.21L0 3224V3210.79Z" fill="#FFF001"/>
<path d="M0 3242.79L10 3232V3245.21L0 3256V3242.79Z" fill="#FFF001"/>
<path d="M0 3274.79L10 3264V3277.21L0 3288V3274.79Z" fill="#FFF001"/>
<path d="M0 3306.79L10 3296V3309.21L0 3320V3306.79Z" fill="#FFF001"/>
<path d="M0 3338.79L10 3328V3341.21L0 3352V3338.79Z" fill="#FFF001"/>
<path d="M0 3370.79L10 3360V3373.21L0 3384V3370.79Z" fill="#FFF001"/>
<path d="M0 3402.79L10 3392V3405.21L0 3416V3402.79Z" fill="#FFF001"/>
<path d="M0 3434.79L10 3424V3437.21L0 3448V3434.79Z" fill="#FFF001"/>
<path d="M0 3466.79L10 3456V3469.21L0 3480V3466.79Z" fill="#FFF001"/>
<path d="M0 3498.79L10 3488V3501.21L0 3512V3498.79Z" fill="#FFF001"/>
<path d="M0 3530.79L10 3520V3533.21L0 3544V3530.79Z" fill="#FFF001"/>
<path d="M0 3562.79L10 3552V3565.21L0 3576V3562.79Z" fill="#FFF001"/>
<path d="M0 3594.79L10 3584V3597.21L0 3608V3594.79Z" fill="#FFF001"/>
<path d="M0 3626.79L10 3616V3629.21L0 3640V3626.79Z" fill="#FFF001"/>
<path d="M0 3658.79L10 3648V3661.21L0 3672V3658.79Z" fill="#FFF001"/>
<path d="M0 3690.79L10 3680V3693.21L0 3704V3690.79Z" fill="#FFF001"/>
<path d="M0 3722.79L10 3712V3725.21L0 3736V3722.79Z" fill="#FFF001"/>
<path d="M0 3754.79L10 3744V3757.21L0 3768V3754.79Z" fill="#FFF001"/>
<path d="M0 3786.79L10 3776V3789.21L0 3800V3786.79Z" fill="#FFF001"/>
<path d="M0 3818.79L10 3808V3821.21L0 3832V3818.79Z" fill="#FFF001"/>
<path d="M0 3850.79L10 3840V3853.21L0 3864V3850.79Z" fill="#FFF001"/>
<path d="M0 3882.79L10 3872V3885.21L0 3896V3882.79Z" fill="#FFF001"/>
<path d="M0 3914.79L10 3904V3917.21L0 3928V3914.79Z" fill="#FFF001"/>
<path d="M0 3946.79L10 3936V3949.21L0 3960V3946.79Z" fill="#FFF001"/>
<path d="M0 3978.79L10 3968V3981.21L0 3992V3978.79Z" fill="#FFF001"/>
<path d="M0 4010.79L10 4000V4013.21L0 4024V4010.79Z" fill="#FFF001"/>
<path d="M0 4042.79L10 4032V4045.21L0 4056V4042.79Z" fill="#FFF001"/>
<path d="M0 4074.79L10 4064V4077.21L0 4088V4074.79Z" fill="#FFF001"/>
<path d="M0 4106.79L10 4096V4109.21L0 4120V4106.79Z" fill="#FFF001"/>
<path d="M0 4138.79L10 4128V4141.21L0 4152V4138.79Z" fill="#FFF001"/>
<path d="M0 4170.79L10 4160V4173.21L0 4184V4170.79Z" fill="#FFF001"/>
<path d="M0 4202.79L10 4192V4205.21L0 4216V4202.79Z" fill="#FFF001"/>
<path d="M0 4234.79L10 4224V4237.21L0 4248V4234.79Z" fill="#FFF001"/>
<path d="M0 4266.79L10 4256V4269.21L0 4280V4266.79Z" fill="#FFF001"/>
<path d="M0 4298.79L10 4288V4301.21L0 4312V4298.79Z" fill="#FFF001"/>
<path d="M0 4330.79L10 4320V4333.21L0 4344V4330.79Z" fill="#FFF001"/>
<path d="M0 4362.79L10 4352V4365.21L0 4376V4362.79Z" fill="#FFF001"/>
<path d="M0 4394.79L10 4384V4397.21L0 4408V4394.79Z" fill="#FFF001"/>
<path d="M0 4426.79L10 4416V4429.21L0 4440V4426.79Z" fill="#FFF001"/>
<path d="M0 4458.79L10 4448V4461.21L0 4472V4458.79Z" fill="#FFF001"/>
<path d="M0 4490.79L10 4480V4493.21L0 4504V4490.79Z" fill="#FFF001"/>
<path d="M0 4522.79L10 4512V4525.21L0 4536V4522.79Z" fill="#FFF001"/>
<path d="M0 4554.79L10 4544V4557.21L0 4568V4554.79Z" fill="#FFF001"/>
<path d="M0 4586.79L10 4576V4589.21L0 4600V4586.79Z" fill="#FFF001"/>
<path d="M0 4618.79L10 4608V4621.21L0 4632V4618.79Z" fill="#FFF001"/>
<path d="M0 4650.79L10 4640V4653.21L0 4664V4650.79Z" fill="#FFF001"/>
<path d="M0 4682.79L10 4672V4685.21L0 4696V4682.79Z" fill="#FFF001"/>
<path d="M0 4714.79L10 4704V4717.21L0 4728V4714.79Z" fill="#FFF001"/>
<path d="M0 4746.79L10 4736V4749.21L0 4760V4746.79Z" fill="#FFF001"/>
<path d="M0 4778.79L10 4768V4781.21L0 4792V4778.79Z" fill="#FFF001"/>
<path d="M0 4810.79L10 4800V4813.21L0 4824V4810.79Z" fill="#FFF001"/>
<path d="M0 4842.79L10 4832V4845.21L0 4856V4842.79Z" fill="#FFF001"/>
<path d="M0 4874.79L10 4864V4877.21L0 4888V4874.79Z" fill="#FFF001"/>
<path d="M0 4906.79L10 4896V4909.21L0 4920V4906.79Z" fill="#FFF001"/>
<path d="M0 4938.79L10 4928V4941.21L0 4952V4938.79Z" fill="#FFF001"/>
<path d="M0 4970.79L10 4960V4973.21L0 4984V4970.79Z" fill="#FFF001"/>
<path d="M0 5002.79L10 4992V5005.21L0 5016V5002.79Z" fill="#FFF001"/>
<path d="M0 5034.79L10 5024V5037.21L0 5048V5034.79Z" fill="#FFF001"/>
<path d="M0 5066.79L10 5056V5069.21L0 5080V5066.79Z" fill="#FFF001"/>
<path d="M0 5098.79L10 5088V5101.21L0 5112V5098.79Z" fill="#FFF001"/>
<path d="M0 5130.79L10 5120V5133.21L0 5144V5130.79Z" fill="#FFF001"/>
<path d="M0 5162.79L10 5152V5165.21L0 5176V5162.79Z" fill="#FFF001"/>
<path d="M0 5194.79L10 5184V5197.21L0 5208V5194.79Z" fill="#FFF001"/>
<path d="M0 5226.79L10 5216V5229.21L0 5240V5226.79Z" fill="#FFF001"/>
<path d="M0 5258.79L10 5248V5261.21L0 5272V5258.79Z" fill="#FFF001"/>
<path d="M0 5290.79L10 5280V5293.21L0 5304V5290.79Z" fill="#FFF001"/>
<path d="M0 5322.79L10 5312V5325.21L0 5336V5322.79Z" fill="#FFF001"/>
<path d="M0 5354.79L10 5344V5357.21L0 5368V5354.79Z" fill="#FFF001"/>
<path d="M0 5386.79L10 5376V5389.21L0 5400V5386.79Z" fill="#FFF001"/>
<path d="M0 5418.79L10 5408V5421.21L0 5432V5418.79Z" fill="#FFF001"/>
<path d="M0 5450.79L10 5440V5453.21L0 5464V5450.79Z" fill="#FFF001"/>
<path d="M0 5482.79L10 5472V5485.21L0 5496V5482.79Z" fill="#FFF001"/>
<path d="M0 5514.79L10 5504V5517.21L0 5528V5514.79Z" fill="#FFF001"/>
<path d="M0 5546.79L10 5536V5549.21L0 5560V5546.79Z" fill="#FFF001"/>
<path d="M0 5578.79L10 5568V5581.21L0 5592V5578.79Z" fill="#FFF001"/>
<path d="M0 5610.79L10 5600V5613.21L0 5624V5610.79Z" fill="#FFF001"/>
<path d="M0 5642.79L10 5632V5645.21L0 5656V5642.79Z" fill="#FFF001"/>
<path d="M0 5674.79L10 5664V5677.21L0 5688V5674.79Z" fill="#FFF001"/>
<path d="M0 5706.79L10 5696V5709.21L0 5720V5706.79Z" fill="#FFF001"/>
<path d="M0 5738.79L10 5728V5741.21L0 5752V5738.79Z" fill="#FFF001"/>
<path d="M0 5770.79L10 5760V5773.21L0 5784V5770.79Z" fill="#FFF001"/>
<path d="M0 5802.79L10 5792V5805.21L0 5816V5802.79Z" fill="#FFF001"/>
<path d="M0 5834.79L10 5824V5837.21L0 5848V5834.79Z" fill="#FFF001"/>
<path d="M0 5866.79L10 5856V5869.21L0 5880V5866.79Z" fill="#FFF001"/>
<path d="M0 5898.79L10 5888V5901.21L0 5912V5898.79Z" fill="#FFF001"/>
<path d="M0 5930.79L10 5920V5933.21L0 5944V5930.79Z" fill="#FFF001"/>
<path d="M0 5962.79L10 5952V5965.21L0 5976V5962.79Z" fill="#FFF001"/>
<path d="M0 5994.79L10 5984V5997.21L0 6008V5994.79Z" fill="#FFF001"/>
<path d="M0 6026.79L10 6016V6029.21L0 6040V6026.79Z" fill="#FFF001"/>
<path d="M0 6058.79L10 6048V6061.21L0 6072V6058.79Z" fill="#FFF001"/>
<path d="M0 6090.79L10 6080V6093.21L0 6104V6090.79Z" fill="#FFF001"/>
<path d="M0 6122.79L10 6112V6125.21L0 6136V6122.79Z" fill="#FFF001"/>
<path d="M0 6154.79L10 6144V6157.21L0 6168V6154.79Z" fill="#FFF001"/>
<path d="M0 6186.79L10 6176V6189.21L0 6200V6186.79Z" fill="#FFF001"/>
<path d="M0 6218.79L10 6208V6221.21L0 6232V6218.79Z" fill="#FFF001"/>
<path d="M0 6250.79L10 6240V6253.21L0 6264V6250.79Z" fill="#FFF001"/>
<path d="M0 6282.79L10 6272V6285.21L0 6296V6282.79Z" fill="#FFF001"/>
<path d="M0 6314.79L10 6304V6317.21L0 6328V6314.79Z" fill="#FFF001"/>
<path d="M0 6346.79L10 6336V6349.21L0 6360V6346.79Z" fill="#FFF001"/>
<path d="M0 6378.79L10 6368V6381.21L0 6392V6378.79Z" fill="#FFF001"/>
<path d="M0 6410.79L10 6400V6413.21L0 6424V6410.79Z" fill="#FFF001"/>
<path d="M0 6442.79L10 6432V6445.21L0 6456V6442.79Z" fill="#FFF001"/>
<path d="M0 6474.79L10 6464V6477.21L0 6488V6474.79Z" fill="#FFF001"/>
<path d="M0 6506.79L10 6496V6509.21L0 6520V6506.79Z" fill="#FFF001"/>
<path d="M0 6538.79L10 6528V6541.21L0 6552V6538.79Z" fill="#FFF001"/>
<path d="M0 6570.79L10 6560V6573.21L0 6584V6570.79Z" fill="#FFF001"/>
<path d="M0 6602.79L10 6592V6605.21L0 6616V6602.79Z" fill="#FFF001"/>
<path d="M0 6634.79L10 6624V6637.21L0 6648V6634.79Z" fill="#FFF001"/>
<path d="M0 6666.79L10 6656V6669.21L0 6680V6666.79Z" fill="#FFF001"/>
<path d="M0 6698.79L10 6688V6701.21L0 6712V6698.79Z" fill="#FFF001"/>
<path d="M0 6730.79L10 6720V6733.21L0 6744V6730.79Z" fill="#FFF001"/>
<path d="M0 6762.79L10 6752V6765.21L0 6776V6762.79Z" fill="#FFF001"/>
<path d="M0 6794.79L10 6784V6797.21L0 6808V6794.79Z" fill="#FFF001"/>
<path d="M0 6826.79L10 6816V6829.21L0 6840V6826.79Z" fill="#FFF001"/>
<path d="M0 6858.79L10 6848V6861.21L0 6872V6858.79Z" fill="#FFF001"/>
<path d="M0 6890.79L10 6880V6893.21L0 6904V6890.79Z" fill="#FFF001"/>
<path d="M0 6922.79L10 6912V6925.21L0 6936V6922.79Z" fill="#FFF001"/>
<path d="M0 6954.79L10 6944V6957.21L0 6968V6954.79Z" fill="#FFF001"/>
<path d="M0 6986.79L10 6976V6989.21L0 7000V6986.79Z" fill="#FFF001"/>
<path d="M0 7018.79L10 7008V7021.21L0 7032V7018.79Z" fill="#FFF001"/>
<path d="M0 7050.79L10 7040V7053.21L0 7064V7050.79Z" fill="#FFF001"/>
<path d="M0 7082.79L10 7072V7085.21L0 7096V7082.79Z" fill="#FFF001"/>
<path d="M0 7114.79L10 7104V7117.21L0 7128V7114.79Z" fill="#FFF001"/>
<path d="M0 7146.79L10 7136V7149.21L0 7160V7146.79Z" fill="#FFF001"/>
<path d="M0 7178.79L10 7168V7181.21L0 7192V7178.79Z" fill="#FFF001"/>
<path d="M0 7210.79L10 7200V7213.21L0 7224V7210.79Z" fill="#FFF001"/>
<path d="M0 7242.79L10 7232V7245.21L0 7256V7242.79Z" fill="#FFF001"/>
<path d="M0 7274.79L10 7264V7277.21L0 7288V7274.79Z" fill="#FFF001"/>
<path d="M0 7306.79L10 7296V7309.21L0 7320V7306.79Z" fill="#FFF001"/>
<path d="M0 7338.79L10 7328V7341.21L0 7352V7338.79Z" fill="#FFF001"/>
<path d="M0 7370.79L10 7360V7373.21L0 7384V7370.79Z" fill="#FFF001"/>
<path d="M0 7402.79L10 7392V7405.21L0 7416V7402.79Z" fill="#FFF001"/>
<path d="M0 7434.79L10 7424V7437.21L0 7448V7434.79Z" fill="#FFF001"/>
<path d="M0 7466.79L10 7456V7469.21L0 7480V7466.79Z" fill="#FFF001"/>
<path d="M0 7498.79L10 7488V7501.21L0 7512V7498.79Z" fill="#FFF001"/>
<path d="M0 7530.79L10 7520V7533.21L0 7544V7530.79Z" fill="#FFF001"/>
<path d="M0 7562.79L10 7552V7565.21L0 7576V7562.79Z" fill="#FFF001"/>
<path d="M0 7594.79L10 7584V7597.21L0 7608V7594.79Z" fill="#FFF001"/>
<path d="M0 7626.79L10 7616V7629.21L0 7640V7626.79Z" fill="#FFF001"/>
<path d="M0 7658.79L10 7648V7661.21L0 7672V7658.79Z" fill="#FFF001"/>
<path d="M0 7690.79L10 7680V7693.21L0 7704V7690.79Z" fill="#FFF001"/>
<path d="M0 7722.79L10 7712V7725.21L0 7736V7722.79Z" fill="#FFF001"/>
<path d="M0 7754.79L10 7744V7757.21L0 7768V7754.79Z" fill="#FFF001"/>
<path d="M0 7786.79L10 7776V7789.21L0 7800V7786.79Z" fill="#FFF001"/>
<path d="M0 7818.79L10 7808V7821.21L0 7832V7818.79Z" fill="#FFF001"/>
<path d="M0 7850.79L10 7840V7853.21L0 7864V7850.79Z" fill="#FFF001"/>
<path d="M0 7882.79L10 7872V7885.21L0 7896V7882.79Z" fill="#FFF001"/>
<path d="M0 7914.79L10 7904V7917.21L0 7928V7914.79Z" fill="#FFF001"/>
<path d="M0 7946.79L10 7936V7949.21L0 7960V7946.79Z" fill="#FFF001"/>
<path d="M0 7978.79L10 7968V7981.21L0 7992V7978.79Z" fill="#FFF001"/>
<path d="M0 8010.79L10 8000V8013.21L0 8024V8010.79Z" fill="#FFF001"/>
<path d="M0 8042.79L10 8032V8045.21L0 8056V8042.79Z" fill="#FFF001"/>
<path d="M0 8074.79L10 8064V8077.21L0 8088V8074.79Z" fill="#FFF001"/>
<path d="M0 8106.79L10 8096V8109.21L0 8120V8106.79Z" fill="#FFF001"/>
<path d="M0 8138.79L10 8128V8141.21L0 8152V8138.79Z" fill="#FFF001"/>
<path d="M0 8170.79L10 8160V8173.21L0 8184V8170.79Z" fill="#FFF001"/>
<path d="M0 8202.79L10 8192V8205.21L0 8216V8202.79Z" fill="#FFF001"/>
<path d="M0 8234.79L10 8224V8237.21L0 8248V8234.79Z" fill="#FFF001"/>
<path d="M0 8266.79L10 8256V8269.21L0 8280V8266.79Z" fill="#FFF001"/>
<path d="M0 8298.79L10 8288V8301.21L0 8312V8298.79Z" fill="#FFF001"/>
<path d="M0 8330.79L10 8320V8333.21L0 8344V8330.79Z" fill="#FFF001"/>
<path d="M0 8362.79L10 8352V8365.21L0 8376V8362.79Z" fill="#FFF001"/>
<path d="M0 8394.79L10 8384V8397.21L0 8408V8394.79Z" fill="#FFF001"/>
<path d="M0 8426.79L10 8416V8429.21L0 8440V8426.79Z" fill="#FFF001"/>
<path d="M0 8458.79L10 8448V8461.21L0 8472V8458.79Z" fill="#FFF001"/>
<path d="M0 8490.79L10 8480V8493.21L0 8504V8490.79Z" fill="#FFF001"/>
<path d="M0 8522.79L10 8512V8525.21L0 8536V8522.79Z" fill="#FFF001"/>
<path d="M0 8554.79L10 8544V8557.21L0 8568V8554.79Z" fill="#FFF001"/>
<path d="M0 8586.79L10 8576V8589.21L0 8600V8586.79Z" fill="#FFF001"/>
<path d="M0 8618.79L10 8608V8621.21L0 8632V8618.79Z" fill="#FFF001"/>
<path d="M0 8650.79L10 8640V8653.21L0 8664V8650.79Z" fill="#FFF001"/>
<path d="M0 8682.79L10 8672V8685.21L0 8696V8682.79Z" fill="#FFF001"/>
<path d="M0 8714.79L10 8704V8717.21L0 8728V8714.79Z" fill="#FFF001"/>
<path d="M0 8746.79L10 8736V8749.21L0 8760V8746.79Z" fill="#FFF001"/>
<path d="M0 8778.79L10 8768V8781.21L0 8792V8778.79Z" fill="#FFF001"/>
<path d="M0 8810.79L10 8800V8813.21L0 8824V8810.79Z" fill="#FFF001"/>
<path d="M0 8842.79L10 8832V8845.21L0 8856V8842.79Z" fill="#FFF001"/>
<path d="M0 8874.79L10 8864V8877.21L0 8888V8874.79Z" fill="#FFF001"/>
<path d="M0 8906.79L10 8896V8909.21L0 8920V8906.79Z" fill="#FFF001"/>
<path d="M0 8938.79L10 8928V8941.21L0 8952V8938.79Z" fill="#FFF001"/>
<path d="M0 8970.79L10 8960V8973.21L0 8984V8970.79Z" fill="#FFF001"/>
<path d="M0 9002.79L10 8992V9005.21L0 9016V9002.79Z" fill="#FFF001"/>
<path d="M0 9034.79L10 9024V9037.21L0 9048V9034.79Z" fill="#FFF001"/>
<path d="M0 9066.79L10 9056V9069.21L0 9080V9066.79Z" fill="#FFF001"/>
<path d="M0 9098.79L10 9088V9101.21L0 9112V9098.79Z" fill="#FFF001"/>
<path d="M0 9130.79L10 9120V9133.21L0 9144V9130.79Z" fill="#FFF001"/>
<path d="M0 9162.79L10 9152V9165.21L0 9176V9162.79Z" fill="#FFF001"/>
<path d="M0 9194.79L10 9184V9197.21L0 9208V9194.79Z" fill="#FFF001"/>
<path d="M0 9226.79L10 9216V9229.21L0 9240V9226.79Z" fill="#FFF001"/>
<path d="M0 9258.79L10 9248V9261.21L0 9272V9258.79Z" fill="#FFF001"/>
<path d="M0 9290.79L10 9280V9293.21L0 9304V9290.79Z" fill="#FFF001"/>
<path d="M0 9322.79L10 9312V9325.21L0 9336V9322.79Z" fill="#FFF001"/>
<path d="M0 9354.79L10 9344V9357.21L0 9368V9354.79Z" fill="#FFF001"/>
<path d="M0 9386.79L10 9376V9389.21L0 9400V9386.79Z" fill="#FFF001"/>
<path d="M0 9418.79L10 9408V9421.21L0 9432V9418.79Z" fill="#FFF001"/>
<path d="M0 9450.79L10 9440V9453.21L0 9464V9450.79Z" fill="#FFF001"/>
<path d="M0 9482.79L10 9472V9485.21L0 9496V9482.79Z" fill="#FFF001"/>
<path d="M0 9514.79L10 9504V9517.21L0 9528V9514.79Z" fill="#FFF001"/>
<path d="M0 9546.79L10 9536V9549.21L0 9560V9546.79Z" fill="#FFF001"/>
<path d="M0 9578.79L10 9568V9581.21L0 9592V9578.79Z" fill="#FFF001"/>
<path d="M0 9610.79L10 9600V9613.21L0 9624V9610.79Z" fill="#FFF001"/>
<path d="M0 9642.79L10 9632V9645.21L0 9656V9642.79Z" fill="#FFF001"/>
<path d="M0 9674.79L10 9664V9677.21L0 9688V9674.79Z" fill="#FFF001"/>
<path d="M0 9706.79L10 9696V9709.21L0 9720V9706.79Z" fill="#FFF001"/>
<path d="M0 9738.79L10 9728V9741.21L0 9752V9738.79Z" fill="#FFF001"/>
<path d="M0 9770.79L10 9760V9773.21L0 9784V9770.79Z" fill="#FFF001"/>
<path d="M0 9802.79L10 9792V9805.21L0 9816V9802.79Z" fill="#FFF001"/>
<path d="M0 9834.79L10 9824V9837.21L0 9848V9834.79Z" fill="#FFF001"/>
<path d="M0 9866.79L10 9856V9869.21L0 9880V9866.79Z" fill="#FFF001"/>
<path d="M0 9898.79L10 9888V9901.21L0 9912V9898.79Z" fill="#FFF001"/>
<path d="M0 9930.79L10 9920V9933.21L0 9944V9930.79Z" fill="#FFF001"/>
<path d="M0 9962.79L10 9952V9965.21L0 9976V9962.79Z" fill="#FFF001"/>
<path d="M0 9994.79L10 9984V9997.21L0 10008V9994.79Z" fill="#FFF001"/>
<path d="M0 10026.8L10 10016V10029.2L0 10040V10026.8Z" fill="#FFF001"/>
<path d="M0 10058.8L10 10048V10061.2L0 10072V10058.8Z" fill="#FFF001"/>
<path d="M0 10090.8L10 10080V10093.2L0 10104V10090.8Z" fill="#FFF001"/>
<path d="M0 10122.8L10 10112V10125.2L0 10136V10122.8Z" fill="#FFF001"/>
<path d="M0 10154.8L10 10144V10157.2L0 10168V10154.8Z" fill="#FFF001"/>
<path d="M0 10186.8L10 10176V10189.2L0 10200V10186.8Z" fill="#FFF001"/>
<path d="M0 10218.8L10 10208V10221.2L0 10232V10218.8Z" fill="#FFF001"/>
<path d="M0 10250.8L10 10240V10253.2L0 10264V10250.8Z" fill="#FFF001"/>
<path d="M0 10282.8L10 10272V10285.2L0 10296V10282.8Z" fill="#FFF001"/>
<path d="M0 10314.8L10 10304V10317.2L0 10328V10314.8Z" fill="#FFF001"/>
<path d="M0 10346.8L10 10336V10349.2L0 10360V10346.8Z" fill="#FFF001"/>
<path d="M0 10378.8L10 10368V10381.2L0 10392V10378.8Z" fill="#FFF001"/>
<path d="M0 10410.8L10 10400V10413.2L0 10424V10410.8Z" fill="#FFF001"/>
<path d="M0 10442.8L10 10432V10445.2L0 10456V10442.8Z" fill="#FFF001"/>
<path d="M0 10474.8L10 10464V10477.2L0 10488V10474.8Z" fill="#FFF001"/>
<path d="M0 10506.8L10 10496V10509.2L0 10520V10506.8Z" fill="#FFF001"/>
<path d="M0 10538.8L10 10528V10541.2L0 10552V10538.8Z" fill="#FFF001"/>
<path d="M0 10570.8L10 10560V10573.2L0 10584V10570.8Z" fill="#FFF001"/>
<path d="M0 10602.8L10 10592V10605.2L0 10616V10602.8Z" fill="#FFF001"/>
<path d="M0 10634.8L10 10624V10637.2L0 10648V10634.8Z" fill="#FFF001"/>
</svg>
