<svg width="540" height="329" viewBox="0 0 540 329" fill="none" xmlns="http://www.w3.org/2000/svg">
<g clip-path="url(#clip0_999_34854)">
<path d="M41.7949 328.782C37.4118 328.771 33.1889 327.133 29.9451 324.186C26.7013 321.238 24.6679 317.19 24.239 312.828L18.0309 249.302C17.7799 247.073 18.1051 244.816 18.9753 242.749C19.8456 240.681 21.2319 238.871 23.0015 237.492C30.7686 231.591 36.8944 223.798 40.7947 214.857C44.6951 205.916 46.24 196.124 45.282 186.417C44.3241 176.709 40.8952 167.409 35.3225 159.402C29.7497 151.396 22.2189 144.951 13.4481 140.681C11.4392 139.676 9.72197 138.172 8.46062 136.313C7.19927 134.454 6.43603 132.302 6.24402 130.064L0.0881366 67.5367C-0.139505 65.2272 0.0900917 62.8955 0.763627 60.6746C1.43716 58.4538 2.54146 56.3873 4.01363 54.5933C5.48579 52.7993 7.29693 51.3128 9.34358 50.2187C11.3902 49.1247 13.6324 48.4445 15.942 48.217L69.0222 43.3517L69.9388 52.6329C70.1683 54.5262 71.1299 56.2544 72.618 57.4474C74.106 58.6403 76.0021 59.2032 77.9001 59.0153C79.798 58.8275 81.5469 57.9039 82.7723 56.4424C83.9976 54.9809 84.6018 53.0976 84.4557 51.196L83.5374 41.9098L84.5645 41.8071L496.44 0.728577C501.105 0.273871 505.759 1.68767 509.383 4.66002C513.007 7.63237 515.303 11.9206 515.77 16.584L539.919 261.888C540.371 266.551 538.957 271.202 535.985 274.824C533.014 278.445 528.728 280.74 524.067 281.206L111.183 322.391L110.222 312.614C109.959 310.71 108.954 308.986 107.427 307.818C105.9 306.65 103.973 306.132 102.066 306.376C100.159 306.621 98.4253 307.607 97.2417 309.122C96.0581 310.638 95.5201 312.559 95.7447 314.468V314.497L96.6688 323.825L43.5596 328.691C42.9696 328.752 42.3814 328.782 41.7949 328.782ZM67.1685 45.5905L16.1344 50.2683C12.0159 50.6759 8.22793 52.7024 5.60321 55.9023C2.9785 59.1022 1.73193 63.2135 2.1378 67.3322L8.29452 129.872C8.45525 131.76 9.09764 133.575 10.1601 135.144C11.2226 136.713 12.6697 137.983 14.3631 138.833C23.4469 143.258 31.2461 149.935 37.0174 158.229C42.7887 166.523 46.3396 176.157 47.3319 186.212C48.3242 196.268 46.7247 206.41 42.6858 215.672C38.6469 224.934 32.3033 233.007 24.2595 239.122C22.7685 240.287 21.6013 241.816 20.8693 243.56C20.1374 245.305 19.8652 247.209 20.0789 249.089L26.2885 312.627C26.4889 314.669 27.0896 316.65 28.0561 318.46C29.0226 320.269 30.3362 321.87 31.9216 323.171C33.507 324.473 35.3333 325.449 37.2961 326.045C39.2589 326.64 41.3198 326.843 43.3611 326.642L94.4087 321.965L93.6906 314.714C93.4036 312.263 94.0959 309.798 95.6168 307.855C97.1377 305.913 99.3642 304.649 101.812 304.339C104.26 304.029 106.731 304.699 108.688 306.201C110.645 307.704 111.929 309.919 112.262 312.364L112.311 312.86L113.026 320.134L523.855 279.154C527.973 278.743 531.759 276.715 534.384 273.517C537.009 270.318 538.258 266.209 537.859 262.09L513.71 16.7859C513.298 12.6666 511.269 8.87871 508.069 6.25316C504.868 3.62761 500.757 2.37883 496.636 2.78075L85.7866 43.7582L86.5053 51.0403C86.6793 53.4719 85.8976 55.8755 84.3263 57.7394C82.755 59.6033 80.5183 60.7804 78.0923 61.0202C75.6663 61.26 73.2423 60.5434 71.3366 59.0232C69.4308 57.5029 68.1936 55.2989 67.8883 52.8803V52.8503L67.1685 45.5905ZM100.716 299.644C98.4428 299.639 96.2493 298.807 94.5439 297.304C92.8385 295.801 91.7378 293.73 91.4469 291.475L91.3919 290.991L89.7582 274.416C89.4464 271.954 90.1253 269.468 91.6458 267.507C93.1662 265.545 95.4037 264.268 97.8658 263.956C100.328 263.645 102.813 264.324 104.774 265.844C106.736 267.364 108.013 269.602 108.325 272.064L108.375 272.563L110.009 289.113C110.174 290.431 110.057 291.769 109.665 293.038C109.274 294.307 108.617 295.479 107.738 296.475C106.859 297.47 105.778 298.268 104.568 298.814C103.357 299.361 102.044 299.644 100.716 299.644ZM99.0695 265.956C98.7518 265.956 98.4344 265.977 98.1194 266.018C97.1693 266.138 96.2521 266.444 95.4204 266.918C94.5887 267.393 93.8588 268.027 93.2723 268.784C92.6859 269.541 92.2546 270.407 92.0028 271.331C91.7511 272.255 91.684 273.219 91.8054 274.169V274.199L93.4399 290.775L93.4905 291.23C93.7413 293.144 94.7403 294.881 96.2687 296.06C97.7971 297.239 99.7305 297.765 101.645 297.521C102.596 297.401 103.514 297.094 104.346 296.619C105.177 296.143 105.907 295.508 106.494 294.751C107.08 293.993 107.511 293.126 107.762 292.202C108.014 291.277 108.08 290.312 107.958 289.361V289.331L106.277 272.312C106.05 270.559 105.194 268.948 103.868 267.778C102.542 266.609 100.837 265.961 99.0686 265.956H99.0695ZM95.8071 249.947C93.5318 249.94 91.3362 249.107 89.6293 247.603C87.9225 246.098 86.8208 244.024 86.5293 241.768L86.4796 241.254L84.8409 224.664C84.6765 222.237 85.4631 219.842 87.0343 217.985C88.6056 216.129 90.8381 214.957 93.2585 214.718C95.679 214.479 98.0972 215.192 100.001 216.705C101.905 218.219 103.145 220.414 103.458 222.826V222.854L105.098 239.416C105.262 240.734 105.144 242.071 104.753 243.34C104.361 244.609 103.703 245.78 102.824 246.775C101.946 247.77 100.865 248.568 99.6547 249.114C98.4443 249.66 97.1315 249.942 95.8036 249.942L95.8071 249.947ZM88.5773 241.52C88.8352 243.43 89.8378 245.16 91.3666 246.333C92.8954 247.506 94.8262 248.027 96.7375 247.782C98.6489 247.537 100.386 246.545 101.569 245.024C102.752 243.503 103.286 241.576 103.053 239.663V239.635L101.414 223.074C101.178 221.228 100.244 219.543 98.8035 218.365C97.3634 217.187 95.5266 216.606 93.671 216.741C92.7164 216.805 91.7839 217.056 90.9266 217.481C90.0694 217.906 89.3043 218.496 88.6753 219.217C88.0464 219.937 87.5657 220.775 87.261 221.682C86.9564 222.589 86.8338 223.547 86.9 224.502L88.5773 241.52ZM90.8683 200.242C88.5972 200.236 86.406 199.403 84.7041 197.899C83.0022 196.396 81.9059 194.323 81.6204 192.07L81.6162 192.038L81.5709 191.559L79.9328 175C79.6212 172.537 80.3006 170.051 81.8216 168.09C83.3426 166.128 85.5806 164.851 88.0433 164.539C90.506 164.228 92.9915 164.907 94.9532 166.428C96.9149 167.949 98.192 170.187 98.5037 172.65L98.5542 173.145L100.192 189.708C100.501 192.168 99.8215 194.65 98.3033 196.61C96.7851 198.569 94.5517 199.847 92.0929 200.163C91.6888 200.215 91.2817 200.242 90.8742 200.242H90.8683ZM83.6684 191.827C83.9268 193.737 84.9308 195.467 86.4608 196.64C87.9909 197.812 89.9227 198.332 91.8344 198.085C93.7462 197.837 95.4826 196.844 96.6642 195.321C97.8458 193.798 98.3768 191.869 98.141 189.956V189.926L96.4559 172.895C96.1908 170.992 95.1855 169.27 93.6584 168.104C92.1314 166.937 90.2058 166.421 88.2999 166.665C86.394 166.91 84.6616 167.897 83.4791 169.412C82.2966 170.927 81.7594 172.847 81.9842 174.755V174.783L83.6684 191.827ZM85.979 150.531C83.706 150.525 81.5126 149.693 79.8066 148.191C78.1006 146.689 76.9983 144.619 76.7048 142.365V142.33L76.6594 141.852L75.0214 125.26C74.8483 122.83 75.6304 120.428 77.2014 118.565C78.7724 116.702 81.0082 115.526 83.4331 115.287C85.858 115.047 88.2807 115.763 90.1857 117.283C92.0907 118.802 93.3276 121.005 93.6334 123.422V123.45L95.2731 140.003C95.4376 141.32 95.32 142.658 94.9282 143.927C94.5363 145.196 93.8792 146.367 93.0003 147.362C92.1214 148.357 91.0408 149.155 89.8303 149.701C88.6198 150.247 87.3069 150.529 85.979 150.529V150.531ZM78.7527 142.119C79.0063 144.033 80.0067 145.768 81.5354 146.946C83.064 148.125 84.9969 148.651 86.9119 148.409C87.8628 148.289 88.7804 147.982 89.6126 147.507C90.4448 147.031 91.1751 146.396 91.7615 145.638C92.348 144.88 92.779 144.014 93.0302 143.089C93.2813 142.164 93.3476 141.199 93.2251 140.248V140.219L91.5862 123.669C91.3407 121.79 90.3739 120.081 88.8903 118.903C87.4068 117.725 85.523 117.17 83.6377 117.356C81.7524 117.543 80.0134 118.455 78.7891 119.901C77.5648 121.347 76.9511 123.212 77.0779 125.102L78.7527 142.119ZM81.0352 100.356C78.7587 100.354 76.5607 99.523 74.8515 98.0193C73.1423 96.5156 72.0386 94.4415 71.7463 92.1838V92.1512L71.1575 85.9997C70.9882 84.7732 71.0639 83.5252 71.3802 82.3281C71.6966 81.131 72.2473 80.0085 73.0005 79.0258C73.7538 78.043 74.6945 77.2195 75.7683 76.6029C76.8421 75.9862 78.0276 75.5888 79.2561 75.4335C80.4845 75.2783 81.7316 75.3684 82.925 75.6986C84.1184 76.0287 85.2344 76.5923 86.2084 77.3568C87.1824 78.1213 87.9951 79.0715 88.5993 80.1523C89.2035 81.233 89.5873 82.423 89.7284 83.6532V83.6797L89.7754 84.1478L90.3625 90.3455C90.5356 92.8212 89.7183 95.2642 88.0903 97.1373C86.4623 99.0104 84.1568 100.16 81.6812 100.334C81.469 100.35 81.2558 100.358 81.0418 100.358L81.0352 100.356ZM73.7941 91.9373C74.0397 93.8164 75.007 95.5262 76.491 96.7048C77.975 97.8834 79.8594 98.4382 81.7453 98.252C83.6313 98.0657 85.3708 97.1529 86.5956 95.7068C87.8204 94.2607 88.4343 92.3947 88.3076 90.5039L87.6787 83.9013C87.4161 81.9957 86.412 80.2709 84.8844 79.1018C83.3568 77.9327 81.4294 77.414 79.5214 77.6584C77.6134 77.9028 75.879 78.8906 74.6954 80.4069C73.5118 81.9233 72.9749 83.8457 73.2011 85.7559V85.7884L73.7941 91.9373Z" fill="#FCE921"/>
<path d="M196.645 106.88C193.555 101.037 188.731 98.4484 182.173 99.1154C179.222 99.3458 176.428 100.533 174.214 102.497C172.019 104.509 170.295 106.98 169.164 109.735C167.906 112.75 167.068 115.925 166.675 119.169C166.242 122.47 166.189 125.81 166.518 129.124C167.053 135.151 168.57 139.323 171.067 141.641C172.322 142.794 173.818 143.652 175.446 144.154C177.075 144.656 178.794 144.788 180.481 144.542C183.78 144.237 186.909 142.94 189.457 140.822C192.288 138.38 194.608 135.402 196.283 132.059C199.842 133.334 202.482 134.76 204.203 136.338C205.885 137.843 206.933 139.93 207.136 142.178C207.536 146.115 205.967 149.861 202.429 153.415C199.319 156.579 195.523 158.986 191.335 160.45C187.272 161.897 183.051 162.857 178.762 163.308C172.819 163.914 167.729 163.497 163.491 162.057C159.534 160.787 155.917 158.636 152.911 155.766C150.081 152.99 147.869 149.649 146.417 145.96C144.901 142.179 143.926 138.203 143.519 134.15C143.171 130.537 143.133 126.901 143.408 123.282C143.678 119.438 144.328 115.631 145.35 111.916C146.389 108.151 147.842 104.512 149.684 101.067C151.554 97.5579 153.974 94.3705 156.85 91.6253C159.894 88.7439 163.385 86.3741 167.187 84.6078C171.559 82.6179 176.239 81.3904 181.026 80.9784C185.206 80.4815 189.441 80.703 193.546 81.6331C196.969 82.3887 200.137 84.0206 202.74 86.369C204.989 88.2742 206.398 90.9866 206.666 93.9215C206.881 95.3047 206.779 96.7186 206.369 98.0567C205.958 99.3948 205.249 100.622 204.295 101.647C202.089 103.848 199.496 105.622 196.645 106.88Z" fill="#FCE921"/>
<path d="M217.541 100.777C218.868 100.218 220.223 99.729 221.602 99.3122C223.209 98.8278 224.86 98.503 226.531 98.3425C230.929 97.894 234.115 98.3688 236.09 99.7666C238.064 101.164 239.177 103.487 239.427 106.735C239.467 107.123 239.491 107.548 239.499 108.014C239.508 108.445 239.494 108.875 239.456 109.305L237.786 134.266C237.746 134.695 237.731 135.126 237.741 135.557C237.749 136.024 237.775 136.45 237.814 136.836C237.849 137.624 238.151 138.377 238.67 138.971C239.148 139.468 240.003 139.654 241.237 139.527C243.011 139.347 244.207 138.66 244.827 137.466C245.442 136.288 245.809 134.997 245.904 133.673L248.202 97.6553C249.529 97.0965 250.884 96.6075 252.263 96.1902C253.87 95.7063 255.521 95.3815 257.192 95.2206C261.59 94.7733 264.777 95.2483 266.751 96.6455C268.726 98.0427 269.838 100.366 270.089 103.614C270.128 104.001 270.152 104.427 270.161 104.892C270.17 105.323 270.155 105.754 270.117 106.183L267.961 137.86C267.924 139.033 267.909 140.223 267.916 141.43C267.923 142.638 267.985 143.82 268.102 144.979C268.274 147.243 268.737 149.475 269.479 151.621C268.055 152.192 266.603 152.691 265.129 153.116C263.385 153.615 261.6 153.953 259.794 154.126C257.266 154.502 254.687 154.368 252.211 153.73C250.396 153.135 248.815 151.58 247.468 149.066C246.784 149.995 246.058 150.908 245.291 151.805C244.463 152.754 243.504 153.58 242.442 154.258C241.133 155.079 239.726 155.733 238.255 156.204C236.242 156.834 234.166 157.241 232.064 157.419C226.971 157.937 223.012 156.957 220.187 154.477C217.362 151.998 215.726 148.558 215.278 144.16C215.102 142.379 215.037 140.589 215.084 138.8C215.127 136.926 215.22 135.162 215.364 133.509L217.541 100.777Z" fill="#FCE921"/>
<path d="M282.183 94.7832C283.47 94.4175 284.78 94.0698 286.111 93.74C287.721 93.3647 289.355 93.1008 291.001 92.9501C297.867 92.2518 301.951 93.7067 303.256 97.3147C304.689 95.3099 306.421 93.5364 308.391 92.0558C310.452 90.4828 313.333 89.5072 317.034 89.1289C319.399 88.8648 321.793 89.1621 324.022 89.9967C326.225 90.8358 328.215 92.1508 329.852 93.8478C331.642 95.7289 333.074 97.9212 334.077 100.317C335.256 103.133 335.994 106.116 336.262 109.157C336.726 113.697 336.662 118.275 336.072 122.801C335.553 127.095 334.361 131.281 332.54 135.204C330.852 138.832 328.358 142.026 325.246 144.542C321.904 147.134 317.872 148.682 313.655 148.992C311.184 149.33 308.669 149.126 306.285 148.393C304.376 147.742 302.619 146.707 301.123 145.353L299.171 174.434L276.717 176.72L282.183 94.7832ZM301.858 131.84C302.986 132.287 304.208 132.444 305.412 132.296C306.313 132.228 307.19 131.969 307.982 131.535C308.775 131.102 309.466 130.504 310.01 129.782C311.176 128.24 312.03 126.484 312.524 124.615C313.067 122.636 313.389 120.602 313.486 118.552C313.591 116.86 313.574 115.162 313.436 113.471C312.941 108.61 311.189 106.332 308.18 106.639C307.426 106.658 306.688 106.863 306.032 107.236C305.377 107.61 304.824 108.139 304.422 108.778C303.712 109.953 303.287 111.277 303.179 112.646L301.858 131.84Z" fill="#FCE921"/>
<path d="M344.219 121.799C343.733 117.211 344.032 112.573 345.104 108.086C346.096 103.819 347.933 99.7955 350.507 96.2516C353.113 92.7341 356.416 89.7916 360.21 87.6081C364.438 85.2056 369.138 83.7497 373.984 83.3411C377.692 82.8811 381.454 83.1538 385.057 84.1438C388.008 84.9498 390.744 86.3984 393.069 88.3857C395.394 90.373 397.251 92.8499 398.506 95.6389C399.832 98.5342 400.661 101.632 400.959 104.802C401.436 109.315 401.209 113.875 400.288 118.319C399.431 122.551 397.755 126.575 395.354 130.164C392.908 133.751 389.7 136.753 385.959 138.955C381.615 141.441 376.775 142.932 371.786 143.32C367.889 143.817 363.934 143.564 360.133 142.576C357.071 141.748 354.226 140.262 351.797 138.221C349.523 136.259 347.732 133.799 346.562 131.032C345.312 128.093 344.522 124.979 344.219 121.799ZM372.069 126.567C372.887 126.493 373.674 126.221 374.362 125.774C375.05 125.326 375.619 124.717 376.018 123.999C377 122.339 377.705 120.53 378.103 118.642C378.554 116.637 378.816 114.594 378.885 112.54C378.961 110.906 378.933 109.268 378.8 107.637C378.663 105.713 378.134 103.837 377.245 102.124C376.435 100.686 375.028 100.069 373.022 100.273C372.227 100.352 371.461 100.614 370.784 101.038C370.107 101.462 369.538 102.037 369.12 102.717C368.084 104.307 367.333 106.065 366.901 107.913C366.395 109.97 366.119 112.077 366.077 114.194C366.018 116.1 366.075 118.008 366.249 119.907C366.35 121.716 366.91 123.47 367.875 125.003C368.741 126.241 370.139 126.761 372.069 126.564V126.567Z" fill="#FCE921"/>
<path d="M412.741 81.4961C414.007 81.0591 415.297 80.6937 416.605 80.4015C418.202 80.0681 419.817 79.8259 421.443 79.6758C424.915 79.3215 427.669 79.5674 429.704 80.4135C430.603 80.725 431.42 81.2345 432.096 81.9045C432.771 82.5746 433.287 83.3878 433.606 84.2842C435.117 82.2394 436.949 80.4535 439.032 78.9963C441.848 77.0827 445.126 75.9613 448.524 75.7494C452.072 75.3882 454.995 75.7731 457.295 76.9039C459.498 77.9395 461.257 79.7309 462.252 81.953C463.127 80.7906 464.068 79.6797 465.071 78.6257C466.07 77.5787 467.194 76.659 468.418 75.8872C469.766 75.0494 471.208 74.3726 472.715 73.8708C474.593 73.2627 476.534 72.8688 478.501 72.6967C480.661 72.4163 482.856 72.612 484.932 73.2701C486.66 73.8472 488.224 74.8313 489.493 76.1396C490.747 77.4731 491.722 79.0445 492.359 80.7609C493.067 82.6348 493.522 84.5943 493.713 86.5881C493.884 88.2333 493.935 89.8888 493.867 91.5415C493.795 93.1481 493.688 94.777 493.545 96.4281L492.312 115.381C492.266 116.478 492.222 117.574 492.179 118.669C492.134 119.758 492.167 120.849 492.277 121.934C492.387 123.018 492.532 124.055 492.711 125.047C492.895 126.06 493.192 127.05 493.596 127.997C492.102 128.862 490.532 129.59 488.906 130.171C486.801 130.918 484.61 131.396 482.385 131.594C477.987 132.041 474.84 131.562 472.942 130.158C471.045 128.753 469.97 126.426 469.717 123.176C469.678 122.792 469.632 122.367 469.588 121.904C469.541 121.477 469.537 121.047 469.575 120.62L471.153 97.0716C471.192 96.6426 471.206 96.2118 471.198 95.7811C471.189 95.3147 471.165 94.8894 471.126 94.5025C471.086 93.7385 470.851 92.9976 470.442 92.351C470.078 91.8427 469.279 91.651 468.045 91.7759C467.374 91.7979 466.721 91.9968 466.151 92.3525C465.582 92.7082 465.116 93.2082 464.802 93.8017C464.187 94.9788 463.821 96.2699 463.726 97.5946L463.567 99.4824L461.427 132.443L438.974 134.728L441.182 100.123C441.22 99.6933 441.234 99.2621 441.226 98.8312C441.217 98.3656 441.194 97.9403 441.154 97.5534C441.113 96.7893 440.878 96.0484 440.47 95.4012C440.105 94.8934 439.306 94.702 438.073 94.8269C437.402 94.8487 436.749 95.0475 436.179 95.4033C435.609 95.759 435.144 96.259 434.83 96.8526C434.215 98.0297 433.849 99.3208 433.754 100.645L431.454 135.494L409 137.779L412.741 81.4961Z" fill="#FCE921"/>
<path d="M178.117 183.35C182.46 182.364 186.568 181.556 190.44 180.926C194.313 180.297 197.754 179.83 200.764 179.526C205.086 179.002 209.46 179.068 213.764 179.722C216.985 180.207 220.079 181.323 222.869 183.006C225.169 184.427 227.049 186.436 228.314 188.825C229.553 191.252 230.318 193.893 230.567 196.606C231.046 200.206 230.452 203.867 228.862 207.132C227.068 210.406 224.487 213.181 221.351 215.206C224.257 216.59 226.831 218.581 228.903 221.044C230.946 223.559 232.176 226.635 232.432 229.865C232.927 234.726 232.47 238.865 231.063 242.282C229.696 245.65 227.423 248.573 224.496 250.727C221.192 253.1 217.491 254.863 213.566 255.932C208.799 257.275 203.921 258.182 198.991 258.644L172.949 261.297L178.117 183.35ZM198.689 242.999C203.087 242.553 206.183 241.38 207.978 239.481C209.773 237.583 210.493 234.898 210.14 231.427C210.111 230.484 209.879 229.559 209.46 228.713C209.041 227.868 208.444 227.123 207.712 226.529C206.115 225.452 204.169 225.024 202.269 225.331L196.829 225.884C196.665 228.865 196.465 231.692 196.23 234.365C195.995 237.038 195.811 240.019 195.678 243.308L198.689 242.999ZM202.173 210.604C203.277 210.526 204.351 210.215 205.326 209.693C206.3 209.171 207.154 208.448 207.83 207.573C209.206 205.794 209.73 203.284 209.402 200.042C209.367 199.245 209.172 198.464 208.828 197.746C208.483 197.027 207.997 196.386 207.397 195.86C206.722 195.37 205.956 195.02 205.144 194.832C204.331 194.643 203.489 194.62 202.667 194.763C201.817 194.85 201.066 194.946 200.416 195.051C199.896 195.129 199.381 195.24 198.875 195.384C198.695 198.208 198.509 200.781 198.316 203.1C198.123 205.42 197.944 208.069 197.78 211.048L202.173 210.604Z" fill="#FCE921"/>
<path d="M247.216 171.758C248.538 171.305 249.886 170.934 251.254 170.645C252.91 170.309 254.583 170.061 256.265 169.901C258.258 169.642 260.281 169.713 262.251 170.111C263.666 170.407 264.992 171.034 266.12 171.939C267.064 172.723 267.791 173.737 268.232 174.882C268.661 176.021 268.939 177.211 269.06 178.422C269.098 178.79 269.116 179.158 269.114 179.527C269.11 179.879 269.089 180.252 269.053 180.645L265.298 237.976C265.253 239.073 265.208 240.169 265.165 241.265C265.12 242.354 265.153 243.445 265.263 244.529C265.373 245.613 265.518 246.65 265.697 247.642C265.88 248.655 266.177 249.645 266.582 250.592C265.088 251.458 263.517 252.185 261.891 252.765C259.786 253.513 257.596 253.992 255.371 254.189C250.973 254.636 247.807 254.159 245.871 252.758C243.936 251.358 242.842 249.033 242.589 245.784C242.549 245.399 242.503 244.974 242.459 244.511C242.413 244.085 242.408 243.655 242.446 243.227L247.216 171.758Z" fill="#FCE921"/>
<path d="M332.392 230.797C332.353 231.97 332.337 233.16 332.345 234.368C332.351 235.577 332.413 236.757 332.531 237.915C332.703 240.179 333.166 242.412 333.908 244.558C332.484 245.129 331.033 245.628 329.559 246.053C327.815 246.552 326.029 246.89 324.224 247.064C321.695 247.44 319.116 247.305 316.641 246.667C314.826 246.072 313.245 244.518 311.898 242.003C310.29 244.429 308.16 246.464 305.663 247.959C303.057 249.276 300.215 250.061 297.303 250.27C295.066 250.522 292.8 250.272 290.672 249.537C288.544 248.803 286.607 247.603 285.002 246.025C283.186 244.211 281.754 242.05 280.789 239.672C279.583 236.722 278.833 233.605 278.564 230.429C278.054 225.61 278.349 220.739 279.436 216.016C280.458 211.482 282.367 207.194 285.051 203.4C287.781 199.597 291.282 196.411 295.326 194.052C299.878 191.445 304.948 189.87 310.176 189.44C314.103 189.032 318.061 189.041 321.986 189.467C326.449 190.077 330.778 191.435 334.79 193.485L332.392 230.797ZM311.954 208.082C310.954 207.616 309.84 207.446 308.747 207.593C307.083 207.749 305.548 208.554 304.473 209.833C303.287 211.212 302.377 212.806 301.792 214.528C301.138 216.434 300.711 218.411 300.522 220.418C300.31 222.314 300.289 224.227 300.459 226.127C300.701 228.508 301.3 230.193 302.256 231.181C302.718 231.665 303.29 232.032 303.922 232.251C304.555 232.47 305.231 232.535 305.893 232.441C306.626 232.434 307.345 232.241 307.983 231.881C308.621 231.522 309.158 231.006 309.543 230.382C310.192 229.219 310.579 227.928 310.677 226.6L311.954 208.082Z" fill="#FCE921"/>
<path d="M383.186 217.441C385.937 217.606 388.593 218.507 390.878 220.05C391.862 220.772 392.675 221.703 393.259 222.775C393.843 223.847 394.183 225.035 394.256 226.254C394.542 229.032 393.566 231.704 391.33 234.27C390.193 235.572 388.896 236.725 387.47 237.703C386.014 238.709 384.453 239.554 382.815 240.223C381.198 240.888 379.533 241.429 377.834 241.842C376.286 242.224 374.713 242.501 373.127 242.672C369.193 243.164 365.202 242.915 361.359 241.939C358.217 241.114 355.292 239.617 352.785 237.551C350.443 235.573 348.557 233.112 347.256 230.336C345.906 227.469 345.058 224.391 344.752 221.236C344.265 216.653 344.545 212.02 345.579 207.527C346.526 203.283 348.303 199.267 350.808 195.712C353.34 192.196 356.588 189.255 360.337 187.082C364.543 184.678 369.225 183.224 374.053 182.821C376.899 182.553 379.768 182.694 382.574 183.241C385.376 183.716 388.011 184.896 390.232 186.671C391.476 187.676 392.53 188.895 393.346 190.272C394.136 191.602 394.627 193.088 394.784 194.628C394.971 195.964 394.82 197.326 394.346 198.589C393.872 199.853 393.09 200.978 392.07 201.861C389.765 203.85 386.98 205.202 383.991 205.782C383.301 203.765 382.111 201.955 380.532 200.522C379.807 199.959 378.976 199.549 378.088 199.318C377.199 199.086 376.273 199.038 375.366 199.177C373.892 199.33 372.503 199.941 371.394 200.925C370.129 202.057 369.132 203.457 368.477 205.023C367.665 206.923 367.121 208.926 366.861 210.975C366.543 213.402 366.518 215.859 366.788 218.292C366.927 220.351 367.655 222.327 368.887 223.984C370.05 225.464 371.751 226.09 373.99 225.861C376.259 225.709 378.378 224.675 379.895 222.981C381.332 221.359 382.449 219.479 383.186 217.441Z" fill="#FCE921"/>
<path d="M408.555 155.337C409.84 154.895 411.15 154.527 412.477 154.236C414.095 153.902 415.729 153.658 417.373 153.504C419.386 153.246 421.426 153.315 423.416 153.708C424.839 153.984 426.169 154.613 427.286 155.536C428.205 156.343 428.928 157.349 429.398 158.478C429.865 159.607 430.163 160.798 430.284 162.013C430.322 162.38 430.34 162.749 430.338 163.118C430.334 163.469 430.313 163.843 430.276 164.236L427.942 199.906C428.364 198.744 428.875 197.617 429.47 196.534C430.115 195.293 430.854 194.104 431.682 192.977L438.748 183.135C439.511 182.028 440.34 180.967 441.23 179.959C442.91 178.05 445.065 176.62 447.477 175.815C448.926 175.337 450.425 175.028 451.944 174.892C454.197 174.617 456.483 174.864 458.625 175.616C460.684 176.391 462.622 177.453 464.383 178.772L446.797 203.599L455.839 217.764C457.402 220.1 458.905 222.227 460.348 224.145C461.767 226.045 463.56 227.634 465.617 228.813C463.414 230.551 460.914 231.875 458.239 232.722C455.95 233.463 453.593 233.977 451.203 234.256C447.653 234.618 444.829 234.262 442.731 233.189C440.637 232.119 438.875 230.499 437.634 228.503L431.379 218.733C430.569 217.444 429.829 216.114 429.16 214.748C428.451 213.327 427.815 211.87 427.254 210.383L425.608 235.576L403.154 237.861L408.555 155.337Z" fill="#FCE921"/>
</g>
<defs>
<clipPath id="clip0_999_34854">
<rect width="540" height="328.141" fill="white" transform="translate(0 0.640625)"/>
</clipPath>
</defs>
</svg>
