<svg width="128" height="77" viewBox="0 0 128 77" fill="none" xmlns="http://www.w3.org/2000/svg">
<g clip-path="url(#clip0_1067_2656)">
<path d="M113.082 0.851413L40.7034 16.0963L41.0343 17.6683C41.1135 18.082 41.0272 18.5103 40.7939 18.861C40.5606 19.2117 40.1989 19.457 39.7867 19.5439C39.3745 19.6307 38.9446 19.5522 38.5896 19.3254C38.2346 19.0986 37.983 18.7415 37.8886 18.331L37.5567 16.7589L21.8215 20.0762C20.988 20.2514 20.2583 20.7502 19.7925 21.4633C19.3267 22.1763 19.1632 23.0453 19.3378 23.8789L22.2553 37.7338C22.3334 38.1254 22.51 38.4907 22.7687 38.7949C23.0274 39.0992 23.3594 39.3324 23.7334 39.4725C25.539 40.1192 27.149 41.2178 28.4096 42.6632C29.6703 44.1086 30.5397 45.8527 30.9351 47.7295C31.3304 49.6062 31.2383 51.5531 30.6678 53.3842C30.0973 55.2154 29.0675 56.8698 27.6762 58.19C27.3908 58.4696 27.1816 58.8176 27.0684 59.2008C26.9551 59.5839 26.9414 59.9896 27.0289 60.3794L29.9417 74.2302C30.0284 74.6435 30.1956 75.0359 30.4339 75.3845C30.6723 75.7332 30.9771 76.0315 31.3307 76.2624C31.6844 76.4933 32.0801 76.6522 32.4952 76.7301C32.9103 76.8081 33.3368 76.8034 33.7501 76.7165L49.49 73.3993L49.1576 71.8232C49.0579 71.4083 49.1271 70.9707 49.35 70.6068C49.5729 70.243 49.9312 69.9828 50.3461 69.8831C50.761 69.7834 51.1985 69.8526 51.5623 70.0755C51.9262 70.2984 52.1866 70.6567 52.2863 71.0716C52.2936 71.1032 52.2992 71.1314 52.3049 71.1605L52.6367 72.7366L125.011 57.4917C125.845 57.3158 126.575 56.816 127.041 56.1023C127.507 55.3885 127.67 54.5192 127.495 53.6851L116.89 3.33123C116.714 2.4977 116.213 1.76841 115.499 1.30346C114.785 0.838515 113.916 0.675958 113.082 0.851413ZM50.9755 64.8723C51.0754 65.2869 51.0066 65.7241 50.7841 66.0879C50.5615 66.4517 50.2037 66.7122 49.7891 66.8121C49.3745 66.9119 48.9373 66.8432 48.5735 66.6206C48.2097 66.3981 47.949 66.0401 47.8491 65.6255C47.841 65.5955 47.8354 65.5641 47.8298 65.5366L47.1672 62.3883C47.0778 61.9774 47.1527 61.5478 47.3762 61.1915C47.5997 60.8352 47.9539 60.5806 48.3629 60.4823C48.7719 60.384 49.2031 60.4499 49.5641 60.6657C49.9251 60.8815 50.1873 61.23 50.2944 61.6367C50.3017 61.6667 50.3073 61.6959 50.3137 61.7258L50.9755 64.8723ZM48.9885 55.4326C49.0777 55.8437 49.0022 56.2734 48.7785 56.6297C48.5548 56.9859 48.2006 57.2404 47.7916 57.3386C47.3826 57.4369 46.9514 57.3711 46.5903 57.1553C46.2292 56.9396 45.9669 56.591 45.8596 56.1842C45.8539 56.1567 45.8467 56.1251 45.841 56.0936L45.1785 52.9471C45.1043 52.5353 45.1933 52.1108 45.427 51.7637C45.6607 51.4165 46.0204 51.174 46.4299 51.0877C46.8393 51.0015 47.2664 51.0782 47.6202 51.3017C47.974 51.5251 48.2268 51.8776 48.325 52.2844L48.9885 55.4326ZM46.9997 45.9922C47.0925 46.4043 47.0192 46.8363 46.7961 47.195C46.5729 47.5536 46.2177 47.8101 45.807 47.909C45.3964 48.008 44.9635 47.9413 44.6015 47.7236C44.2395 47.5059 43.9777 47.1545 43.8726 46.7454C43.8648 46.7152 43.8584 46.6847 43.8538 46.6539L43.1905 43.5059C43.136 43.2988 43.1234 43.0828 43.1534 42.8708C43.1834 42.6588 43.2555 42.4549 43.3653 42.2711C43.4752 42.0873 43.6207 41.9272 43.7932 41.8004C43.9657 41.6735 44.1618 41.5826 44.37 41.5325C44.5782 41.4825 44.7943 41.4744 45.0057 41.509C45.217 41.5436 45.4192 41.62 45.6006 41.7338C45.782 41.8476 45.9389 41.9965 46.0621 42.1717C46.1852 42.3469 46.2721 42.545 46.3177 42.7542C46.3258 42.7826 46.3306 42.814 46.3362 42.8431L46.9997 45.9922ZM45.0118 36.551C45.0612 36.7563 45.0698 36.9694 45.0369 37.1781C45.004 37.3868 44.9302 37.587 44.82 37.7672C44.7097 37.9474 44.5651 38.1041 44.3943 38.2284C44.2235 38.3527 44.0298 38.442 43.8244 38.4915C43.619 38.541 43.4059 38.5495 43.1972 38.5166C42.9886 38.4837 42.7884 38.41 42.6082 38.2997C42.428 38.1894 42.2713 38.0448 42.147 37.874C42.0227 37.7032 41.9333 37.5095 41.8839 37.3041C41.8774 37.2742 41.8708 37.2426 41.8651 37.2135L41.2026 34.067C41.1234 33.6533 41.2097 33.225 41.443 32.8743C41.6763 32.5236 42.038 32.2783 42.4502 32.1914C42.8624 32.1046 43.2921 32.1831 43.647 32.4099C44.002 32.6367 44.2539 32.9937 44.3483 33.4043L45.0118 36.551ZM43.023 27.1121C43.0964 27.5236 43.0065 27.9474 42.7728 28.2939C42.539 28.6404 42.1795 28.8823 41.7705 28.9683C41.3614 29.0543 40.9351 28.9777 40.5815 28.7548C40.228 28.5318 39.975 28.18 39.8763 27.7738L39.213 24.6258C39.1135 24.2109 39.1826 23.7733 39.4056 23.4096C39.6286 23.0458 39.9871 22.7854 40.402 22.6858C40.8169 22.5862 41.2544 22.6556 41.6182 22.8786C41.982 23.1016 42.2422 23.46 42.3417 23.8749C42.349 23.9041 42.3546 23.9315 42.3603 23.963L43.023 27.1121Z" fill="#FF8A00"/>
<path opacity="0.2" d="M122.624 54.3112L56.7087 68.3085C56.2924 68.3958 55.8583 68.3146 55.5018 68.0826C55.1453 67.8505 54.8953 67.4866 54.8065 67.0706L44.811 19.9904C44.7225 19.574 44.8029 19.1393 45.0348 18.7821C45.2666 18.425 45.6309 18.1746 46.0473 18.0858L111.962 4.08854C112.168 4.04459 112.38 4.04162 112.587 4.07985C112.794 4.11807 112.992 4.19668 113.168 4.31126C113.345 4.42583 113.498 4.57412 113.617 4.7476C113.736 4.92109 113.82 5.11645 113.864 5.32242L123.859 52.4074C123.903 52.6134 123.906 52.8261 123.867 53.0332C123.829 53.2403 123.75 53.4377 123.635 53.6143C123.521 53.791 123.372 53.9435 123.199 54.0627C123.025 54.182 122.83 54.2659 122.624 54.3096V54.3112Z" fill="white"/>
<path d="M10.2499 7.27229C10.5278 7.29179 10.7992 7.36594 11.0485 7.49037C11.2978 7.61479 11.5201 7.78714 11.7027 7.99753C11.8854 8.20792 12.0248 8.45225 12.113 8.71655C12.2012 8.98084 12.2366 9.25977 12.2169 9.53769L12.0202 12.3575C12.0006 12.6354 11.9267 12.9067 11.8023 13.1561C11.6779 13.4054 11.5056 13.628 11.2952 13.8107C11.0848 13.9934 10.8405 14.1329 10.5762 14.2212C10.3119 14.3095 10.0328 14.3447 9.75486 14.3251C9.47691 14.3057 9.20534 14.2318 8.95604 14.1074C8.70673 13.983 8.48443 13.8106 8.30181 13.6001C8.11919 13.3897 7.98 13.1454 7.89193 12.8811C7.80387 12.6168 7.76869 12.3377 7.78862 12.0598L7.98536 9.23922C8.02496 8.67812 8.28563 8.15581 8.71031 7.78696C9.13498 7.41812 9.68876 7.23293 10.2499 7.27229Z" fill="#FF8A00"/>
<path d="M9.45862 18.5568C9.73666 18.576 10.0082 18.6498 10.2576 18.7741C10.5071 18.8984 10.7295 19.0707 10.9123 19.2812C11.095 19.4916 11.2345 19.7361 11.3225 20.0006C11.4106 20.265 11.4457 20.5441 11.4256 20.8221L11.2281 23.6403C11.209 23.9185 11.1353 24.1901 11.011 24.4397C10.8868 24.6893 10.7144 24.912 10.504 25.0949C10.2935 25.2778 10.0492 25.4175 9.78474 25.5058C9.52025 25.5941 9.24095 25.6293 8.96281 25.6095C8.68491 25.59 8.41344 25.516 8.16419 25.3916C7.91494 25.2672 7.69276 25.0947 7.51016 24.8843C7.32756 24.6739 7.18819 24.4296 7.10008 24.1653C7.01198 23.901 6.97675 23.6221 6.99658 23.3442L7.19411 20.5252C7.21289 20.247 7.28629 19.9753 7.41041 19.7256C7.53452 19.4759 7.70684 19.2533 7.91727 19.0704C8.12771 18.8875 8.37216 18.7479 8.63668 18.6597C8.90121 18.5716 9.18052 18.5367 9.45862 18.5568Z" fill="#FF8A00"/>
<path d="M18.7744 17.0834C18.7549 17.3613 18.6808 17.6326 18.5563 17.8819C18.4319 18.1311 18.2595 18.3532 18.0491 18.5357C17.8386 18.7182 17.5943 18.8576 17.33 18.9456C17.0658 19.0336 16.7867 19.0686 16.5089 19.0487L13.6883 18.8537C13.1272 18.8139 12.6049 18.553 12.2361 18.1282C11.8673 17.7034 11.6821 17.1494 11.7215 16.5882C11.7408 16.3103 11.8148 16.0389 11.9392 15.7896C12.0636 15.5403 12.2358 15.3179 12.4463 15.1354C12.6567 14.9528 12.9011 14.8136 13.1655 14.7257C13.4298 14.6378 13.7091 14.6028 13.987 14.623L16.8066 14.8187C17.3677 14.8583 17.8903 15.119 18.2592 15.5437C18.6282 15.9683 18.8135 16.5222 18.7744 17.0834Z" fill="#FF8A00"/>
<path d="M7.49171 16.2904C7.47221 16.5683 7.39805 16.8396 7.27364 17.089C7.14922 17.3383 6.97695 17.5607 6.76657 17.7434C6.5562 17.9261 6.31186 18.0656 6.04756 18.1539C5.78326 18.2422 5.50418 18.2776 5.22622 18.258L2.40586 18.0598C2.12784 18.0407 1.85625 17.9667 1.60684 17.8424C1.35744 17.718 1.13508 17.5458 0.952419 17.3353C0.769762 17.1248 0.630324 16.8803 0.542343 16.6159C0.454362 16.3515 0.419478 16.0723 0.439626 15.7944C0.459129 15.5164 0.533287 15.2449 0.657702 14.9955C0.782116 14.7462 0.954389 14.5238 1.16477 14.3411C1.37514 14.1584 1.61948 14.0189 1.88378 13.9306C2.14808 13.8424 2.42716 13.8069 2.70512 13.8265L5.52489 14.0249C5.8029 14.0442 6.07431 14.118 6.32371 14.2423C6.5731 14.3667 6.79543 14.5392 6.97813 14.7496C7.16083 14.96 7.30029 15.2044 7.3884 15.4688C7.47652 15.7332 7.51164 16.0124 7.49171 16.2904Z" fill="#FF8A00"/>
<path d="M103.777 23.2656C102.45 23.6533 101.15 24.1315 99.8875 24.6969L99.8268 12.8616L92.3937 14.8503C91.1873 15.1421 90.1159 15.8351 89.3551 16.8158C88.5943 17.7965 88.1893 19.0066 88.2066 20.2477L88.0893 29.2141C89.1893 28.9269 90.2519 28.512 91.2553 27.9777C88.9378 30.5463 85.9101 32.3695 82.5558 33.2166C81.8341 33.4421 81.0875 33.578 80.3326 33.6212C78.5449 33.9471 76.7159 33.9786 74.9181 33.7142L74.7612 46.1872C77.7505 46.9505 80.8878 46.9141 83.8586 46.0819C85.3258 45.689 86.7389 45.1165 88.0658 44.3772L87.9905 56.4409L95.6034 54.4019C96.7829 54.0614 97.8238 53.3555 98.5767 52.3857C99.3295 51.416 99.7554 50.2323 99.7929 49.0052L99.8332 40.454C98.1212 41.0632 96.5211 41.9496 95.0967 43.0778C96.3865 41.335 97.9407 39.8044 99.703 38.5413L99.8843 38.4919C100.066 38.445 100.065 38.4451 100.199 38.2112C100.382 38.1619 100.382 38.1618 100.514 37.9345C100.694 37.8868 100.876 37.8374 100.829 37.6554L101.192 37.559C101.373 37.5112 101.556 37.4619 101.507 37.2799L108.576 35.3875C108.671 35.3497 108.773 35.3332 108.875 35.3393C108.977 35.3455 109.076 35.3742 109.166 35.4231L109.53 35.3259C109.711 35.2782 109.94 35.4068 110.121 35.3614L110.487 35.2629C110.669 35.2135 110.9 35.3437 111.079 35.2984C111.258 35.2531 111.26 35.249 111.492 35.385C111.674 35.3356 111.902 35.4658 112.084 35.4205C112.13 35.4067 112.18 35.4121 112.223 35.4351C112.265 35.4582 112.297 35.4971 112.311 35.5436V35.5517C112.492 35.5023 112.724 35.6325 112.903 35.5888L113.06 23.116C109.997 22.4403 106.818 22.4932 103.778 23.2705" fill="#F9F9F9"/>
</g>
<defs>
<clipPath id="clip0_1067_2656">
<rect width="127.13" height="76.006" fill="white" transform="translate(0.435059 0.781738)"/>
</clipPath>
</defs>
</svg>
