<svg width="222" height="91" viewBox="0 0 222 91" fill="none" xmlns="http://www.w3.org/2000/svg">
<path d="M0 32.2898L222 0.289795V58.2898L0 90.2898V32.2898Z" fill="black"/>
<path d="M44.2166 54.0498C44.8566 54.0498 45.3899 54.1298 45.8166 54.2898C46.2432 54.4498 46.5766 54.6631 46.8166 54.9298C47.0832 55.1965 47.2699 55.5031 47.3766 55.8498C47.4832 56.1965 47.5366 56.5431 47.5366 56.8898C47.5366 57.1831 47.5232 57.4365 47.4966 57.6498C47.4966 57.8365 47.4832 58.0498 47.4566 58.2898H30.1366V31.4898H46.8166C46.8699 31.7831 46.8966 32.0365 46.8966 32.2498C46.9232 32.4365 46.9366 32.6765 46.9366 32.9698C46.9366 33.9031 46.6966 34.6098 46.2166 35.0898C45.7366 35.5431 44.8432 35.7698 43.5366 35.7698H35.6566V42.3698H44.1366V46.6498H35.6566V54.0498H44.2166ZM54.8322 58.2898H49.3522V39.3698C49.4855 39.3431 49.6455 39.3165 49.8322 39.2898C49.9922 39.2631 50.1789 39.2498 50.3922 39.2498C50.6055 39.2231 50.8589 39.2098 51.1522 39.2098C52.0055 39.2098 52.7389 39.3698 53.3522 39.6898C53.9922 39.9831 54.3922 40.5165 54.5522 41.2898C55.0055 40.6765 55.6989 40.1165 56.6322 39.6098C57.5922 39.0765 58.8589 38.8098 60.4322 38.8098C62.3255 38.8098 63.7255 39.1831 64.6322 39.9298C65.5389 40.6765 66.1255 41.6631 66.3922 42.8898C66.5255 43.5031 66.6055 44.1698 66.6322 44.8898C66.6855 45.6098 66.7122 46.3165 66.7122 47.0098V58.2898H61.2722V47.2498C61.2722 46.6631 61.2455 46.1165 61.1922 45.6098C61.1655 45.1031 61.0589 44.6765 60.8722 44.3298C60.7122 43.9565 60.4322 43.6765 60.0322 43.4898C59.6589 43.2765 59.1255 43.1698 58.4322 43.1698C57.4455 43.1698 56.5922 43.3831 55.8722 43.8098C55.1789 44.2098 54.8322 44.7165 54.8322 45.3298V58.2898ZM79.7731 54.8498C80.3598 54.8498 80.8931 54.7831 81.3731 54.6498C81.8531 54.5165 82.2798 54.3565 82.6531 54.1698C83.0265 53.9565 83.3465 53.7431 83.6131 53.5298C83.8798 53.2898 84.0798 53.0898 84.2131 52.9298C84.5065 53.2498 84.7998 53.7165 85.0931 54.3298C85.4131 54.9431 85.5731 55.4631 85.5731 55.8898C85.5731 56.1565 85.5198 56.4231 85.4131 56.6898C85.3065 56.9298 85.0798 57.1831 84.7331 57.4498C84.2265 57.8231 83.5065 58.1698 82.5731 58.4898C81.6398 58.8098 80.4531 58.9698 79.0131 58.9698C78.0531 58.9698 77.0131 58.8365 75.8931 58.5698C74.7731 58.3031 73.7331 57.7965 72.7731 57.0498C71.8131 56.3031 71.0131 55.2765 70.3731 53.9698C69.7331 52.6365 69.4131 50.9031 69.4131 48.7698C69.4131 46.7431 69.7465 45.0898 70.4131 43.8098C71.0798 42.5298 71.9065 41.5165 72.8931 40.7698C73.8798 40.0231 74.9198 39.5165 76.0131 39.2498C77.1331 38.9565 78.1331 38.8098 79.0131 38.8098C80.1065 38.8098 81.1198 38.9298 82.0531 39.1698C82.9865 39.4098 83.7598 39.7298 84.3731 40.1298C84.8798 40.4498 85.2265 40.7565 85.4131 41.0498C85.6265 41.3431 85.7331 41.6898 85.7331 42.0898C85.7331 42.4631 85.6131 42.9298 85.3731 43.4898C85.1331 44.0231 84.8265 44.5165 84.4531 44.9698C84.0265 44.5165 83.3998 44.0631 82.5731 43.6098C81.7465 43.1565 80.8265 42.9298 79.8131 42.9298C78.0531 42.9298 76.7998 43.4765 76.0531 44.5698C75.3065 45.6365 74.9331 47.0098 74.9331 48.6898C74.9331 49.5431 75.0131 50.3431 75.1731 51.0898C75.3331 51.8365 75.5998 52.4898 75.9731 53.0498C76.3731 53.6098 76.8798 54.0498 77.4931 54.3698C78.1065 54.6898 78.8665 54.8498 79.7731 54.8498ZM96.7344 54.8898C97.401 54.8898 97.9877 54.8231 98.4944 54.6898C99.001 54.5298 99.4544 54.3431 99.8544 54.1298C100.254 53.9165 100.601 53.6898 100.894 53.4498C101.188 53.1831 101.454 52.9431 101.694 52.7298C102.014 53.1298 102.348 53.6498 102.694 54.2898C103.041 54.9031 103.214 55.4098 103.214 55.8098C103.214 56.3965 102.881 56.9298 102.214 57.4098C101.654 57.8365 100.854 58.1965 99.8144 58.4898C98.801 58.8098 97.601 58.9698 96.2144 58.9698C94.961 58.9698 93.721 58.8098 92.4944 58.4898C91.2944 58.1698 90.2144 57.6098 89.2544 56.8098C88.321 56.0098 87.561 54.9431 86.9744 53.6098C86.3877 52.2498 86.0944 50.5431 86.0944 48.4898C86.0944 46.8098 86.3477 45.3698 86.8544 44.1698C87.3877 42.9431 88.081 41.9298 88.9344 41.1298C89.8144 40.3298 90.801 39.7431 91.8944 39.3698C92.9877 38.9965 94.1077 38.8098 95.2544 38.8098C96.7477 38.8098 98.0144 39.0498 99.0544 39.5298C100.094 39.9831 100.934 40.6098 101.574 41.4098C102.241 42.1831 102.721 43.0765 103.014 44.0898C103.308 45.1031 103.454 46.1698 103.454 47.2898C103.454 47.4498 103.454 47.6365 103.454 47.8498C103.454 48.0631 103.441 48.2898 103.414 48.5298C103.414 48.7698 103.401 49.0098 103.374 49.2498C103.374 49.4631 103.361 49.6365 103.334 49.7698H91.5744C91.681 51.2365 92.1344 52.4631 92.9344 53.4498C93.7344 54.4098 95.001 54.8898 96.7344 54.8898ZM98.5344 46.7698C98.5344 45.4898 98.281 44.4498 97.7744 43.6498C97.2944 42.8498 96.4144 42.4498 95.1344 42.4498C94.041 42.4498 93.161 42.8365 92.4944 43.6098C91.8544 44.3565 91.5344 45.4098 91.5344 46.7698H98.5344ZM111.041 41.2498C111.201 41.0098 111.415 40.7431 111.681 40.4498C111.948 40.1565 112.268 39.8898 112.641 39.6498C113.041 39.4098 113.468 39.2098 113.921 39.0498C114.401 38.8898 114.908 38.8098 115.441 38.8098C115.761 38.8098 116.095 38.8365 116.441 38.8898C116.815 38.9431 117.148 39.0498 117.441 39.2098C117.761 39.3431 118.015 39.5431 118.201 39.8098C118.388 40.0498 118.481 40.3565 118.481 40.7298C118.481 41.3165 118.335 41.9965 118.041 42.7698C117.748 43.5165 117.455 44.1565 117.161 44.6898C116.708 44.3165 116.255 44.0365 115.801 43.8498C115.348 43.6365 114.815 43.5298 114.201 43.5298C113.375 43.5298 112.681 43.7698 112.121 44.2498C111.561 44.7298 111.281 45.3031 111.281 45.9698V58.2898H105.841V39.3698C105.975 39.3431 106.135 39.3165 106.321 39.2898C106.481 39.2631 106.668 39.2498 106.881 39.2498C107.095 39.2231 107.348 39.2098 107.641 39.2098C108.495 39.2098 109.228 39.3831 109.841 39.7298C110.481 40.0498 110.881 40.5565 111.041 41.2498ZM124.637 41.2498C124.797 41.0098 125.01 40.7431 125.277 40.4498C125.543 40.1565 125.863 39.8898 126.237 39.6498C126.637 39.4098 127.063 39.2098 127.517 39.0498C127.997 38.8898 128.503 38.8098 129.037 38.8098C129.357 38.8098 129.69 38.8365 130.037 38.8898C130.41 38.9431 130.743 39.0498 131.037 39.2098C131.357 39.3431 131.61 39.5431 131.797 39.8098C131.983 40.0498 132.077 40.3565 132.077 40.7298C132.077 41.3165 131.93 41.9965 131.637 42.7698C131.343 43.5165 131.05 44.1565 130.757 44.6898C130.303 44.3165 129.85 44.0365 129.397 43.8498C128.943 43.6365 128.41 43.5298 127.797 43.5298C126.97 43.5298 126.277 43.7698 125.717 44.2498C125.157 44.7298 124.877 45.3031 124.877 45.9698V58.2898L119.437 58.2898V39.3698C119.57 39.3431 119.73 39.3165 119.917 39.2898C120.077 39.2631 120.263 39.2498 120.477 39.2498C120.69 39.2231 120.943 39.2098 121.237 39.2098C122.09 39.2098 122.823 39.3831 123.437 39.7298C124.077 40.0498 124.477 40.5565 124.637 41.2498ZM148.592 53.6498C148.592 55.7565 148.899 57.2898 149.512 58.2498C149.032 58.4365 148.579 58.5698 148.152 58.6498C147.752 58.7298 147.325 58.7698 146.872 58.7698C145.912 58.7698 145.179 58.5831 144.672 58.2098C144.192 57.8365 143.885 57.3031 143.752 56.6098C143.165 57.2231 142.392 57.7431 141.432 58.1698C140.472 58.5965 139.299 58.8098 137.912 58.8098C137.192 58.8098 136.472 58.7031 135.752 58.4898C135.032 58.3031 134.379 57.9831 133.792 57.5298C133.205 57.0765 132.725 56.4765 132.352 55.7298C131.979 54.9565 131.792 54.0231 131.792 52.9298C131.792 51.5698 132.112 50.4631 132.752 49.6098C133.419 48.7565 134.245 48.0898 135.232 47.6098C136.219 47.1031 137.285 46.7565 138.432 46.5698C139.579 46.3831 140.632 46.2631 141.592 46.2098C141.912 46.1831 142.219 46.1698 142.512 46.1698C142.832 46.1698 143.125 46.1698 143.392 46.1698V45.4498C143.392 44.4365 143.112 43.7165 142.552 43.2898C142.019 42.8631 141.139 42.6498 139.912 42.6498C138.765 42.6498 137.739 42.8365 136.832 43.2098C135.952 43.5831 135.085 44.0098 134.232 44.4898C133.859 44.0365 133.552 43.5431 133.312 43.0098C133.099 42.4498 132.992 42.0365 132.992 41.7698C132.992 41.3965 133.192 41.0365 133.592 40.6898C134.019 40.3431 134.592 40.0365 135.312 39.7698C136.032 39.4765 136.859 39.2498 137.792 39.0898C138.725 38.9031 139.712 38.8098 140.752 38.8098C142.192 38.8098 143.405 38.9565 144.392 39.2498C145.405 39.5431 146.219 39.9965 146.832 40.6098C147.472 41.2231 147.925 41.9965 148.192 42.9298C148.459 43.8365 148.592 44.9031 148.592 46.1298V53.6498ZM143.472 49.0098C143.285 49.0098 143.099 49.0098 142.912 49.0098C142.725 49.0098 142.539 49.0231 142.352 49.0498C141.685 49.1031 141.019 49.1831 140.352 49.2898C139.712 49.3965 139.139 49.5831 138.632 49.8498C138.125 50.1165 137.712 50.4631 137.392 50.8898C137.072 51.3165 136.912 51.8631 136.912 52.5298C136.912 53.2765 137.125 53.9165 137.552 54.4498C137.979 54.9565 138.699 55.2098 139.712 55.2098C140.219 55.2098 140.699 55.1431 141.152 55.0098C141.605 54.8765 142.005 54.7031 142.352 54.4898C142.699 54.2765 142.965 54.0498 143.152 53.8098C143.365 53.5431 143.472 53.3031 143.472 53.0898V49.0098ZM165.776 58.2898C165.323 58.2898 164.963 58.1431 164.696 57.8498C164.429 57.5298 164.296 57.1298 164.296 56.6498C163.923 57.1031 163.283 57.5698 162.376 58.0498C161.496 58.5298 160.363 58.7698 158.976 58.7698C157.989 58.7698 157.029 58.6098 156.096 58.2898C155.189 57.9698 154.376 57.4365 153.656 56.6898C152.936 55.9431 152.363 54.9565 151.936 53.7298C151.509 52.4765 151.296 50.9298 151.296 49.0898C151.296 47.2498 151.509 45.6765 151.936 44.3698C152.389 43.0631 152.976 42.0098 153.696 41.2098C154.443 40.3831 155.283 39.7831 156.216 39.4098C157.176 39.0098 158.176 38.8098 159.216 38.8098C160.416 38.8098 161.403 39.0231 162.176 39.4498C162.949 39.8498 163.523 40.2498 163.896 40.6498V30.0898C163.896 30.0631 164.096 30.0365 164.496 30.0098C164.896 29.9565 165.309 29.9298 165.736 29.9298C166.163 29.9298 166.589 29.9698 167.016 30.0498C167.469 30.1298 167.856 30.2898 168.176 30.5298C168.523 30.7698 168.803 31.1031 169.016 31.5298C169.229 31.9298 169.336 32.4631 169.336 33.1298V58.2898H165.776ZM156.896 48.8098C156.896 49.7431 156.963 50.5965 157.096 51.3698C157.229 52.1165 157.456 52.7565 157.776 53.2898C158.096 53.8231 158.523 54.2365 159.056 54.5298C159.589 54.8231 160.269 54.9698 161.096 54.9698C161.869 54.9698 162.523 54.8098 163.056 54.4898C163.616 54.1698 163.896 53.7165 163.896 53.1298V44.1298C163.683 43.9165 163.309 43.6631 162.776 43.3698C162.269 43.0765 161.669 42.9298 160.976 42.9298C159.589 42.9298 158.563 43.4365 157.896 44.4498C157.229 45.4631 156.896 46.9165 156.896 48.8098ZM190.88 48.7298C190.88 50.0631 190.706 51.3431 190.36 52.5698C190.04 53.7965 189.493 54.8765 188.72 55.8098C187.973 56.7431 187 57.4898 185.8 58.0498C184.6 58.6098 183.146 58.8898 181.44 58.8898C179.733 58.8898 178.28 58.6231 177.08 58.0898C175.906 57.5298 174.946 56.7965 174.2 55.8898C173.453 54.9565 172.906 53.8898 172.56 52.6898C172.213 51.4631 172.04 50.1831 172.04 48.8498C172.04 47.4898 172.24 46.2098 172.64 45.0098C173.04 43.7831 173.626 42.7165 174.4 41.8098C175.2 40.8765 176.2 40.1431 177.4 39.6098C178.6 39.0765 180 38.8098 181.6 38.8098C183.28 38.8098 184.706 39.0765 185.88 39.6098C187.08 40.1431 188.04 40.8631 188.76 41.7698C189.506 42.6765 190.04 43.7298 190.36 44.9298C190.706 46.1298 190.88 47.3965 190.88 48.7298ZM185.4 48.7698C185.4 48.0498 185.346 47.3431 185.24 46.6498C185.133 45.9298 184.933 45.3031 184.64 44.7698C184.346 44.2365 183.946 43.8098 183.44 43.4898C182.933 43.1431 182.293 42.9698 181.52 42.9698C180.746 42.9698 180.093 43.1431 179.56 43.4898C179.053 43.8365 178.64 44.2898 178.32 44.8498C178.026 45.3831 177.813 45.9965 177.68 46.6898C177.546 47.3831 177.48 48.0898 177.48 48.8098C177.48 49.5298 177.533 50.2498 177.64 50.9698C177.773 51.6898 177.986 52.3431 178.28 52.9298C178.573 53.4898 178.973 53.9431 179.48 54.2898C180.013 54.6365 180.666 54.8098 181.44 54.8098C182.24 54.8098 182.893 54.6365 183.4 54.2898C183.933 53.9431 184.346 53.4898 184.64 52.9298C184.933 52.3431 185.133 51.6898 185.24 50.9698C185.346 50.2498 185.4 49.5165 185.4 48.7698Z" fill="#FFF001"/>
</svg>
