<svg width="578" height="136" viewBox="0 0 578 136" fill="none" xmlns="http://www.w3.org/2000/svg">
<path d="M367.229 0.787598V130.247" stroke="#FCE921" stroke-width="3" stroke-miterlimit="10"/>
<path fill-rule="evenodd" clip-rule="evenodd" d="M213.348 8.44237C214.262 7.52752 215.43 6.9078 216.7 6.66324C217.97 6.41867 219.284 6.56052 220.473 7.07042C224.351 4.62301 228.783 3.18963 233.36 2.90201C237.937 2.6144 242.513 3.48178 246.667 5.42443C238.462 8.65518 231 13.5209 224.734 19.7258C218.468 25.9307 213.53 33.3451 210.219 41.5182C208.336 37.3865 207.51 32.851 207.817 28.3205C208.123 23.7901 209.553 19.4072 211.976 15.5669C211.466 14.3783 211.324 13.0641 211.569 11.7942C211.813 10.5242 212.433 9.3567 213.348 8.44237ZM257.905 114.076L256.974 113.827L257.874 110.469L258.805 110.719L257.905 114.076ZM282.816 21.109L281.886 20.8593L282.785 17.5018L283.715 17.7506L282.816 21.109ZM234.752 100.696L237.205 98.2429L237.885 98.9247L235.434 101.377C244.073 109.875 255.521 114.923 267.622 115.571V106.12H273.068V115.575C285.169 114.928 296.617 109.88 305.257 101.382L302.805 98.9294L303.485 98.2476L305.934 100.696C314.433 92.0567 319.481 80.6091 320.128 68.5077H310.673V63.0619H320.128C319.481 50.96 314.434 39.5117 305.935 30.8717L303.481 33.3248L302.801 32.643L305.253 30.1909C296.614 21.6921 285.166 16.6442 273.064 15.9971V25.4512H267.618V16.0017C255.517 16.6492 244.069 21.6975 235.43 30.1965L237.881 32.6477L237.201 33.3295L234.748 30.8764C226.25 39.5164 221.202 50.9647 220.555 63.0666H230.013V68.5124H220.559C221.207 80.6121 226.254 92.0579 234.752 100.696ZM222.306 79.1542L222.058 78.2246L225.416 77.324L225.664 78.2545L222.306 79.1542ZM315.275 54.2437L315.026 53.3132L318.383 52.4135L318.633 53.3431L315.275 54.2437ZM222.058 53.3431L222.306 52.4135L225.664 53.3132L225.416 54.2437L222.058 53.3431ZM315.026 78.2545L315.275 77.324L318.633 78.2246L318.383 79.1542L315.026 78.2545ZM256.974 17.7459L257.905 17.4972L258.805 20.8546L257.874 21.1043L256.974 17.7459ZM281.886 110.715L282.816 110.465L283.715 113.824L282.785 114.072L281.886 110.715ZM270.345 60.347C271.643 60.3449 272.899 60.8097 273.882 61.6563L304.485 45.9119L305.255 47.2464L275.764 66.2314C275.7 66.9974 275.475 67.7413 275.102 68.4138C274.73 69.0864 274.219 69.6723 273.604 70.1329C272.988 70.5936 272.282 70.9185 271.532 71.0862C270.782 71.254 270.004 71.2607 269.251 71.106C268.498 70.9513 267.787 70.6388 267.163 70.1889C266.54 69.739 266.019 69.1621 265.635 68.4961C265.251 67.8302 265.013 67.0903 264.935 66.3255C264.858 65.5606 264.944 64.7881 265.188 64.0588L234.924 46.5853L235.722 45.2039L265.911 62.6336C266.414 61.9256 267.079 61.3484 267.85 60.9502C268.622 60.552 269.477 60.3445 270.345 60.3451V60.347ZM226.872 90.2094L231.823 87.3514L232.407 88.3633L227.455 91.2222L226.872 90.2094ZM308.283 43.2063L313.234 40.3473L313.819 41.3602L308.868 44.2182L308.283 43.2063ZM313.819 90.2094L313.234 91.2222L308.283 88.3633L308.868 87.3514L313.819 90.2094ZM232.407 43.2101L227.455 40.3511L226.872 41.3639L231.823 44.2219L232.407 43.2101ZM244.908 108.675L247.766 103.724L248.778 104.308L245.92 109.259L244.908 108.675ZM291.911 27.2627L294.77 22.3107L295.782 22.8962L292.923 27.8472L291.911 27.2627ZM295.782 108.675L294.77 109.259L291.911 104.308L292.923 103.724L295.782 108.675ZM248.778 27.2627L245.92 22.3107L244.908 22.8962L247.766 27.8472L248.778 27.2627ZM270.345 4.69122C258.262 4.69104 246.45 8.27391 236.404 14.9868C226.357 21.6996 218.526 31.2409 213.902 42.4041C209.278 53.5674 208.068 65.8512 210.425 77.7021C212.782 89.553 218.6 100.439 227.144 108.983C235.688 117.527 246.574 123.346 258.425 125.703C270.276 128.061 282.559 126.851 293.723 122.227C304.886 117.604 314.428 109.773 321.141 99.7266C327.854 89.68 331.437 77.8683 331.438 65.7853C331.438 57.7624 329.858 49.8181 326.787 42.4059C323.717 34.9937 319.217 28.2587 313.544 22.5856C307.871 16.9125 301.137 12.4123 293.725 9.342C286.312 6.27167 278.368 4.69135 270.345 4.69122ZM225.593 112.688C228.996 115.938 232.742 118.81 236.765 121.251L233.17 124.846C231.86 126.15 230.086 126.882 228.237 126.882C226.388 126.882 224.614 126.15 223.303 124.846C221.999 123.535 221.268 121.761 221.268 119.912C221.268 118.064 221.999 116.29 223.303 114.979L225.593 112.688ZM315.094 112.688L317.385 114.979C318.688 116.29 319.42 118.064 319.42 119.912C319.42 121.761 318.688 123.535 317.385 124.846C316.074 126.15 314.3 126.882 312.451 126.882C310.602 126.882 308.828 126.15 307.517 124.846L303.921 121.251C307.943 118.809 311.69 115.938 315.094 112.688ZM327.315 8.49942C328.23 9.41397 328.849 10.5816 329.094 11.8517C329.338 13.1218 329.197 14.4361 328.687 15.6248C331.104 19.4571 332.531 23.8294 332.841 28.3493C333.151 32.8693 332.334 37.3956 330.464 41.522C327.157 33.3577 322.226 25.9502 315.971 19.7489C309.715 13.5475 302.265 8.6815 294.072 5.44595C298.219 3.52351 302.782 2.67038 307.343 2.96443C311.905 3.25849 316.32 4.69035 320.186 7.12933C321.375 6.61781 322.691 6.47492 323.963 6.71918C325.234 6.96343 326.403 7.58358 327.319 8.49942H327.315Z" fill="white"/>
<path d="M3.72387 76.5525C5.9553 74.9364 8.9954 72.743 12.8441 69.9722C16.6929 67.2015 20.541 64.1614 24.3885 60.852C26.3113 59.1605 28.1393 57.4481 29.8726 55.7148C31.5097 54.0901 33.0331 52.3546 34.4318 50.5206C35.6563 48.9276 36.7016 47.2045 37.5488 45.3826C38.2769 43.868 38.6708 42.2146 38.7039 40.5344C38.7039 35.1475 36.0101 32.4538 30.6226 32.4532C29.144 32.4365 27.6694 32.611 26.2355 32.9722C24.8636 33.3443 23.5439 33.8876 22.3076 34.5892C20.8991 35.3902 19.5663 36.3173 18.3254 37.3593C16.9781 38.476 15.4964 39.8037 13.8804 41.3424C11.8764 40.1866 10.1285 38.6351 8.74319 36.7823C7.56319 35.3239 6.83601 33.552 6.65137 31.6852C6.46673 29.8183 6.83271 27.9383 7.70417 26.277C8.51123 24.8331 9.54396 23.5276 10.7633 22.4099C13.7435 19.6394 17.3171 17.5861 21.2115 16.4067C26.066 14.9964 31.107 14.3341 36.161 14.4428C40.0222 14.3724 43.8672 14.958 47.5323 16.1748C50.5551 17.1849 53.3428 18.7948 55.7286 20.9079C57.8954 22.8719 59.5921 25.2987 60.6927 28.0081C61.8294 30.8523 62.3981 33.8916 62.3668 36.9544C62.3824 39.6145 61.9933 42.2615 61.2127 44.8046C60.4626 47.2234 59.4358 49.5475 58.1526 51.7308C56.8522 53.9271 55.3446 55.9941 53.6505 57.9033C51.9401 59.8447 50.1087 61.6761 48.1673 63.3864C45.934 65.3891 43.6253 67.2938 41.2411 69.1006L34.3139 74.3537H47.3593C49.1395 74.309 50.9146 74.5618 52.6115 75.1019C53.8709 75.5024 55.018 76.1946 55.9596 77.122C56.7678 77.9704 57.3617 78.9997 57.6916 80.1241C58.0441 81.3235 58.2189 82.568 58.2106 83.8181C58.2059 85.1747 58.0706 86.5277 57.8066 87.8583C57.536 89.2437 57.209 90.5907 56.8256 91.8994H1.2998L3.72387 76.5525Z" fill="#FCE921"/>
<path d="M65.1394 61.314L95.7323 24.141C96.7786 22.8665 97.8964 21.6525 99.0804 20.5048C100.23 19.3932 101.508 18.4242 102.89 17.6187C104.368 16.774 105.963 16.1516 107.623 15.7717C109.631 15.3235 111.684 15.1104 113.742 15.1367C115.776 15.1078 117.801 15.4001 119.744 16.0027C121.212 16.4388 122.611 17.0801 123.9 17.9077L116.739 60.8557H118.703C121.395 60.8557 123.203 61.4907 124.127 62.7608C125.103 64.2056 125.588 65.9254 125.512 67.6669C125.527 69.0885 125.353 70.5056 124.993 71.881C124.647 73.151 124.282 74.3248 123.896 75.4021H114.203L111.433 91.905H90.0752L92.8462 75.3965H62.7153L65.1394 61.314ZM95.3853 60.1599L98.8456 39.1493H98.0376L81.0671 60.1599H95.3853Z" fill="#FCE921"/>
<path d="M141.134 35.155C142.055 34.9395 142.987 34.7772 143.927 34.6688C145.07 34.5512 146.219 34.4971 147.368 34.5069C148.779 34.47 150.187 34.6614 151.537 35.0737C152.502 35.3656 153.379 35.8945 154.087 36.6121C154.667 37.2354 155.096 37.983 155.342 38.7977C155.586 39.6121 155.709 40.4579 155.706 41.3079C155.707 41.5647 155.693 41.8212 155.666 42.0766C155.638 42.3197 155.597 42.5763 155.544 42.8463L153.278 56.5276C154.448 55.275 155.783 54.1859 157.245 53.2898C159.188 52.1819 161.406 51.6484 163.641 51.7514C165.169 51.7124 166.687 52.0023 168.093 52.6016C169.28 53.1266 170.322 53.9322 171.129 54.949C171.924 55.9738 172.515 57.1418 172.869 58.3896C173.254 59.7319 173.445 61.1223 173.436 62.5186C173.44 63.6565 173.359 64.7931 173.194 65.919C173.032 66.9989 172.843 68.1053 172.627 69.2381L170.441 82.2723C170.332 83.0286 170.224 83.7842 170.117 84.5392C170.009 85.2901 169.955 86.0476 169.955 86.8062C169.955 87.5631 169.982 88.2917 170.036 88.9918C170.092 89.7065 170.227 90.4126 170.441 91.097C169.345 91.5906 168.208 91.9835 167.041 92.2707C165.531 92.6404 163.98 92.8173 162.426 92.7972C159.35 92.7972 157.191 92.2439 155.949 91.1372C154.708 90.0305 154.116 88.344 154.173 86.0777V85.1874C154.17 84.8884 154.197 84.5898 154.253 84.2961L157.005 68.1046C157.062 67.8103 157.103 67.5131 157.127 67.2143C157.154 66.8907 157.167 66.5939 157.168 66.324C157.197 65.7755 157.04 65.2333 156.722 64.7856C156.492 64.5681 156.216 64.4043 155.915 64.3063C155.614 64.2083 155.295 64.1784 154.981 64.2188C154.479 64.1689 153.972 64.2509 153.51 64.4567C153.049 64.6625 152.649 64.9851 152.351 65.3925C151.842 66.1644 151.498 67.0324 151.339 67.9429L147.286 91.905H131.5L141.134 35.155Z" fill="#FCE921"/>
<path d="M11.3723 101.857C11.7209 101.774 12.0741 101.711 12.43 101.67C12.8625 101.626 13.2971 101.605 13.7318 101.609C14.2613 101.594 14.7896 101.666 15.2955 101.823C15.6555 101.936 15.9819 102.136 16.2457 102.406C16.4643 102.64 16.6222 102.924 16.7058 103.233C16.7877 103.543 16.8289 103.863 16.8283 104.183C16.8284 104.281 16.8231 104.378 16.8124 104.474C16.8022 104.568 16.7872 104.661 16.7666 104.766L14.2845 119.601C14.2425 119.908 14.2069 120.221 14.177 120.537C14.147 120.853 14.1312 121.165 14.1312 121.472C14.1172 122.07 14.18 122.667 14.3182 123.249C13.92 123.362 13.5161 123.454 13.108 123.525C12.6272 123.608 12.1399 123.649 11.6519 123.647C10.9832 123.68 10.3149 123.575 9.68794 123.34C9.16186 123.048 8.7672 122.565 8.58439 121.992C8.09815 122.584 7.48559 123.061 6.79155 123.386C6.07345 123.662 5.3076 123.793 4.53862 123.77C3.93988 123.773 3.34806 123.642 2.8066 123.386C2.25726 123.125 1.76689 122.755 1.36544 122.299C0.929129 121.799 0.591189 121.222 0.369433 120.597C0.117698 119.894 -0.00676689 119.152 0.00188698 118.405C-0.0084322 117.047 0.177408 115.695 0.553662 114.39C0.882724 113.219 1.42139 112.118 2.14352 111.141C2.80797 110.248 3.65429 109.506 4.62655 108.964C5.62312 108.424 6.74205 108.15 7.8755 108.167C8.68612 108.15 9.49106 108.307 10.236 108.627L11.3723 101.857ZM9.50183 112.953C9.22805 112.808 8.92224 112.734 8.61244 112.738C8.15495 112.726 7.7104 112.891 7.37141 113.198C7.02018 113.524 6.74301 113.921 6.55869 114.363C6.34808 114.854 6.19887 115.368 6.11446 115.895C6.02509 116.412 5.97881 116.935 5.97606 117.459C5.97606 118.747 6.37477 119.391 7.1722 119.39C7.37031 119.405 7.56904 119.371 7.75077 119.291C7.93251 119.21 8.09165 119.086 8.21404 118.93C8.4311 118.641 8.57803 118.305 8.6433 117.949L9.50183 112.953Z" fill="white"/>
<path d="M21.9476 117.459C21.9478 118.041 22.1538 118.604 22.5293 119.049C22.7008 119.233 22.91 119.379 23.1426 119.476C23.3753 119.573 23.6261 119.618 23.8779 119.61C24.4956 119.63 25.1064 119.476 25.6408 119.166C26.1781 118.809 26.6243 118.332 26.9435 117.771C27.5844 117.947 28.1837 118.249 28.7064 118.66C28.9271 118.853 29.1009 119.093 29.2143 119.363C29.3278 119.634 29.378 119.926 29.3611 120.219C29.3729 120.662 29.2615 121.099 29.0394 121.482C28.8348 121.825 28.5703 122.129 28.2585 122.379C27.5876 122.893 26.8137 123.257 25.9896 123.444C25.0994 123.681 24.1828 123.804 23.2616 123.81C22.2586 123.83 21.2606 123.664 20.3185 123.319C19.5365 123.029 18.8259 122.574 18.2348 121.985C17.6804 121.42 17.2565 120.74 16.9928 119.993C16.711 119.191 16.5711 118.346 16.5795 117.495C16.5726 116.274 16.7533 115.059 17.1153 113.893C17.4507 112.799 18.0092 111.787 18.7557 110.92C19.5176 110.053 20.4591 109.363 21.5146 108.897C22.7554 108.37 24.0948 108.115 25.4425 108.149C26.288 108.123 27.1307 108.258 27.9255 108.547C28.5128 108.77 29.0459 109.115 29.4892 109.559C29.8556 109.934 30.1375 110.384 30.316 110.877C30.473 111.309 30.5562 111.765 30.5619 112.225C30.6017 113.144 30.3609 114.053 29.8717 114.831C29.4241 115.492 28.8252 116.037 28.1247 116.421C27.3881 116.82 26.5905 117.094 25.7642 117.233C24.9309 117.383 24.0859 117.46 23.2391 117.463L21.9476 117.459ZM22.2534 114.608C22.3701 114.627 22.4879 114.636 22.606 114.638H22.8978C23.2175 114.637 23.536 114.602 23.848 114.532C24.1514 114.468 24.4451 114.365 24.7215 114.225C24.9701 114.098 25.1853 113.914 25.3499 113.688C25.5155 113.456 25.6014 113.176 25.595 112.891C25.6009 112.769 25.5796 112.647 25.5326 112.534C25.4856 112.421 25.4141 112.319 25.3231 112.237C25.2322 112.155 25.1242 112.094 25.0069 112.059C24.8896 112.023 24.7659 112.015 24.6448 112.033C24.3609 112.029 24.0793 112.084 23.818 112.195C23.5567 112.306 23.3213 112.47 23.1269 112.677C22.6535 113.222 22.3499 113.893 22.2534 114.608Z" fill="white"/>
<path d="M48.6765 101.857C49.0248 101.774 49.3777 101.711 49.7333 101.67C50.1661 101.626 50.601 101.605 51.036 101.609C51.5655 101.594 52.0938 101.666 52.5997 101.823C52.9596 101.936 53.286 102.136 53.5499 102.406C53.7685 102.64 53.9264 102.924 54.01 103.233C54.0919 103.543 54.1331 103.863 54.1325 104.183C54.1326 104.281 54.1273 104.378 54.1166 104.474C54.1064 104.568 54.0914 104.661 54.0708 104.766L51.5878 119.601C51.5467 119.908 51.512 120.221 51.4812 120.537C51.4503 120.853 51.4354 121.165 51.4354 121.472C51.4214 122.07 51.4842 122.667 51.6224 123.249C51.2239 123.362 50.8197 123.455 50.4113 123.525C49.9308 123.608 49.4438 123.649 48.9561 123.647C48.2874 123.68 47.6191 123.575 46.9921 123.34C46.4661 123.048 46.0714 122.565 45.8886 121.992C45.4023 122.584 44.7898 123.061 44.0958 123.386C43.3776 123.662 42.6118 123.793 41.8428 123.77C41.2441 123.773 40.6523 123.642 40.1108 123.386C39.5615 123.125 39.0711 122.755 38.6696 122.299C38.2333 121.799 37.8954 121.222 37.6736 120.597C37.4219 119.894 37.2974 119.152 37.3061 118.405C37.2958 117.047 37.4816 115.695 37.8579 114.389C38.1869 113.219 38.7256 112.118 39.4477 111.141C40.1122 110.248 40.9585 109.506 41.9307 108.964C42.9273 108.424 44.0462 108.15 45.1797 108.167C45.9903 108.15 46.7952 108.307 47.5402 108.627L48.6765 101.857ZM46.806 112.953C46.5326 112.808 46.2271 112.734 45.9176 112.738C45.4597 112.725 45.0148 112.89 44.6756 113.198C44.325 113.524 44.0482 113.921 43.8638 114.363C43.6532 114.854 43.504 115.368 43.4196 115.895C43.3302 116.412 43.284 116.935 43.2812 117.459C43.2812 118.747 43.6796 119.391 44.4764 119.39C44.6747 119.405 44.8736 119.371 45.0555 119.291C45.2374 119.211 45.3967 119.087 45.5192 118.93C45.7362 118.641 45.8832 118.305 45.9484 117.949L46.806 112.953Z" fill="white"/>
<path d="M59.2518 117.459C59.2516 118.041 59.4577 118.604 59.8335 119.049C60.005 119.233 60.2141 119.379 60.4468 119.476C60.6795 119.573 60.9302 119.618 61.1821 119.61C61.7998 119.63 62.4106 119.476 62.945 119.166C63.4823 118.809 63.9285 118.332 64.2477 117.771C64.8886 117.947 65.488 118.249 66.0106 118.66C66.2313 118.853 66.4051 119.093 66.5185 119.363C66.632 119.634 66.6822 119.926 66.6653 120.219C66.6771 120.662 66.5657 121.099 66.3436 121.482C66.1389 121.826 65.8741 122.13 65.5617 122.379C64.8912 122.893 64.1176 123.257 63.2938 123.444C62.4036 123.681 61.487 123.804 60.5658 123.81C59.5628 123.83 58.5648 123.664 57.6227 123.319C56.8406 123.029 56.13 122.574 55.539 121.985C54.9846 121.42 54.5607 120.74 54.297 119.993C54.0152 119.191 53.8753 118.346 53.8837 117.495C53.8768 116.274 54.0575 115.059 54.4195 113.893C54.7549 112.799 55.3134 111.787 56.0599 110.92C56.8216 110.053 57.7631 109.363 58.8188 108.897C60.0596 108.37 61.399 108.115 62.7467 108.149C63.5922 108.123 64.4349 108.258 65.2297 108.547C65.8168 108.769 66.3496 109.114 66.7925 109.559C67.1595 109.934 67.4417 110.384 67.6202 110.877C67.7772 111.309 67.8604 111.765 67.8661 112.225C67.9059 113.144 67.6651 114.053 67.1759 114.831C66.7283 115.492 66.1294 116.037 65.4289 116.421C64.6923 116.82 63.8947 117.094 63.0684 117.233C62.2351 117.383 61.3901 117.46 60.5433 117.463L59.2518 117.459ZM59.5576 114.608C59.6743 114.627 59.7921 114.636 59.9102 114.638H60.202C60.5216 114.637 60.8402 114.602 61.1522 114.532C61.4556 114.468 61.7493 114.365 62.0257 114.225C62.2745 114.098 62.4898 113.914 62.6541 113.688C62.8197 113.456 62.9056 113.176 62.8992 112.891C62.9051 112.769 62.8838 112.647 62.8368 112.534C62.7898 112.421 62.7183 112.319 62.6273 112.237C62.5364 112.155 62.4284 112.094 62.3111 112.059C62.1938 112.023 62.0701 112.015 61.949 112.033C61.6651 112.029 61.3835 112.084 61.1222 112.195C60.8609 112.306 60.6255 112.47 60.4311 112.677C59.9577 113.222 59.6541 113.893 59.5576 114.608Z" fill="white"/>
<path d="M69.9787 117.156C70.3615 117.784 70.8802 118.318 71.4965 118.72C71.9454 118.991 72.4581 119.139 72.9826 119.149C73.1782 119.151 73.3719 119.109 73.5493 119.026C73.6376 118.981 73.7099 118.909 73.7565 118.822C73.8031 118.734 73.8219 118.634 73.8103 118.535C73.8065 118.347 73.7553 118.163 73.6615 117.999C73.5677 117.836 73.4342 117.698 73.2734 117.6C72.9162 117.345 72.4106 116.992 71.7565 116.543C71.0937 116.096 70.4865 115.571 69.9478 114.98C69.4596 114.398 69.2079 113.654 69.2426 112.895C69.2511 112.36 69.355 111.831 69.5494 111.332C69.7772 110.746 70.1395 110.221 70.6071 109.799C71.1846 109.283 71.8557 108.883 72.5842 108.619C73.5685 108.275 74.6075 108.114 75.6498 108.144C76.3569 108.144 77.0615 108.226 77.7494 108.389C78.384 108.533 78.9935 108.771 79.5581 109.094C80.0473 109.373 80.4746 109.749 80.8141 110.198C81.1229 110.603 81.2898 111.099 81.2892 111.608C81.2865 111.958 81.2068 112.302 81.0558 112.617C80.9049 112.933 80.6863 113.211 80.4157 113.432C79.8328 113.954 79.0957 114.271 78.3161 114.336C78.1237 113.765 77.7728 113.26 77.3042 112.88C76.9246 112.593 76.4622 112.438 75.9865 112.436C75.8086 112.434 75.6355 112.493 75.4965 112.604C75.4254 112.661 75.3688 112.733 75.3314 112.816C75.294 112.898 75.2769 112.989 75.2813 113.079C75.2806 113.219 75.3296 113.355 75.4198 113.463C75.5558 113.614 75.71 113.748 75.879 113.861C76.0941 114.015 76.365 114.193 76.6917 114.397C77.0184 114.601 77.4168 114.867 77.8869 115.195C78.3126 115.486 78.708 115.82 79.0671 116.191C79.3434 116.48 79.5805 116.805 79.7723 117.156C79.9401 117.468 80.059 117.804 80.1249 118.152C80.1874 118.501 80.2187 118.855 80.2184 119.21C80.2132 119.765 80.0932 120.313 79.8658 120.819C79.6102 121.389 79.2337 121.896 78.7622 122.306C78.2009 122.79 77.5502 123.16 76.8469 123.394C75.9574 123.687 75.0245 123.827 74.088 123.808C73.2969 123.81 72.5071 123.743 71.7275 123.609C71.0238 123.493 70.3417 123.27 69.7047 122.95C69.142 122.676 68.6452 122.284 68.2485 121.8C67.9253 121.361 67.758 120.827 67.7734 120.282C67.7527 119.633 67.9525 118.995 68.3402 118.474C68.7889 117.925 69.347 117.477 69.9787 117.156Z" fill="white"/>
<path d="M92.1435 117.459C92.8602 117.576 93.5326 117.883 94.0906 118.347C94.3294 118.563 94.5177 118.829 94.6421 119.126C94.7666 119.422 94.8242 119.743 94.8107 120.064C94.7997 120.452 94.7065 120.832 94.5374 121.181C94.3683 121.53 94.1271 121.839 93.8297 122.087C93.4968 122.398 93.126 122.666 92.7261 122.884C92.3179 123.109 91.8864 123.289 91.4393 123.421C90.9975 123.552 90.5463 123.649 90.0898 123.712C89.6734 123.771 89.2534 123.803 88.8328 123.805C87.7886 123.829 86.7493 123.657 85.7681 123.299C84.9665 122.999 84.2397 122.528 83.6377 121.92C83.0765 121.339 82.6477 120.643 82.3807 119.881C82.1031 119.094 81.9633 118.264 81.9674 117.429C81.9621 116.215 82.1586 115.008 82.5491 113.858C82.91 112.771 83.4821 111.766 84.2325 110.9C84.9903 110.046 85.9199 109.362 86.9605 108.892C88.1275 108.375 89.3935 108.12 90.6696 108.144C91.4226 108.15 92.1708 108.263 92.8917 108.481C93.6136 108.68 94.273 109.06 94.8079 109.584C95.1071 109.882 95.351 110.23 95.5281 110.613C95.6998 110.983 95.7888 111.386 95.789 111.793C95.8023 112.149 95.7265 112.502 95.5686 112.821C95.4106 113.139 95.1755 113.413 94.8846 113.618C94.227 114.078 93.4607 114.358 92.6616 114.43C92.5352 113.882 92.2716 113.376 91.8957 112.959C91.7208 112.792 91.5138 112.662 91.2873 112.578C91.0608 112.493 90.8194 112.456 90.5779 112.468C90.1872 112.469 89.8065 112.592 89.4894 112.82C89.1277 113.084 88.8293 113.424 88.6158 113.817C88.3523 114.293 88.1562 114.804 88.0332 115.334C87.8852 115.962 87.8133 116.605 87.819 117.249C87.8006 117.793 87.9389 118.331 88.2174 118.798C88.3564 119.008 88.5492 119.177 88.7757 119.288C89.0022 119.398 89.2541 119.446 89.5052 119.426C90.104 119.447 90.6872 119.232 91.1297 118.828C91.5515 118.44 91.8956 117.976 92.1435 117.459Z" fill="white"/>
<path d="M95.9729 117.428C95.9678 116.213 96.1699 115.005 96.5705 113.857C96.9444 112.765 97.5333 111.76 98.3025 110.899C99.0793 110.046 100.024 109.363 101.076 108.891C102.249 108.375 103.52 108.12 104.801 108.143C105.786 108.121 106.765 108.293 107.683 108.649C108.434 108.938 109.112 109.39 109.669 109.972C110.225 110.554 110.646 111.252 110.901 112.016C111.171 112.81 111.306 113.645 111.299 114.484C111.304 115.68 111.123 116.869 110.763 118.009C110.426 119.095 109.879 120.105 109.154 120.982C108.418 121.858 107.496 122.561 106.457 123.039C105.251 123.576 103.941 123.838 102.622 123.806C101.588 123.832 100.558 123.66 99.5875 123.3C98.8068 123.001 98.1007 122.535 97.5179 121.936C96.9747 121.361 96.5709 120.669 96.3377 119.913C96.0893 119.108 95.9662 118.27 95.9729 117.428ZM103.146 119.42C103.362 119.423 103.576 119.373 103.768 119.274C103.961 119.175 104.126 119.031 104.25 118.853C104.551 118.444 104.784 117.989 104.939 117.505C105.111 116.991 105.234 116.463 105.307 115.926C105.37 115.5 105.406 115.069 105.414 114.638C105.429 114.13 105.341 113.625 105.154 113.152C105.063 112.954 104.912 112.789 104.722 112.682C104.532 112.575 104.313 112.53 104.096 112.555C103.886 112.554 103.678 112.602 103.489 112.695C103.3 112.788 103.135 112.923 103.008 113.091C102.694 113.48 102.451 113.921 102.288 114.393C102.101 114.919 101.972 115.464 101.904 116.018C101.838 116.516 101.803 117.017 101.797 117.52C101.776 117.997 101.876 118.471 102.088 118.899C102.197 119.077 102.355 119.221 102.542 119.313C102.729 119.405 102.939 119.442 103.146 119.42Z" fill="white"/>
<path d="M114.396 108.692C114.744 108.609 115.097 108.547 115.453 108.505C115.886 108.461 116.32 108.441 116.755 108.444C117.494 108.407 118.23 108.548 118.901 108.858C119.129 108.964 119.33 109.12 119.489 109.314C119.648 109.508 119.762 109.736 119.821 109.98C120.275 109.482 120.809 109.062 121.4 108.738C122.226 108.306 123.151 108.1 124.082 108.14C124.66 108.126 125.234 108.236 125.765 108.462C126.215 108.661 126.609 108.966 126.915 109.351C127.215 109.74 127.437 110.182 127.569 110.654C127.715 111.162 127.788 111.688 127.785 112.217C127.786 112.648 127.754 113.078 127.691 113.505C127.629 113.913 127.557 114.332 127.477 114.762L126.649 119.697C126.608 119.983 126.567 120.269 126.527 120.554C126.486 120.839 126.465 121.126 126.465 121.413C126.465 121.699 126.475 121.975 126.496 122.241C126.516 122.511 126.568 122.779 126.649 123.037C126.234 123.224 125.803 123.373 125.361 123.483C124.79 123.622 124.203 123.688 123.614 123.681C122.749 123.766 121.881 123.544 121.162 123.053C120.914 122.804 120.724 122.503 120.608 122.172C120.491 121.84 120.45 121.487 120.488 121.137V120.803C120.487 120.69 120.497 120.577 120.519 120.466L121.561 114.336C121.582 114.225 121.597 114.112 121.606 113.999C121.617 113.876 121.622 113.764 121.622 113.662C121.634 113.454 121.574 113.249 121.453 113.079C121.367 112.997 121.263 112.936 121.15 112.899C121.037 112.862 120.917 112.85 120.798 112.865C120.608 112.846 120.416 112.877 120.241 112.955C120.066 113.033 119.915 113.155 119.801 113.309C119.609 113.601 119.479 113.93 119.419 114.274L117.886 123.346H111.909L114.396 108.692Z" fill="white"/>
<path d="M131.469 104.033C131.828 103.948 132.192 103.886 132.558 103.846C133.001 103.802 133.446 103.782 133.891 103.785C134.42 103.77 134.948 103.843 135.454 103.999C135.818 104.115 136.148 104.314 136.42 104.582C136.646 104.812 136.81 105.097 136.895 105.41C136.977 105.72 137.018 106.039 137.018 106.36C137.018 106.457 137.013 106.554 137.002 106.651C136.992 106.744 136.976 106.838 136.956 106.942L136.65 108.751H141.002L140.267 113.318H135.884L135.209 117.394C135.157 117.567 135.145 117.75 135.174 117.928C135.203 118.107 135.273 118.276 135.378 118.423C135.481 118.533 135.608 118.618 135.748 118.674C135.888 118.73 136.039 118.754 136.19 118.746C136.548 118.749 136.896 118.624 137.171 118.393C137.475 118.137 137.734 117.831 137.937 117.489C138.669 117.651 139.338 118.018 139.869 118.547C140.08 118.807 140.233 119.111 140.318 119.436C140.402 119.761 140.416 120.1 140.359 120.431C140.318 120.824 140.187 121.201 139.975 121.535C139.763 121.843 139.522 122.13 139.255 122.393C138.075 123.382 136.563 123.886 135.025 123.803C134.24 123.808 133.457 123.714 132.696 123.523C132.015 123.356 131.378 123.048 130.825 122.619C130.287 122.191 129.86 121.638 129.583 121.009C129.265 120.242 129.114 119.417 129.139 118.588C129.139 118.307 129.154 118.026 129.185 117.746C129.215 117.47 129.251 117.169 129.292 116.843L131.469 104.033Z" fill="white"/>
<path d="M141.242 117.428C141.238 116.213 141.44 115.005 141.84 113.857C142.214 112.765 142.803 111.76 143.573 110.899C144.35 110.046 145.294 109.363 146.347 108.891C147.519 108.375 148.79 108.12 150.071 108.143C151.055 108.121 152.034 108.293 152.952 108.649C153.704 108.939 154.382 109.391 154.938 109.973C155.495 110.555 155.916 111.252 156.171 112.016C156.441 112.811 156.575 113.645 156.569 114.484C156.573 115.68 156.393 116.869 156.033 118.009C155.695 119.095 155.149 120.105 154.423 120.982C153.687 121.858 152.766 122.561 151.726 123.039C150.521 123.576 149.211 123.838 147.892 123.806C146.857 123.832 145.827 123.66 144.857 123.3C144.077 123.001 143.371 122.536 142.788 121.936C142.245 121.361 141.841 120.669 141.608 119.913C141.359 119.108 141.236 118.27 141.242 117.428ZM148.416 119.42C148.632 119.423 148.846 119.373 149.038 119.274C149.23 119.175 149.396 119.031 149.519 118.853C149.821 118.444 150.054 117.989 150.209 117.505C150.381 116.991 150.504 116.463 150.577 115.926C150.64 115.5 150.676 115.069 150.684 114.638C150.699 114.13 150.611 113.625 150.424 113.152C150.333 112.954 150.181 112.789 149.992 112.682C149.802 112.575 149.583 112.53 149.366 112.555C149.155 112.554 148.948 112.602 148.759 112.695C148.57 112.788 148.406 112.923 148.278 113.091C147.964 113.48 147.72 113.921 147.557 114.393C147.37 114.919 147.242 115.464 147.175 116.018C147.108 116.516 147.072 117.017 147.067 117.52C147.046 117.997 147.146 118.471 147.358 118.899C147.467 119.078 147.625 119.222 147.813 119.314C148.002 119.406 148.212 119.443 148.42 119.42H148.416Z" fill="white"/>
<path d="M159.179 117.156C159.562 117.784 160.08 118.318 160.697 118.72C161.146 118.991 161.658 119.139 162.183 119.149C162.379 119.151 162.573 119.109 162.75 119.026C162.839 118.981 162.911 118.909 162.957 118.821C163.004 118.734 163.022 118.634 163.01 118.535C163.007 118.347 162.956 118.163 162.862 117.999C162.768 117.836 162.635 117.699 162.475 117.6C162.117 117.345 161.611 116.992 160.957 116.543C160.294 116.096 159.687 115.571 159.148 114.98C158.66 114.397 158.409 113.654 158.444 112.895C158.452 112.36 158.556 111.831 158.75 111.332C158.978 110.746 159.34 110.221 159.807 109.799C160.385 109.283 161.056 108.883 161.784 108.619C162.769 108.275 163.808 108.114 164.85 108.144C165.557 108.144 166.262 108.226 166.95 108.389C167.584 108.533 168.194 108.771 168.758 109.094C169.248 109.373 169.675 109.749 170.015 110.198C170.324 110.603 170.49 111.099 170.49 111.608C170.487 111.958 170.408 112.302 170.256 112.618C170.105 112.933 169.887 113.211 169.616 113.432C169.033 113.954 168.296 114.271 167.516 114.336C167.324 113.765 166.974 113.26 166.505 112.88C166.125 112.594 165.663 112.438 165.187 112.436C165.009 112.434 164.836 112.493 164.697 112.604C164.626 112.661 164.569 112.733 164.532 112.816C164.495 112.898 164.478 112.989 164.482 113.079C164.481 113.219 164.53 113.355 164.62 113.463C164.756 113.614 164.911 113.748 165.08 113.861C165.295 114.015 165.565 114.193 165.892 114.397C166.219 114.602 166.617 114.865 167.088 115.195C167.513 115.487 167.908 115.82 168.267 116.191C168.544 116.48 168.781 116.805 168.972 117.156C169.141 117.468 169.26 117.804 169.325 118.152C169.388 118.501 169.419 118.855 169.419 119.21C169.413 119.765 169.293 120.313 169.066 120.819C168.81 121.389 168.433 121.896 167.962 122.306C167.401 122.79 166.75 123.159 166.046 123.394C165.157 123.687 164.224 123.828 163.287 123.808C162.496 123.81 161.707 123.743 160.928 123.609C160.224 123.493 159.541 123.271 158.904 122.95C158.341 122.676 157.845 122.284 157.448 121.8C157.125 121.361 156.958 120.827 156.973 120.282C156.952 119.633 157.152 118.995 157.54 118.474C157.989 117.925 158.547 117.477 159.179 117.156Z" fill="white"/>
<path d="M415.347 3.58857C416.538 3.54941 417.721 3.80649 418.788 4.33675C419.694 4.81421 420.475 5.49667 421.07 6.3297C421.673 7.18742 422.107 8.15282 422.347 9.17369C422.609 10.245 422.741 11.3441 422.739 12.447C422.737 14.2388 422.514 16.0235 422.075 17.7609C421.664 19.4586 420.974 21.0762 420.032 22.5473C419.139 23.9388 417.959 25.1234 416.572 26.0216C415.104 26.9409 413.399 27.4083 411.668 27.3656C410.467 27.4017 409.274 27.1449 408.194 26.6174C407.274 26.1468 406.48 25.4632 405.877 24.6235C405.276 23.7704 404.842 22.8106 404.6 21.7954C404.336 20.7196 404.205 19.6157 404.208 18.5081C404.212 16.7151 404.442 14.9297 404.893 13.1942C405.313 11.4974 406.008 9.88069 406.95 8.40775C407.845 7.01426 409.031 5.83018 410.425 4.93622C411.899 4.01665 413.61 3.54821 415.347 3.58857ZM411.838 24.8788C412.963 24.8823 414.06 24.5304 414.972 23.8735C415.977 23.1478 416.819 22.2194 417.442 21.1482C418.176 19.901 418.721 18.5522 419.06 17.1455C419.455 15.552 419.649 13.9155 419.639 12.2739C419.645 11.4734 419.56 10.6747 419.388 9.89288C419.238 9.19016 418.961 8.52062 418.571 7.91676C418.205 7.35709 417.708 6.89514 417.123 6.57098C416.474 6.22744 415.746 6.05736 415.012 6.07719C413.865 6.0665 412.744 6.41837 411.809 7.08255C410.814 7.80154 409.984 8.72655 409.378 9.79468C408.664 11.0437 408.141 12.393 407.828 13.7974C407.457 15.4001 407.274 17.0407 407.283 18.6858C407.278 19.4738 407.36 20.2599 407.53 21.0295C407.68 21.7293 407.951 22.3976 408.33 23.0046C408.686 23.565 409.171 24.0322 409.744 24.3672C410.383 24.7234 411.107 24.9001 411.838 24.8788ZM438.512 3.86072C438.759 4.11854 438.905 4.4576 438.92 4.81464C438.935 5.10882 438.845 5.39868 438.665 5.63202C438.477 5.85107 438.253 6.03559 438.001 6.17726L437.456 6.48401C437.203 5.92832 436.787 5.46199 436.265 5.14597C435.742 4.82995 435.137 4.67895 434.527 4.7127C434.032 4.70162 433.542 4.80669 433.096 5.01945C432.69 5.22165 432.335 5.51288 432.057 5.87144C431.764 6.25235 431.534 6.67804 431.376 7.13211C431.2 7.63041 431.069 8.14338 430.984 8.66494L430.644 10.743H435.856L435.482 13.0249H430.268L427.918 27.2636C427.772 28.1409 427.561 29.0062 427.287 29.8523C427.049 30.6023 426.692 31.3094 426.231 31.9472C425.795 32.5439 425.222 33.0285 424.562 33.3612C423.79 33.7238 422.944 33.8987 422.092 33.8719C421.466 33.8776 420.842 33.8022 420.236 33.6474C419.752 33.5365 419.302 33.3085 418.926 32.9834C418.789 32.8576 418.679 32.7051 418.603 32.5353C418.527 32.3655 418.486 32.1819 418.483 31.9958C418.475 31.7923 418.509 31.5892 418.585 31.4001C418.675 31.2204 418.79 31.0542 418.925 30.9063L419.471 30.3611C419.778 30.7214 420.155 31.0168 420.578 31.2299C421.021 31.4328 421.505 31.5319 421.992 31.5198C422.423 31.532 422.849 31.4197 423.218 31.1962C423.57 30.9692 423.867 30.6667 424.087 30.3106C424.343 29.8958 424.544 29.449 424.683 28.9816C424.846 28.4519 424.971 27.9112 425.057 27.3637L428.054 9.07082C428.196 8.13089 428.448 7.2107 428.802 6.32876C429.11 5.55255 429.553 4.83742 430.112 4.21704C430.645 3.63815 431.295 3.17939 432.019 2.87126C432.846 2.53639 433.733 2.37408 434.625 2.3943C435.458 2.36794 436.287 2.51905 437.057 2.83759C437.613 3.06449 438.11 3.41426 438.512 3.86072ZM439.738 18.4408C440.587 18.4479 441.435 18.3566 442.263 18.1686C442.967 18.0131 443.644 17.7547 444.273 17.4017C444.8 17.1094 445.254 16.7018 445.602 16.2093C445.92 15.7429 446.086 15.1897 446.079 14.6251C446.091 14.1415 445.941 13.6677 445.653 13.2793C445.456 13.0716 445.214 12.9127 444.945 12.8153C444.676 12.7179 444.388 12.6846 444.103 12.7182C443.449 12.712 442.801 12.8576 442.212 13.1437C441.619 13.4382 441.087 13.8429 440.645 14.3361C440.162 14.8733 439.766 15.4822 439.469 16.1411C439.14 16.8637 438.897 17.6232 438.747 18.4034C438.923 18.4255 439.099 18.4368 439.276 18.437L439.738 18.4408ZM446.993 25.4923C446.76 25.7212 446.51 25.9319 446.245 26.1227C445.911 26.3602 445.551 26.56 445.172 26.7184C444.695 26.9174 444.199 27.066 443.691 27.1617C443.051 27.2817 442.401 27.3387 441.749 27.3319C440.915 27.3402 440.085 27.2074 439.295 26.9391C438.574 26.6953 437.916 26.2937 437.37 25.7635C436.807 25.195 436.377 24.509 436.11 23.7547C435.784 22.8236 435.629 21.8416 435.65 20.8555C435.635 19.4226 435.871 17.9982 436.349 16.647C436.772 15.4361 437.42 14.3153 438.256 13.3429C439.033 12.448 439.983 11.7198 441.049 11.2022C442.094 10.6935 443.242 10.4312 444.405 10.4353C444.998 10.395 445.594 10.472 446.158 10.662C446.722 10.852 447.243 11.1512 447.692 11.5426C448.072 11.9167 448.369 12.366 448.566 12.8616C448.762 13.3573 448.853 13.8884 448.833 14.4212C448.863 15.4078 448.583 16.379 448.032 17.1979C447.49 17.9679 446.779 18.6041 445.954 19.058C445.07 19.5468 444.117 19.8972 443.127 20.097C442.125 20.3095 441.103 20.418 440.078 20.4206H439.278C438.994 20.4206 438.727 20.4094 438.477 20.387V20.8303C438.39 21.9765 438.75 23.112 439.483 23.9978C439.818 24.3476 440.223 24.6225 440.672 24.8045C441.121 24.9865 441.604 25.0714 442.088 25.0537C442.928 25.0647 443.757 24.8722 444.507 24.4926C445.26 24.0956 445.922 23.5443 446.448 22.8746L446.891 23.1814C447.097 23.3187 447.275 23.4916 447.42 23.692C447.547 23.8833 447.613 24.1093 447.607 24.3392C447.562 24.789 447.341 25.2029 446.993 25.4914V25.4923ZM455.986 12.8547C456.58 12.2426 457.236 11.6947 457.945 11.22C458.65 10.731 459.488 10.4699 460.346 10.4718C460.984 10.445 461.613 10.6309 462.134 11.0002C462.358 11.1609 462.538 11.3738 462.66 11.6203C462.781 11.8668 462.841 12.1394 462.833 12.4142C462.847 12.7532 462.752 13.0876 462.561 13.3681C462.367 13.6288 462.124 13.8487 461.845 14.0153L461.3 14.3557C461.136 13.9126 460.831 13.5358 460.431 13.283C460.1 13.1122 459.732 13.0246 459.359 13.0277C458.928 13.0329 458.504 13.1318 458.116 13.3176C457.681 13.5211 457.289 13.804 456.958 14.1519C456.587 14.5425 456.272 14.9832 456.023 15.4612C455.741 16.0005 455.545 16.5809 455.444 17.181L453.804 26.8203H450.905L453.562 10.7757C453.764 10.733 453.969 10.7101 454.176 10.7075C454.418 10.6705 454.666 10.6904 454.9 10.7658C455.133 10.8412 455.346 10.97 455.521 11.1418C455.696 11.3137 455.829 11.524 455.909 11.756C455.988 11.9881 456.013 12.2355 455.981 12.4788L455.986 12.8547ZM468.727 10.743H473.325L472.917 13.0249H468.352L467.194 20.2121C467.126 20.598 467.047 21.0862 466.955 21.6766C466.871 22.1707 466.837 22.672 466.854 23.173C466.861 23.651 467.016 24.115 467.297 24.5019C467.469 24.6974 467.686 24.8489 467.929 24.9438C468.172 25.0386 468.434 25.0741 468.693 25.0471C469.146 25.0478 469.59 24.9179 469.971 24.6731C470.383 24.4092 470.746 24.075 471.043 23.6855L471.589 24.1961C471.729 24.319 471.842 24.4709 471.918 24.6414C471.995 24.8119 472.034 24.9969 472.032 25.1837C472.012 25.4323 471.933 25.6727 471.803 25.8856C471.674 26.0985 471.495 26.2781 471.284 26.4098C470.355 27.0781 469.223 27.4031 468.081 27.3291C467.509 27.375 466.934 27.302 466.391 27.1149C465.849 26.9277 465.351 26.6303 464.929 26.2414C464.182 25.3617 463.809 24.2248 463.89 23.0738C463.89 22.9149 463.901 22.7219 463.924 22.4949C463.946 22.268 463.98 22.0295 464.025 21.7795L466.617 5.90417C466.819 5.86144 467.024 5.83857 467.23 5.8359C467.508 5.80447 467.789 5.83729 468.052 5.93183C468.315 6.02638 468.552 6.1801 468.746 6.38113C469.046 6.79608 469.196 7.30061 469.172 7.81202C469.17 7.96032 469.158 8.10835 469.138 8.25531C469.116 8.43674 469.093 8.58451 469.07 8.6986L468.727 10.743ZM482.796 12.6836C482.01 12.6881 481.244 12.9318 480.599 13.3822C479.871 13.8837 479.25 14.5264 478.775 15.2723C478.224 16.1305 477.805 17.0664 477.532 18.0489C477.219 19.1512 477.064 20.2923 477.072 21.4381C477.072 23.7544 477.991 24.9125 479.831 24.9125C480.234 24.9047 480.632 24.8239 481.006 24.674C481.451 24.5 481.861 24.2465 482.215 23.9258C482.626 23.5543 482.972 23.1165 483.239 22.6305C483.554 22.0489 483.761 21.4153 483.852 20.7601L485.078 13.2597C484.785 13.0791 484.471 12.9362 484.143 12.8341C483.704 12.7193 483.25 12.6685 482.796 12.6836ZM486.304 23.5845C486.282 23.721 486.265 23.8457 486.253 23.9586C486.241 24.0714 486.235 24.1849 486.236 24.299C486.216 24.5703 486.289 24.8403 486.441 25.0659C486.539 25.1615 486.656 25.2341 486.786 25.2783C486.915 25.3225 487.053 25.3371 487.189 25.3212C487.408 25.3155 487.626 25.2813 487.836 25.2192L488.075 26.5482C487.76 26.7228 487.421 26.8489 487.069 26.9223C486.73 27.0058 486.382 27.0516 486.032 27.0588C485.369 27.1027 484.71 26.9229 484.162 26.5482C483.684 26.1181 483.391 25.5199 483.344 24.8788C482.823 25.5583 482.181 26.1356 481.45 26.5818C480.697 27.0404 479.829 27.2764 478.947 27.2627C478.19 27.285 477.438 27.1337 476.749 26.8203C476.158 26.5326 475.644 26.1062 475.253 25.5774C474.843 25.0214 474.546 24.3904 474.379 23.7201C474.193 22.974 474.101 22.2072 474.107 21.4381C474.112 20.1142 474.319 18.7988 474.721 17.5373C475.111 16.2696 475.703 15.0733 476.475 13.9947C477.219 12.9542 478.17 12.0786 479.269 11.4229C480.386 10.76 481.665 10.4183 482.965 10.4353C483.485 10.4352 484.004 10.4865 484.514 10.5887C485.007 10.6857 485.491 10.8224 485.962 10.9974C486.386 11.1548 486.801 11.3369 487.205 11.5426C487.539 11.7115 487.863 11.8989 488.176 12.1037L486.304 23.5845ZM495.195 27.331C493.478 27.4605 491.772 26.9646 490.392 25.9347C490.233 25.8082 490.105 25.6477 490.017 25.4649C489.928 25.2821 489.882 25.0818 489.881 24.8788C489.878 24.5244 490.012 24.1824 490.256 23.9249L490.801 23.346C491.313 23.8614 491.913 24.2821 492.572 24.5889C493.267 24.9034 494.024 25.0605 494.787 25.049C495.286 25.0646 495.783 24.9836 496.251 24.8105C496.596 24.6786 496.909 24.4756 497.171 24.2148C497.393 23.9846 497.556 23.7042 497.647 23.3974C497.735 23.1159 497.781 22.8233 497.784 22.5286C497.785 22.2062 497.712 21.8879 497.571 21.5983C497.429 21.3088 497.222 21.0558 496.967 20.8592C496.371 20.3677 495.747 19.9126 495.096 19.4966C494.687 19.2472 494.284 18.9748 493.887 18.6793C493.495 18.3892 493.136 18.0581 492.814 17.6917C492.495 17.3264 492.236 16.9125 492.047 16.4656C491.844 15.9568 491.745 15.4123 491.757 14.8645C491.758 14.2945 491.88 13.7312 492.115 13.212C492.36 12.6694 492.72 12.1868 493.171 11.7979C493.687 11.3601 494.283 11.0249 494.925 10.8103C495.716 10.547 496.545 10.4205 497.378 10.4362C498.295 10.4133 499.205 10.6054 500.035 10.9974C500.668 11.2814 501.227 11.7065 501.67 12.2403C501.859 12.4716 501.967 12.7589 501.977 13.0577C501.982 13.2901 501.91 13.5178 501.772 13.7048C501.618 13.9028 501.434 14.0751 501.227 14.2155L500.716 14.5559C500.344 13.9322 499.816 13.4164 499.183 13.0595C498.582 12.7562 497.915 12.6041 497.242 12.6162C496.873 12.5777 496.5 12.6152 496.146 12.7265C495.792 12.8378 495.465 13.0205 495.184 13.2634C494.807 13.645 494.594 14.1581 494.588 14.6943C494.58 15.018 494.65 15.3389 494.793 15.6295C494.944 15.9089 495.146 16.1573 495.389 16.3618C495.681 16.6128 495.988 16.846 496.308 17.0604C496.661 17.2986 497.064 17.5654 497.517 17.8609C498.054 18.2115 498.566 18.5984 499.05 19.0187C499.419 19.3381 499.75 19.6979 500.038 20.0914C500.284 20.4352 500.463 20.8223 500.566 21.2324C500.673 21.6786 500.724 22.1362 500.72 22.595C500.724 23.233 500.597 23.8649 500.346 24.4514C500.098 25.0254 499.726 25.5367 499.255 25.9478C498.742 26.3902 498.151 26.7325 497.512 26.9569C496.768 27.2169 495.984 27.3435 495.195 27.331ZM408.398 60.2516C408.083 60.4262 407.744 60.5523 407.392 60.6257C407.052 60.7093 406.704 60.7551 406.353 60.7622C405.974 60.7955 405.591 60.7491 405.23 60.6258C404.87 60.5026 404.539 60.3054 404.258 60.0468C404.031 59.7872 403.858 59.4845 403.75 59.1568C403.641 58.8291 403.6 58.4829 403.628 58.1389C403.628 58.0254 403.634 57.9063 403.645 57.7817C403.656 57.657 403.673 57.5263 403.696 57.3898L405.843 44.4838C406.044 44.441 406.25 44.4182 406.456 44.4155C406.729 44.3892 407.004 44.4279 407.258 44.5286C407.513 44.6292 407.74 44.7889 407.921 44.9944C408.229 45.4193 408.385 45.9355 408.364 46.4599C408.364 46.5734 408.358 46.7096 408.347 46.8686C408.339 47.0058 408.321 47.1422 408.296 47.2773L406.626 57.2879C406.604 57.4244 406.587 57.5491 406.575 57.6619C406.563 57.7748 406.558 57.8883 406.558 58.0024C406.539 58.2737 406.611 58.5437 406.763 58.7692C406.861 58.8649 406.979 58.9375 407.108 58.9817C407.238 59.0259 407.375 59.0405 407.511 59.0246C407.73 59.0189 407.948 58.9847 408.158 58.9226L408.398 60.2516ZM407.819 41.1731C407.596 41.1885 407.373 41.15 407.169 41.061C406.964 40.9719 406.784 40.8349 406.644 40.6615C406.383 40.3198 406.244 39.8995 406.252 39.4692C406.241 38.9117 406.428 38.3684 406.781 37.9363C406.961 37.7221 407.188 37.5527 407.444 37.4413C407.701 37.33 407.98 37.2798 408.259 37.2948C408.484 37.2796 408.708 37.3198 408.913 37.412C409.118 37.5041 409.297 37.6454 409.435 37.8232C409.695 38.1721 409.833 38.5972 409.827 39.0324C409.84 39.5857 409.648 40.1245 409.288 40.5446C409.106 40.7535 408.88 40.9187 408.626 41.0279C408.371 41.137 408.095 41.1873 407.819 41.175V41.1731ZM416.028 46.589C416.643 45.8882 417.375 45.3002 418.191 44.8513C419.072 44.3669 420.065 44.1203 421.07 44.1359C421.898 44.1042 422.714 44.3501 423.386 44.8345C423.999 45.2985 424.442 45.9507 424.647 46.6909C424.96 46.3343 425.296 45.9994 425.654 45.6883C426.014 45.3767 426.408 45.1081 426.83 44.8878C427.29 44.65 427.775 44.467 428.278 44.3426C428.874 44.1989 429.487 44.1301 430.1 44.1378C430.758 44.1183 431.411 44.2524 432.008 44.5296C432.502 44.7676 432.934 45.1176 433.269 45.5518C433.593 45.9847 433.83 46.4763 433.968 46.9995C434.115 47.5437 434.19 48.1051 434.189 48.6689C434.189 49.0785 434.166 49.4878 434.121 49.895C434.075 50.304 434.019 50.7014 433.951 51.0874L432.383 60.5237H429.489L431.056 51.0874C431.102 50.8149 431.147 50.5032 431.193 50.1521C431.237 49.8188 431.26 49.483 431.261 49.1468C431.293 48.5002 431.1 47.8626 430.716 47.3418C430.499 47.1016 430.229 46.9151 429.927 46.797C429.626 46.6789 429.301 46.6323 428.978 46.661C428.022 46.6614 427.094 46.9788 426.338 47.5635C425.437 48.3377 424.869 49.4298 424.754 50.6123L423.153 60.5256H420.219L421.786 51.0892C421.832 50.7713 421.871 50.4704 421.905 50.1867C421.94 49.8984 421.957 49.6083 421.957 49.3179C421.969 48.6555 421.773 48.0059 421.395 47.4615C421.242 47.216 421.029 47.0136 420.775 46.8735C420.522 46.7335 420.237 46.6603 419.948 46.661C419.465 46.6659 418.987 46.7522 418.534 46.9163C418.039 47.09 417.583 47.3559 417.188 47.7C416.761 48.0743 416.398 48.5167 416.115 49.0093C415.796 49.5672 415.582 50.179 415.485 50.8143L413.848 60.5237H410.953L413.61 44.4791C413.811 44.4364 414.017 44.4135 414.223 44.4108C414.466 44.3738 414.714 44.3938 414.947 44.4692C415.181 44.5446 415.393 44.6734 415.569 44.8452C415.744 45.0171 415.876 45.2274 415.956 45.4594C416.036 45.6915 416.061 45.9389 416.028 46.1821V46.589ZM442.869 58.7842C443.667 58.7832 444.45 58.5653 445.134 58.1539C445.875 57.7085 446.513 57.1104 447.004 56.3994C447.57 55.5883 448.003 54.6924 448.287 53.7453C448.613 52.6628 448.774 51.5371 448.764 50.4065C448.821 49.4066 448.584 48.4117 448.083 47.5448C447.823 47.1919 447.476 46.9123 447.076 46.7332C446.677 46.554 446.237 46.4815 445.801 46.5226C445.384 46.5341 444.973 46.6265 444.592 46.7947C443.6 47.2088 442.774 47.9395 442.241 48.8728C441.922 49.4307 441.709 50.0425 441.611 50.6777L440.351 58.2436C440.663 58.4319 441.002 58.5698 441.357 58.6523C441.855 58.7546 442.363 58.7998 442.872 58.787L442.869 58.7842ZM442.19 46.4599C442.78 45.7792 443.49 45.2133 444.285 44.7905C445.064 44.3661 445.936 44.1436 446.823 44.1434C447.62 44.1177 448.411 44.2933 449.123 44.654C449.736 44.9849 450.262 45.4579 450.656 46.0334C451.069 46.649 451.363 47.3363 451.524 48.0601C451.711 48.8757 451.802 49.7102 451.797 50.5468C451.801 51.8851 451.582 53.2148 451.149 54.4813C450.749 55.6832 450.144 56.8067 449.361 57.8022C448.618 58.7406 447.696 59.5222 446.649 60.1019C445.596 60.6832 444.411 60.9825 443.208 60.9707C442.647 60.9666 442.088 60.9039 441.539 60.7837C441.002 60.6787 440.484 60.4893 440.006 60.2226L438.746 67.8914H435.884L439.776 44.4791C439.978 44.4364 440.183 44.4135 440.39 44.4108C440.632 44.3738 440.88 44.3938 441.114 44.4692C441.347 44.5446 441.56 44.6734 441.735 44.8452C441.91 45.0171 442.043 45.2274 442.123 45.4594C442.202 45.6915 442.227 45.9389 442.195 46.1821L442.19 46.4599ZM458.848 52.1488C459.697 52.1559 460.545 52.0646 461.373 51.8767C462.077 51.7211 462.754 51.4627 463.383 51.1098C463.91 50.8174 464.364 50.4098 464.712 49.9174C465.029 49.4497 465.194 48.8954 465.184 48.3303C465.197 47.8468 465.047 47.373 464.759 46.9846C464.562 46.7768 464.319 46.618 464.05 46.5205C463.781 46.4231 463.493 46.3899 463.209 46.4234C462.554 46.4172 461.907 46.5629 461.318 46.849C460.725 47.1435 460.193 47.5481 459.751 48.0414C459.268 48.5786 458.871 49.1875 458.575 49.8463C458.247 50.5702 458.007 51.3306 457.86 52.1114C458.035 52.1336 458.211 52.1448 458.388 52.1451L458.848 52.1488ZM466.104 59.2004C465.871 59.4293 465.62 59.64 465.355 59.8307C465.019 60.0669 464.658 60.2652 464.279 60.4218C463.802 60.6208 463.305 60.7694 462.798 60.8651C462.157 60.9851 461.507 61.0421 460.856 61.0353C460.022 61.0437 459.193 60.9112 458.403 60.6434C457.682 60.3996 457.024 59.998 456.478 59.4679C455.915 58.8992 455.484 58.2128 455.218 57.4581C454.892 56.527 454.736 55.545 454.757 54.5589C454.742 53.126 454.979 51.7016 455.456 50.3504C455.88 49.1395 456.527 48.0187 457.364 47.0463C458.143 46.1506 459.095 45.4223 460.164 44.9056C461.209 44.3969 462.357 44.1345 463.52 44.1387C464.718 44.0575 465.899 44.4551 466.804 45.2441C467.184 45.6182 467.482 46.0675 467.678 46.5631C467.874 47.0588 467.965 47.5899 467.945 48.1227C467.976 49.1093 467.696 50.0805 467.144 50.8994C466.602 51.6681 465.891 52.303 465.066 52.7558C464.183 53.2446 463.229 53.595 462.239 53.7948C461.237 54.0073 460.215 54.1157 459.19 54.1184H458.387C458.103 54.1184 457.836 54.1072 457.586 54.0847V54.528C457.499 55.6742 457.859 56.8097 458.592 57.6956C458.927 58.0454 459.333 58.3203 459.782 58.5023C460.231 58.6843 460.713 58.7692 461.197 58.7515C462.037 58.7625 462.867 58.57 463.616 58.1903C464.369 57.7934 465.031 57.2421 465.557 56.5724L466.001 56.8792C466.206 57.0165 466.385 57.1894 466.529 57.3898C466.657 57.581 466.722 57.8071 466.716 58.037C466.673 58.4889 466.453 58.9055 466.104 59.1957V59.2004ZM475.097 46.5534C475.69 45.9413 476.347 45.3934 477.055 44.9187C477.76 44.4297 478.598 44.1686 479.457 44.1705C480.095 44.1437 480.724 44.3296 481.245 44.6989C481.468 44.8596 481.648 45.0725 481.77 45.319C481.892 45.5655 481.951 45.8381 481.943 46.1129C481.957 46.4519 481.862 46.7863 481.671 47.0669C481.478 47.3275 481.234 47.5474 480.956 47.714L480.41 48.0545C480.246 47.6114 479.941 47.2345 479.542 46.9818C479.21 46.811 478.842 46.7233 478.469 46.7264C478.039 46.7316 477.614 46.8305 477.226 47.0164C476.791 47.2198 476.399 47.5027 476.068 47.8506C475.273 48.6884 474.745 49.7438 474.552 50.8825L472.917 60.5237H470.017L472.674 44.4791C472.876 44.4364 473.082 44.4135 473.288 44.4108C473.53 44.3738 473.778 44.3938 474.012 44.4692C474.245 44.5446 474.458 44.6734 474.633 44.8452C474.808 45.0171 474.941 45.2274 475.021 45.4594C475.101 45.6915 475.125 45.9389 475.093 46.1821L475.097 46.5534ZM490.902 46.4169C490.104 46.4119 489.324 46.643 488.657 47.0809C487.942 47.5585 487.333 48.1791 486.869 48.9036C486.331 49.735 485.928 50.6463 485.674 51.6036C485.384 52.6703 485.241 53.7715 485.248 54.8769C485.183 55.8558 485.421 56.831 485.929 57.6704C486.191 57.9997 486.53 58.2588 486.917 58.4242C487.303 58.5896 487.725 58.6561 488.144 58.6177C488.563 58.6072 488.977 58.5266 489.37 58.3793C489.843 58.2098 490.281 57.9563 490.664 57.6311C491.1 57.2598 491.475 56.822 491.774 56.3339C492.121 55.7624 492.347 55.1258 492.438 54.4635L493.628 47.2081C493.296 46.951 492.921 46.755 492.521 46.6292C491.995 46.4777 491.449 46.4076 490.903 46.4216L490.902 46.4169ZM494.853 57.2832C494.831 57.4197 494.813 57.5388 494.802 57.6404C494.79 57.7479 494.784 57.8559 494.785 57.964C494.767 58.2405 494.839 58.5153 494.99 58.7477C495.084 58.8484 495.201 58.9255 495.331 58.9727C495.461 59.02 495.6 59.0361 495.738 59.0199C495.957 59.0143 496.175 58.98 496.385 58.9179L496.623 60.2469C496.309 60.4215 495.97 60.5476 495.618 60.621C495.278 60.7047 494.929 60.7505 494.579 60.7575C493.916 60.8014 493.257 60.6216 492.709 60.2469C492.231 59.8168 491.938 59.2186 491.891 58.5775C491.312 59.3181 490.572 59.9179 489.728 60.332C488.942 60.736 488.073 60.9518 487.19 60.9623C486.398 60.9865 485.612 60.8291 484.89 60.5022C484.282 60.2104 483.756 59.7732 483.357 59.2294C482.943 58.6474 482.653 57.9865 482.505 57.2879C482.328 56.471 482.242 55.6369 482.25 54.8011C482.253 53.5063 482.454 52.2196 482.846 50.9854C483.221 49.7581 483.796 48.6012 484.549 47.5616C485.277 46.5594 486.205 45.7186 487.274 45.0917C488.386 44.447 489.652 44.1172 490.936 44.1378C491.509 44.1431 492.078 44.241 492.62 44.4277C493.105 44.5772 493.569 44.789 493.999 45.058L495.395 36.4054C495.597 36.3626 495.803 36.3398 496.009 36.3371C496.287 36.3057 496.568 36.3385 496.831 36.433C497.093 36.5276 497.331 36.6813 497.525 36.8823C497.825 37.2973 497.975 37.8018 497.95 38.3132C497.948 38.4615 497.937 38.6096 497.917 38.7565C497.894 38.9379 497.872 39.0857 497.849 39.1998L494.853 57.2832ZM503.948 41.5453C503.756 41.7495 503.524 41.9122 503.267 42.0234C503.009 42.1347 502.732 42.1923 502.452 42.1925C502.193 42.1903 501.938 42.1322 501.704 42.0223C501.504 41.9408 501.319 41.8257 501.158 41.6819L504.224 37.8662C504.464 37.556 504.751 37.2858 505.076 37.0656C505.414 36.8612 505.804 36.7604 506.198 36.7757C506.527 36.7789 506.849 36.8669 507.133 37.031C507.401 37.1728 507.647 37.3506 507.866 37.5594L503.948 41.5453ZM504.322 60.2497C504.008 60.4243 503.669 60.5504 503.317 60.6238C502.977 60.7075 502.628 60.7533 502.278 60.7603C501.898 60.7936 501.515 60.7472 501.155 60.624C500.794 60.5008 500.463 60.3035 500.183 60.0449C499.955 59.7853 499.782 59.4826 499.674 59.1549C499.566 58.8272 499.525 58.481 499.553 58.137C499.553 58.0236 499.558 57.9045 499.569 57.7798C499.581 57.6551 499.598 57.5245 499.621 57.3879L501.767 44.4819C501.969 44.4392 502.174 44.4163 502.381 44.4136C502.653 44.3873 502.928 44.4261 503.183 44.5267C503.437 44.6273 503.664 44.787 503.845 44.9925C504.154 45.4177 504.311 45.9346 504.29 46.4599C504.29 46.5734 504.285 46.7096 504.274 46.8686C504.265 47.0058 504.248 47.1422 504.222 47.2773L502.553 57.2925C502.53 57.4291 502.513 57.5538 502.501 57.6666C502.489 57.7795 502.484 57.8929 502.484 58.007C502.465 58.2784 502.537 58.5484 502.689 58.7739C502.787 58.8696 502.905 58.9422 503.034 58.9864C503.164 59.0306 503.302 59.0452 503.437 59.0292C503.657 59.0236 503.874 58.9893 504.085 58.9273L504.322 60.2497ZM513.043 60.6238H510.011L507.32 44.7157C507.556 44.6138 507.801 44.534 508.052 44.4772C508.282 44.4304 508.516 44.4075 508.75 44.409C509.018 44.3749 509.289 44.4196 509.531 44.5375C509.773 44.6555 509.975 44.8416 510.113 45.073C510.363 45.5934 510.524 46.1519 510.59 46.7255L512.055 57.4216L517.198 46.487C517.444 45.9137 517.79 45.3888 518.22 44.9374C518.412 44.7586 518.637 44.6198 518.883 44.529C519.128 44.4383 519.39 44.3975 519.651 44.409C520.128 44.3972 520.599 44.5149 521.014 44.7494L513.043 60.6238ZM525.613 52.1414C526.463 52.1485 527.31 52.0571 528.138 51.8692C528.842 51.7137 529.52 51.4553 530.148 51.1023C530.675 50.81 531.13 50.4024 531.477 49.9099C531.793 49.4445 531.959 48.893 531.951 48.3303C531.964 47.8468 531.814 47.373 531.526 46.9846C531.329 46.7768 531.086 46.618 530.817 46.5205C530.548 46.4231 530.26 46.3899 529.976 46.4234C529.321 46.4172 528.674 46.5629 528.085 46.849C527.492 47.1435 526.96 47.5481 526.518 48.0414C526.035 48.5786 525.638 49.1875 525.342 49.8463C525.014 50.5702 524.774 51.3306 524.627 52.1114C524.802 52.1336 524.978 52.1448 525.155 52.1451L525.613 52.1414ZM532.869 59.1929C532.636 59.4218 532.386 59.6325 532.121 59.8232C531.786 60.0608 531.426 60.2606 531.048 60.419C530.571 60.618 530.074 60.7666 529.566 60.8623C528.926 60.9823 528.276 61.0393 527.625 61.0325C526.791 61.0409 525.962 60.9084 525.172 60.6406C524.451 60.3968 523.793 59.9952 523.247 59.465C522.684 58.8963 522.253 58.21 521.987 57.4553C521.661 56.5242 521.505 55.5422 521.526 54.5561C521.511 53.1232 521.748 51.6988 522.225 50.3476C522.65 49.1393 523.297 48.0211 524.133 47.051C524.909 46.154 525.86 45.4238 526.926 44.9046C527.972 44.396 529.119 44.1336 530.282 44.1378C531.481 44.0561 532.663 44.454 533.569 45.2441C533.949 45.6182 534.247 46.0675 534.443 46.5631C534.64 47.0588 534.731 47.5899 534.71 48.1227C534.741 49.1093 534.461 50.0805 533.91 50.8994C533.367 51.6681 532.656 52.303 531.832 52.7558C530.948 53.2446 529.994 53.595 529.004 53.7948C528.002 54.0073 526.98 54.1157 525.956 54.1184H525.155C524.871 54.1184 524.605 54.1072 524.355 54.0847V54.528C524.267 55.6742 524.627 56.8097 525.36 57.6956C525.695 58.0454 526.101 58.3203 526.55 58.5023C526.999 58.6843 527.481 58.7692 527.965 58.7515C528.805 58.7625 529.635 58.57 530.384 58.1903C531.137 57.7934 531.799 57.2421 532.325 56.5724L532.769 56.8792C532.974 57.0165 533.153 57.1894 533.297 57.3898C533.425 57.581 533.49 57.8071 533.484 58.037C533.441 58.4891 533.22 58.9056 532.871 59.1957L532.869 59.1929ZM541.998 60.2488C541.684 60.4233 541.345 60.5495 540.993 60.6228C540.653 60.7065 540.304 60.7523 539.954 60.7594C539.574 60.7927 539.192 60.7462 538.831 60.623C538.47 60.4998 538.139 60.3026 537.859 60.0439C537.632 59.7843 537.459 59.4817 537.35 59.154C537.242 58.8263 537.201 58.4801 537.229 58.1361C537.229 58.0226 537.234 57.9035 537.246 57.7788C537.257 57.6542 537.274 57.5235 537.297 57.387L539.443 44.481C539.645 44.4382 539.851 44.4154 540.057 44.4127C540.329 44.3864 540.604 44.4251 540.859 44.5258C541.113 44.6264 541.341 44.7861 541.521 44.9916C541.831 45.417 541.988 45.9343 541.967 46.4599C541.967 46.5734 541.961 46.7096 541.95 46.8686C541.941 47.0058 541.924 47.1422 541.898 47.2773L540.229 57.2925C540.206 57.4291 540.189 57.5538 540.177 57.6666C540.166 57.7795 540.16 57.8929 540.161 58.007C540.141 58.2784 540.213 58.5484 540.365 58.7739C540.463 58.8696 540.581 58.9422 540.711 58.9864C540.84 59.0306 540.978 59.0452 541.114 59.0292C541.333 59.0236 541.55 58.9893 541.761 58.9273L541.998 60.2488ZM541.419 41.1703C541.197 41.186 540.974 41.1477 540.769 41.0588C540.565 40.9699 540.384 40.833 540.244 40.6597C539.982 40.3179 539.844 39.8976 539.852 39.4673C539.841 38.9098 540.028 38.3665 540.38 37.9345C540.56 37.7188 540.787 37.5481 541.045 37.4358C541.302 37.3234 541.582 37.2726 541.862 37.2873C542.086 37.2721 542.311 37.3124 542.516 37.4045C542.721 37.4967 542.9 37.6379 543.037 37.8157C543.298 38.1646 543.435 38.5897 543.429 39.0249C543.442 39.5804 543.248 40.1207 542.884 40.5409C542.703 40.7496 542.478 40.915 542.225 41.0247C541.972 41.1345 541.697 41.1858 541.421 41.175L541.419 41.1703ZM549.182 61.0297C547.465 61.1592 545.759 60.6633 544.378 59.6334C544.231 59.5147 544.11 59.3668 544.022 59.199C543.935 59.0312 543.883 58.8472 543.87 58.6584C543.858 58.4696 543.884 58.2802 543.948 58.1021C544.012 57.924 544.112 57.7611 544.242 57.6236L544.787 57.0447C545.3 57.5601 545.899 57.9808 546.558 58.2876C547.254 58.6021 548.01 58.7592 548.773 58.7477C549.272 58.7633 549.769 58.6824 550.238 58.5093C550.582 58.3773 550.896 58.1743 551.157 57.9135C551.379 57.6833 551.543 57.4029 551.634 57.0961C551.721 56.8146 551.767 56.522 551.77 56.2273C551.772 55.9049 551.699 55.5866 551.557 55.297C551.415 55.0075 551.209 54.7546 550.953 54.558C550.358 54.0664 549.733 53.6114 549.083 53.1953C548.674 52.946 548.271 52.6735 547.873 52.378C547.482 52.0879 547.122 51.7569 546.801 51.3904C546.481 51.0251 546.222 50.6112 546.034 50.1643C545.83 49.6555 545.732 49.111 545.744 48.5632C545.744 47.9932 545.866 47.4299 546.101 46.9107C546.346 46.3681 546.706 45.8855 547.157 45.4966C547.674 45.0588 548.269 44.7237 548.911 44.509C549.702 44.2458 550.532 44.1193 551.365 44.135C552.282 44.112 553.192 44.3041 554.021 44.6961C554.654 44.9801 555.213 45.4053 555.656 45.939C555.846 46.1703 555.953 46.4576 555.963 46.7564C555.968 46.9888 555.896 47.2165 555.758 47.4035C555.605 47.6015 555.421 47.7738 555.213 47.9142L554.702 48.2546C554.359 47.642 553.852 47.1365 553.239 46.7938C552.626 46.4512 551.93 46.2848 551.228 46.3131C550.859 46.2745 550.486 46.312 550.132 46.4233C549.778 46.5347 549.451 46.7174 549.171 46.9602C548.794 47.3418 548.58 47.8549 548.575 48.3911C548.566 48.7148 548.637 49.0358 548.78 49.3263C548.93 49.6057 549.132 49.8541 549.375 50.0586C549.668 50.3096 549.975 50.5429 550.295 50.7572C550.647 50.9954 551.05 51.2622 551.504 51.5578C552.041 51.9084 552.553 52.2952 553.037 52.7156C553.405 53.0349 553.736 53.3947 554.024 53.7883C554.271 54.132 554.45 54.5191 554.553 54.9292C554.659 55.3755 554.711 55.8331 554.706 56.2919C554.71 56.9298 554.583 57.5618 554.332 58.1483C554.085 58.7222 553.712 59.2335 553.242 59.6446C552.73 60.0851 552.141 60.426 551.504 60.65C550.761 60.9137 549.977 61.0442 549.188 61.0353L549.182 61.0297ZM411.533 101.585L412.997 92.5923C412.411 93.2481 411.691 93.7707 410.885 94.1252C410.149 94.4701 409.348 94.6559 408.535 94.6704C407.828 94.7266 407.117 94.6156 406.46 94.3464C405.803 94.0772 405.219 93.6574 404.754 93.1207C403.878 91.8985 403.445 90.4138 403.528 88.9123C403.527 87.5309 403.74 86.1577 404.158 84.8413C404.553 83.5624 405.17 82.3632 405.981 81.2987C406.768 80.2719 407.76 79.4194 408.893 78.7951C410.078 78.1495 411.41 77.821 412.76 77.8411C413.757 77.8294 414.748 77.9908 415.69 78.3181C416.531 78.614 417.333 79.0146 418.074 79.5105L414.395 101.582L411.533 101.585ZM412.588 80.0903C411.725 80.0849 410.88 80.3337 410.157 80.8058C409.394 81.3076 408.744 81.9631 408.249 82.7305C407.687 83.6008 407.267 84.5552 407.006 85.5576C406.706 86.6739 406.557 87.8255 406.563 88.9815C406.483 89.8916 406.751 90.7981 407.311 91.5197C407.592 91.7971 407.928 92.0118 408.298 92.1498C408.668 92.2878 409.063 92.3459 409.457 92.3202C409.88 92.3077 410.296 92.2153 410.683 92.048C411.157 91.8542 411.598 91.59 411.993 91.2643C412.434 90.8998 412.808 90.4619 413.1 89.97C413.43 89.4155 413.649 88.8026 413.747 88.165L414.973 80.6711C414.638 80.4916 414.284 80.3489 413.917 80.2456C413.483 80.1345 413.036 80.0826 412.588 80.0913V80.0903ZM433.266 90.9912C433.244 91.1278 433.227 91.2525 433.215 91.3653C433.203 91.4782 433.197 91.5917 433.198 91.7058C433.178 91.9771 433.251 92.2471 433.403 92.4726C433.5 92.5683 433.618 92.6409 433.748 92.6851C433.877 92.7293 434.015 92.7439 434.151 92.728C434.37 92.7223 434.588 92.688 434.798 92.626L435.036 93.955C434.722 94.1295 434.383 94.2557 434.031 94.329C433.691 94.4127 433.342 94.4585 432.992 94.4656C432.333 94.5118 431.678 94.3317 431.136 93.955C430.667 93.5198 430.382 92.9232 430.336 92.2856C430.062 92.6279 429.76 92.947 429.434 93.2395C428.753 93.8545 427.935 94.2983 427.049 94.5339C426.51 94.6767 425.954 94.7456 425.396 94.7387C424.791 94.789 424.182 94.7018 423.615 94.4834C423.048 94.2651 422.538 93.9214 422.123 93.478C421.389 92.5495 421.014 91.3873 421.067 90.2047C421.07 89.4281 421.138 88.6532 421.272 87.8882L422.873 78.1797C423.075 78.137 423.28 78.1141 423.487 78.1114C423.759 78.0851 424.034 78.1238 424.289 78.2245C424.543 78.3251 424.77 78.4848 424.951 78.6903C425.259 79.115 425.415 79.6308 425.394 80.1549C425.394 80.2683 425.389 80.4046 425.378 80.5636C425.369 80.7007 425.352 80.8372 425.326 80.9723L424.17 87.8901C424.125 88.1625 424.091 88.4465 424.068 88.7421C424.046 89.0376 424.035 89.3328 424.035 89.6277C423.999 90.346 424.196 91.0565 424.596 91.6543C424.825 91.9261 425.117 92.1379 425.446 92.2715C425.776 92.4052 426.133 92.4565 426.487 92.4212C426.98 92.4178 427.467 92.3134 427.918 92.1144C428.402 91.9049 428.841 91.6043 429.212 91.2288C429.611 90.8254 429.95 90.3665 430.217 89.8662C430.512 89.3124 430.713 88.714 430.813 88.0949L432.448 78.1816C432.65 78.1388 432.855 78.116 433.061 78.1133C433.334 78.087 433.609 78.1257 433.863 78.2263C434.118 78.327 434.345 78.4866 434.526 78.6922C434.834 79.1168 434.99 79.6327 434.969 80.1567C434.969 80.2702 434.964 80.4064 434.952 80.5654C434.944 80.7026 434.926 80.8391 434.901 80.9741L433.266 90.9912ZM442.057 85.8475C442.907 85.8547 443.754 85.7633 444.582 85.5754C445.286 85.4199 445.963 85.1615 446.592 84.8085C447.116 84.5151 447.567 84.1076 447.913 83.6161C448.231 83.1497 448.397 82.5965 448.39 82.0319C448.402 81.5483 448.252 81.0745 447.964 80.6861C447.767 80.4791 447.525 80.3209 447.256 80.224C446.987 80.1271 446.7 80.0941 446.416 80.1278C445.761 80.1216 445.114 80.2672 444.525 80.5533C443.931 80.8468 443.399 81.2505 442.956 81.7429C442.473 82.2801 442.076 82.889 441.78 83.5479C441.452 84.2717 441.212 85.0321 441.065 85.8129C441.24 85.8351 441.417 85.8464 441.593 85.8466L442.057 85.8475ZM449.313 92.8991C449.08 93.128 448.83 93.3387 448.564 93.5294C448.23 93.767 447.87 93.9668 447.492 94.1252C447.015 94.3242 446.518 94.4728 446.01 94.5685C445.37 94.6885 444.72 94.7455 444.069 94.7387C443.235 94.7471 442.406 94.6146 441.616 94.3468C440.892 94.1044 440.231 93.703 439.683 93.1722C439.121 92.6033 438.692 91.9173 438.427 91.1633C438.101 90.2323 437.945 89.2503 437.967 88.2642C437.951 86.8313 438.188 85.4068 438.665 84.0557C439.089 82.8447 439.736 81.724 440.573 80.7515C441.349 79.8546 442.3 79.1244 443.366 78.6052C444.412 78.0965 445.56 77.8342 446.722 77.8383C447.316 77.798 447.912 77.8751 448.476 78.065C449.04 78.255 449.561 78.5543 450.009 78.9456C450.389 79.3198 450.687 79.769 450.883 80.2646C451.08 80.7603 451.171 81.2915 451.15 81.8242C451.181 82.8108 450.901 83.7821 450.35 84.6009C449.807 85.3696 449.096 86.0045 448.272 86.4573C447.388 86.9461 446.434 87.2965 445.445 87.4963C444.442 87.7088 443.42 87.8173 442.396 87.8199H441.595C441.311 87.8199 441.045 87.8087 440.795 87.7863V88.2296C440.707 89.3758 441.067 90.5113 441.8 91.3971C442.135 91.7469 442.541 92.0219 442.99 92.2038C443.439 92.3858 443.921 92.4707 444.406 92.453C445.245 92.464 446.075 92.2715 446.824 91.8919C447.578 91.4949 448.239 90.9436 448.765 90.2739L449.209 90.5807C449.414 90.718 449.593 90.8909 449.737 91.0913C449.865 91.2826 449.93 91.5086 449.924 91.7385C449.881 92.1914 449.66 92.6087 449.31 92.8991H449.313ZM468.727 80.1278C467.929 80.1228 467.149 80.3539 466.482 80.7918C465.767 81.2694 465.158 81.89 464.694 82.6145C464.158 83.4435 463.755 84.3518 463.502 85.3061C463.212 86.3728 463.069 87.474 463.076 88.5793C463.011 89.5583 463.249 90.5335 463.757 91.3728C464.018 91.7034 464.357 91.9637 464.744 92.1303C465.13 92.2968 465.552 92.3643 465.972 92.3267C466.391 92.3162 466.805 92.2356 467.198 92.0883C467.671 91.9188 468.109 91.6653 468.492 91.3401C468.926 90.9677 469.298 90.5293 469.596 90.0411C469.942 89.4695 470.168 88.8329 470.26 88.1706L471.452 80.9152C471.12 80.6581 470.745 80.4621 470.345 80.3363C469.819 80.1845 469.274 80.1141 468.727 80.1278ZM472.678 90.9941C472.656 91.1306 472.639 91.2497 472.627 91.3513C472.615 91.4588 472.609 91.5668 472.61 91.6749C472.592 91.9514 472.664 92.2262 472.815 92.4586C472.909 92.5593 473.026 92.6363 473.156 92.6836C473.286 92.7309 473.426 92.747 473.563 92.7308C473.782 92.7251 474 92.6908 474.21 92.6288L474.448 93.9578C474.134 94.1323 473.795 94.2585 473.443 94.3319C473.103 94.4155 472.754 94.4613 472.404 94.4684C471.741 94.5123 471.082 94.3325 470.534 93.9578C470.055 93.5273 469.761 92.928 469.714 92.2856C469.135 93.026 468.396 93.6258 467.552 94.0401C466.766 94.4441 465.897 94.6599 465.014 94.6704C464.222 94.6946 463.436 94.5372 462.714 94.2103C462.106 93.9171 461.579 93.4783 461.181 92.9328C460.767 92.3508 460.478 91.6899 460.329 90.9912C460.152 90.1744 460.066 89.3403 460.074 88.5045C460.078 87.2097 460.278 85.923 460.67 84.6888C461.045 83.4615 461.62 82.3046 462.373 81.265C463.102 80.2628 464.029 79.422 465.098 78.7951C466.21 78.1504 467.476 77.8206 468.76 77.8411C469.334 77.8465 469.902 77.9444 470.444 78.1311C470.929 78.2805 471.393 78.4924 471.823 78.7614L473.22 70.1088C473.421 70.066 473.627 70.0432 473.833 70.0405C474.111 70.0091 474.392 70.0419 474.655 70.1364C474.917 70.231 475.155 70.3847 475.349 70.5857C475.649 71.0007 475.799 71.5052 475.775 72.0166C475.772 72.1649 475.761 72.3129 475.741 72.4599C475.718 72.6413 475.696 72.7891 475.673 72.9032L472.678 90.9941ZM489.71 90.9941C489.688 91.1306 489.671 91.2553 489.659 91.3681C489.647 91.481 489.641 91.5945 489.642 91.7086C489.623 91.9799 489.695 92.2499 489.847 92.4754C489.945 92.5711 490.063 92.6437 490.192 92.6879C490.321 92.7321 490.459 92.7467 490.595 92.7308C490.814 92.7251 491.032 92.6908 491.242 92.6288L491.481 93.9578C491.166 94.1323 490.827 94.2585 490.475 94.3319C490.135 94.4155 489.787 94.4613 489.436 94.4684C488.777 94.5146 488.122 94.3345 487.58 93.9578C487.111 93.5217 486.826 92.9241 486.781 92.2856C486.507 92.6279 486.205 92.947 485.879 93.2395C485.198 93.8545 484.38 94.2983 483.494 94.5339C482.955 94.6767 482.399 94.7456 481.841 94.7387C481.236 94.789 480.627 94.7018 480.06 94.4834C479.493 94.2651 478.983 93.9214 478.568 93.478C477.834 92.5495 477.459 91.3873 477.512 90.2047C477.515 89.4281 477.583 88.6532 477.717 87.8882L479.318 78.1797C479.52 78.137 479.725 78.1141 479.932 78.1114C480.204 78.0851 480.479 78.1238 480.734 78.2245C480.988 78.3251 481.215 78.4848 481.396 78.6903C481.704 79.115 481.86 79.6308 481.839 80.1549C481.839 80.2683 481.834 80.4046 481.823 80.5636C481.814 80.7007 481.797 80.8372 481.771 80.9723L480.615 87.8901C480.57 88.1625 480.536 88.4465 480.513 88.7421C480.491 89.0376 480.48 89.3328 480.48 89.6277C480.444 90.346 480.641 91.0565 481.041 91.6543C481.27 91.9261 481.562 92.1379 481.892 92.2715C482.221 92.4052 482.578 92.4565 482.932 92.4212C483.425 92.4178 483.912 92.3134 484.363 92.1144C484.847 91.9049 485.286 91.6043 485.657 91.2288C486.056 90.8254 486.395 90.3665 486.662 89.8662C486.957 89.3124 487.158 88.714 487.258 88.0949L488.893 78.1816C489.095 78.1388 489.3 78.116 489.506 78.1133C489.779 78.087 490.054 78.1257 490.308 78.2263C490.563 78.327 490.79 78.4866 490.971 78.6922C491.279 79.1168 491.435 79.6327 491.414 80.1567C491.414 80.2702 491.409 80.4064 491.397 80.5654C491.389 80.7026 491.372 80.8391 491.346 80.9741L489.71 90.9941ZM499.078 80.2615C499.672 79.6494 500.328 79.1015 501.037 78.6267C501.742 78.1378 502.58 77.8767 503.438 77.8786C504.076 77.8518 504.705 78.0376 505.226 78.407C505.45 78.5677 505.63 78.7806 505.752 79.0271C505.873 79.2736 505.933 79.5462 505.925 79.821C505.939 80.1599 505.844 80.4944 505.653 80.7749C505.459 81.0356 505.216 81.2555 504.938 81.4221L504.392 81.7625C504.228 81.3194 503.923 80.9425 503.523 80.6898C503.192 80.519 502.824 80.4314 502.451 80.4345C502.02 80.4397 501.596 80.5386 501.208 80.7244C500.773 80.9279 500.381 81.2108 500.05 81.5586C499.255 82.3964 498.727 83.4519 498.534 84.5906L496.899 94.2309H494L496.657 78.1862C496.859 78.1435 497.064 78.1206 497.271 78.118C497.513 78.081 497.761 78.101 497.995 78.1764C498.228 78.2518 498.441 78.3805 498.616 78.5524C498.791 78.7242 498.924 78.9345 499.004 79.1666C499.083 79.3986 499.108 79.646 499.076 79.8893L499.078 80.2615ZM514.918 80.0913C514.132 80.0958 513.366 80.3395 512.721 80.7899C511.993 81.2918 511.373 81.9349 510.899 82.6809C510.348 83.5394 509.929 84.4757 509.656 85.4585C509.343 86.5608 509.188 87.7019 509.196 88.8477C509.196 91.164 510.115 92.3221 511.954 92.3221C512.358 92.3143 512.756 92.2335 513.13 92.0836C513.575 91.9096 513.985 91.656 514.339 91.3354C514.75 90.9641 515.095 90.5266 515.361 90.0411C515.676 89.4594 515.884 88.8258 515.975 88.1706L517.201 80.6767C516.908 80.4962 516.594 80.3532 516.266 80.2512C515.827 80.1332 515.373 80.0793 514.919 80.0913H514.918ZM518.428 90.9912C518.406 91.1278 518.388 91.2525 518.377 91.3653C518.365 91.4782 518.359 91.5917 518.36 91.7058C518.34 91.9771 518.412 92.2471 518.565 92.4726C518.662 92.5683 518.78 92.6409 518.91 92.6851C519.039 92.7293 519.177 92.7439 519.313 92.728C519.532 92.7223 519.75 92.688 519.96 92.626L520.198 93.955C519.884 94.1295 519.545 94.2557 519.193 94.329C518.853 94.4127 518.504 94.4585 518.154 94.4656C517.491 94.5095 516.832 94.3297 516.284 93.955C515.805 93.5254 515.511 92.9271 515.463 92.2856C514.943 92.9648 514.302 93.5421 513.572 93.9886C512.819 94.4472 511.951 94.6832 511.069 94.6695C510.312 94.6914 509.561 94.5397 508.872 94.2262C508.28 93.9384 507.767 93.512 507.376 92.9833C506.968 92.4271 506.672 91.7965 506.507 91.1269C506.32 90.3807 506.229 89.614 506.235 88.8449C506.239 87.521 506.446 86.2056 506.848 84.9441C507.238 83.6764 507.831 82.4801 508.603 81.4015C509.347 80.361 510.298 79.4854 511.396 78.8297C512.514 78.1668 513.793 77.825 515.092 77.8421C515.612 77.8419 516.132 77.8933 516.642 77.9955C517.135 78.0925 517.619 78.2292 518.089 78.4042C518.514 78.5616 518.929 78.7436 519.332 78.9494C519.666 79.1183 519.99 79.3056 520.303 79.5105L518.428 90.9912ZM527.762 80.2952C528.376 79.5944 529.108 79.0064 529.925 78.5575C530.806 78.0731 531.798 77.8265 532.803 77.8421C533.632 77.8104 534.447 78.0563 535.12 78.5407C535.732 79.0047 536.175 79.6569 536.38 80.3971C536.692 80.0396 537.028 79.7037 537.386 79.3917C537.745 79.0801 538.14 78.8115 538.561 78.5912C539.021 78.3534 539.507 78.1704 540.009 78.046C540.606 77.9022 541.218 77.8334 541.832 77.8411C542.49 77.8217 543.143 77.9558 543.74 78.233C544.234 78.471 544.665 78.821 545 79.2552C545.325 79.6881 545.562 80.1797 545.699 80.7029C545.847 81.2471 545.921 81.8085 545.921 82.3723C545.921 82.7819 545.898 83.1912 545.852 83.5984C545.807 84.0074 545.75 84.4048 545.682 84.7908L544.115 94.2271H541.216L542.783 84.7908C542.829 84.5183 542.874 84.2066 542.92 83.8555C542.964 83.5222 542.987 83.1864 542.988 82.8502C543.02 82.2036 542.827 81.5659 542.443 81.0452C542.225 80.805 541.955 80.6185 541.654 80.5004C541.352 80.3823 541.027 80.3357 540.705 80.3644C539.749 80.3648 538.821 80.6822 538.065 81.2668C537.164 82.041 536.596 83.1332 536.481 84.3157L534.879 94.229H531.951L533.519 84.7926C533.564 84.4746 533.604 84.1738 533.637 83.8901C533.672 83.6018 533.689 83.3117 533.689 83.0213C533.702 82.3589 533.505 81.7093 533.128 81.1649C532.974 80.9194 532.761 80.717 532.508 80.5769C532.254 80.4369 531.97 80.3637 531.68 80.3644C531.198 80.3693 530.72 80.4556 530.266 80.6197C529.772 80.7934 529.315 81.0593 528.92 81.4034C528.493 81.7777 528.13 82.2201 527.848 82.7127C527.528 83.2706 527.315 83.8824 527.217 84.5177L525.582 94.2262H522.683L525.34 78.1816C525.542 78.1388 525.747 78.116 525.954 78.1133C526.196 78.0763 526.444 78.0963 526.678 78.1717C526.911 78.2471 527.124 78.3758 527.299 78.5477C527.474 78.7196 527.607 78.9298 527.687 79.1619C527.766 79.3939 527.791 79.6414 527.759 79.8846L527.762 80.2952ZM412.213 113.796C411.427 113.8 410.661 114.044 410.017 114.494C409.289 114.996 408.669 115.638 408.194 116.383C407.643 117.242 407.223 118.177 406.95 119.16C406.637 120.262 406.482 121.403 406.49 122.549C406.49 124.865 407.41 126.024 409.249 126.024C409.652 126.016 410.05 125.935 410.424 125.785C410.869 125.611 411.279 125.358 411.634 125.037C412.044 124.666 412.39 124.228 412.656 123.743C412.971 123.161 413.179 122.527 413.269 121.872L414.495 114.378C414.203 114.198 413.888 114.055 413.56 113.953C413.121 113.836 412.668 113.783 412.213 113.796ZM415.722 124.697C415.7 124.833 415.683 124.958 415.671 125.071C415.659 125.183 415.653 125.297 415.654 125.411C415.635 125.682 415.707 125.952 415.859 126.178C415.957 126.274 416.075 126.346 416.204 126.39C416.334 126.435 416.471 126.449 416.607 126.433C416.826 126.428 417.044 126.393 417.254 126.331L417.493 127.66C417.178 127.835 416.839 127.961 416.487 128.034C416.147 128.118 415.799 128.164 415.448 128.171C414.785 128.215 414.127 128.035 413.578 127.66C413.1 127.23 412.807 126.632 412.761 125.991C412.24 126.67 411.599 127.247 410.87 127.694C410.116 128.152 409.248 128.388 408.366 128.375C407.609 128.397 406.858 128.245 406.169 127.931C405.578 127.644 405.064 127.217 404.673 126.689C404.265 126.132 403.97 125.502 403.804 124.832C403.617 124.086 403.526 123.319 403.532 122.55C403.536 121.226 403.743 119.91 404.144 118.648C404.533 117.381 405.124 116.184 405.894 115.105C406.638 114.064 407.589 113.189 408.688 112.533C409.805 111.87 411.084 111.528 412.384 111.545C412.904 111.545 413.423 111.597 413.933 111.699C414.426 111.796 414.91 111.933 415.381 112.108C415.806 112.265 416.221 112.447 416.624 112.653C416.958 112.822 417.282 113.009 417.595 113.214L415.722 124.697ZM425.738 126.193C426.536 126.192 427.319 125.974 428.003 125.563C428.744 125.117 429.381 124.519 429.873 123.808C430.437 122.996 430.869 122.099 431.151 121.151C431.477 120.069 431.638 118.943 431.628 117.812C431.685 116.812 431.448 115.818 430.947 114.951C430.687 114.598 430.34 114.318 429.94 114.139C429.541 113.96 429.101 113.887 428.665 113.928C428.248 113.94 427.837 114.032 427.456 114.201C426.464 114.615 425.638 115.345 425.105 116.279C424.786 116.836 424.573 117.448 424.475 118.084L423.214 125.646C423.526 125.834 423.865 125.972 424.22 126.054C424.718 126.158 425.227 126.205 425.737 126.194L425.738 126.193ZM425.056 113.863C425.645 113.182 426.356 112.616 427.151 112.194C427.929 111.769 428.802 111.547 429.689 111.546C430.486 111.521 431.277 111.696 431.989 112.057C432.602 112.388 433.128 112.861 433.521 113.436C433.935 114.052 434.229 114.739 434.39 115.463C434.577 116.279 434.668 117.113 434.662 117.95C434.666 119.288 434.448 120.618 434.015 121.884C433.615 123.086 433.01 124.21 432.227 125.205C431.484 126.144 430.562 126.925 429.515 127.505C428.462 128.086 427.277 128.386 426.074 128.374C425.513 128.37 424.953 128.307 424.405 128.187C423.868 128.082 423.35 127.892 422.872 127.626L421.611 135.294H418.75L422.633 111.892C422.834 111.849 423.04 111.826 423.246 111.823C423.489 111.786 423.737 111.806 423.97 111.882C424.204 111.957 424.416 112.086 424.592 112.258C424.767 112.429 424.899 112.64 424.979 112.872C425.059 113.104 425.084 113.351 425.051 113.595L425.056 113.863ZM441.714 119.552C442.563 119.559 443.411 119.468 444.239 119.28C444.943 119.124 445.62 118.866 446.249 118.513C446.776 118.22 447.23 117.813 447.578 117.32C447.896 116.854 448.063 116.301 448.055 115.736C448.067 115.253 447.917 114.779 447.629 114.39C447.432 114.183 447.19 114.024 446.921 113.926C446.652 113.829 446.364 113.796 446.08 113.829C445.425 113.823 444.778 113.969 444.189 114.255C443.595 114.549 443.063 114.954 442.621 115.447C442.136 115.985 441.738 116.595 441.441 117.256C441.113 117.98 440.873 118.74 440.725 119.521C440.901 119.543 441.077 119.554 441.254 119.555L441.714 119.552ZM448.969 126.603C448.736 126.832 448.486 127.043 448.221 127.234C447.887 127.471 447.527 127.671 447.148 127.829C446.672 128.029 446.175 128.177 445.667 128.273C445.027 128.393 444.377 128.45 443.726 128.443C442.892 128.451 442.062 128.319 441.273 128.051C440.552 127.807 439.894 127.406 439.348 126.876C438.784 126.307 438.354 125.621 438.087 124.866C437.762 123.935 437.606 122.953 437.627 121.967C437.612 120.534 437.848 119.109 438.326 117.758C438.749 116.547 439.397 115.426 440.233 114.454C441.01 113.557 441.96 112.827 443.027 112.308C444.072 111.799 445.22 111.537 446.383 111.541C446.976 111.5 447.572 111.578 448.136 111.768C448.7 111.957 449.221 112.257 449.67 112.648C450.05 113.022 450.347 113.471 450.544 113.967C450.74 114.463 450.831 114.994 450.811 115.527C450.841 116.513 450.561 117.485 450.01 118.303C449.468 119.072 448.757 119.707 447.932 120.16C447.048 120.649 446.095 120.999 445.105 121.199C444.103 121.411 443.081 121.52 442.056 121.522H441.254C440.97 121.522 440.703 121.511 440.453 121.489V121.932C440.366 123.078 440.726 124.214 441.459 125.1C441.794 125.449 442.199 125.724 442.648 125.906C443.097 126.088 443.58 126.173 444.064 126.155C444.904 126.166 445.734 125.974 446.483 125.594C447.236 125.197 447.898 124.646 448.424 123.976L448.867 124.283C449.073 124.42 449.252 124.593 449.396 124.794C449.523 124.985 449.589 125.211 449.583 125.441C449.54 125.894 449.319 126.312 448.969 126.602V126.603ZM462.595 127.932L464.163 118.496C464.208 118.2 464.254 117.877 464.299 117.525C464.344 117.192 464.367 116.856 464.368 116.52C464.387 115.901 464.208 115.292 463.857 114.782C463.649 114.529 463.381 114.331 463.078 114.206C462.775 114.082 462.446 114.034 462.119 114.067C461.611 114.069 461.107 114.149 460.623 114.305C460.112 114.47 459.633 114.723 459.209 115.053C458.755 115.407 458.368 115.84 458.068 116.331C457.733 116.889 457.513 117.509 457.421 118.154L455.786 127.93H452.887L455.544 111.887C455.746 111.844 455.951 111.821 456.157 111.819C456.4 111.782 456.648 111.802 456.881 111.877C457.115 111.952 457.328 112.081 457.503 112.253C457.678 112.425 457.811 112.635 457.89 112.867C457.97 113.099 457.995 113.347 457.962 113.59V113.964C458.578 113.263 459.317 112.68 460.142 112.244C461.045 111.769 462.052 111.529 463.072 111.545C463.743 111.528 464.411 111.657 465.027 111.925C465.535 112.156 465.983 112.5 466.336 112.931C466.68 113.356 466.929 113.849 467.069 114.378C467.218 114.934 467.292 115.506 467.29 116.081C467.29 116.491 467.267 116.9 467.222 117.307C467.177 117.716 467.12 118.114 467.052 118.5L465.495 127.931L462.595 127.932ZM479.253 113.796C478.466 113.8 477.7 114.044 477.056 114.494C476.328 114.996 475.708 115.639 475.233 116.385C474.682 117.243 474.263 118.179 473.99 119.162C473.677 120.264 473.522 121.405 473.53 122.551C473.53 124.867 474.45 126.025 476.289 126.025C476.692 126.018 477.09 125.937 477.465 125.787C477.91 125.613 478.319 125.359 478.674 125.039C479.084 124.667 479.43 124.23 479.696 123.744C480.011 123.163 480.219 122.529 480.309 121.874L481.536 114.38C481.243 114.2 480.929 114.057 480.6 113.955C480.161 113.837 479.707 113.783 479.253 113.796ZM482.762 124.697C482.739 124.833 482.722 124.958 482.71 125.071C482.698 125.183 482.693 125.297 482.693 125.411C482.674 125.682 482.746 125.952 482.898 126.178C482.996 126.274 483.114 126.346 483.243 126.39C483.373 126.435 483.51 126.449 483.646 126.433C483.866 126.428 484.083 126.393 484.294 126.331L484.532 127.66C484.218 127.835 483.879 127.961 483.527 128.034C483.186 128.118 482.838 128.164 482.488 128.171C481.825 128.215 481.166 128.035 480.617 127.66C480.139 127.23 479.847 126.632 479.8 125.991C479.28 126.67 478.639 127.247 477.909 127.694C477.155 128.152 476.287 128.388 475.405 128.375C474.649 128.397 473.897 128.245 473.208 127.931C472.617 127.644 472.103 127.217 471.712 126.689C471.304 126.132 471.009 125.502 470.843 124.832C470.657 124.086 470.565 123.319 470.571 122.55C470.576 121.226 470.783 119.911 471.185 118.649C471.573 117.381 472.164 116.184 472.934 115.105C473.678 114.064 474.629 113.189 475.728 112.533C476.846 111.87 478.124 111.528 479.424 111.545C479.944 111.545 480.463 111.597 480.973 111.699C481.467 111.797 481.951 111.936 482.422 112.112C482.847 112.27 483.262 112.452 483.665 112.657C483.999 112.826 484.323 113.014 484.636 113.219L482.762 124.697ZM491.653 128.444C489.936 128.573 488.23 128.078 486.849 127.048C486.702 126.929 486.581 126.781 486.493 126.613C486.406 126.445 486.354 126.261 486.341 126.073C486.329 125.884 486.355 125.694 486.419 125.516C486.483 125.338 486.583 125.175 486.713 125.038L487.258 124.459C487.771 124.974 488.37 125.395 489.029 125.702C489.725 126.016 490.481 126.173 491.244 126.162C491.743 126.178 492.24 126.097 492.709 125.924C493.053 125.792 493.367 125.589 493.628 125.328C493.85 125.098 494.014 124.817 494.105 124.51C494.192 124.229 494.238 123.936 494.241 123.642C494.243 123.319 494.17 123.001 494.028 122.711C493.886 122.422 493.68 122.169 493.424 121.972C492.829 121.481 492.204 121.026 491.554 120.61C491.145 120.36 490.742 120.088 490.344 119.792C489.953 119.502 489.593 119.171 489.272 118.805C488.952 118.439 488.693 118.025 488.505 117.579C488.301 117.07 488.203 116.525 488.215 115.977C488.215 115.408 488.337 114.844 488.572 114.325C488.815 113.782 489.174 113.299 489.623 112.909C490.141 112.472 490.737 112.138 491.38 111.925C492.17 111.662 493 111.535 493.833 111.551C494.75 111.528 495.66 111.72 496.49 112.112C497.122 112.396 497.682 112.821 498.124 113.355C498.314 113.586 498.422 113.874 498.431 114.173C498.437 114.405 498.365 114.633 498.226 114.82C498.073 115.018 497.889 115.19 497.681 115.33L497.171 115.671C496.827 115.058 496.32 114.553 495.707 114.21C495.094 113.867 494.398 113.701 493.696 113.729C493.327 113.691 492.954 113.728 492.6 113.839C492.246 113.951 491.919 114.134 491.639 114.376C491.262 114.758 491.048 115.271 491.043 115.807C491.035 116.131 491.105 116.452 491.248 116.742C491.399 117.022 491.601 117.27 491.844 117.475C492.136 117.726 492.443 117.959 492.763 118.173C493.115 118.412 493.518 118.678 493.972 118.974C494.509 119.325 495.021 119.711 495.505 120.132C495.873 120.451 496.205 120.811 496.492 121.204C496.739 121.548 496.918 121.935 497.021 122.345C497.127 122.792 497.179 123.249 497.174 123.708C497.179 124.346 497.051 124.978 496.8 125.564C496.553 126.138 496.18 126.65 495.71 127.061C495.198 127.501 494.609 127.842 493.972 128.066C493.227 128.327 492.442 128.454 491.653 128.442V128.444ZM513.658 127.933L516.792 108.96L511.614 111.617C511.457 111.37 511.315 111.114 511.189 110.85C511.069 110.611 511.005 110.349 511.001 110.083C510.99 109.797 511.087 109.517 511.274 109.299C511.49 109.067 511.743 108.872 512.022 108.72L517.506 105.723C517.981 105.441 518.521 105.288 519.073 105.28C519.289 105.271 519.504 105.31 519.704 105.392C519.904 105.474 520.084 105.599 520.231 105.756L516.558 127.931L513.658 127.933ZM541.183 113.83C540.386 113.825 539.605 114.056 538.938 114.494C538.223 114.972 537.614 115.592 537.15 116.317C536.614 117.146 536.211 118.054 535.958 119.009C535.668 120.075 535.525 121.176 535.532 122.282C535.467 123.261 535.705 124.236 536.213 125.075C536.474 125.406 536.813 125.666 537.2 125.833C537.586 125.999 538.008 126.067 538.428 126.029C538.847 126.019 539.261 125.938 539.654 125.791C540.127 125.621 540.565 125.368 540.948 125.043C541.383 124.672 541.756 124.235 542.055 123.748C542.402 123.177 542.628 122.54 542.719 121.878L543.912 114.622C543.58 114.365 543.205 114.169 542.804 114.043C542.278 113.889 541.731 113.816 541.183 113.828V113.83ZM545.134 124.697C545.112 124.833 545.095 124.952 545.083 125.054C545.071 125.161 545.065 125.269 545.066 125.377C545.048 125.654 545.12 125.929 545.271 126.161C545.365 126.262 545.482 126.339 545.612 126.386C545.742 126.433 545.882 126.449 546.019 126.433C546.238 126.428 546.456 126.393 546.666 126.331L546.904 127.66C546.59 127.835 546.251 127.961 545.899 128.034C545.559 128.118 545.21 128.164 544.86 128.171C544.197 128.215 543.538 128.035 542.99 127.66C542.512 127.23 542.219 126.632 542.172 125.991C541.593 126.731 540.853 127.331 540.009 127.745C539.223 128.149 538.354 128.365 537.471 128.376C536.679 128.4 535.893 128.242 535.171 127.916C534.563 127.622 534.036 127.184 533.638 126.638C533.224 126.056 532.934 125.395 532.786 124.697C532.609 123.88 532.523 123.046 532.531 122.21C532.535 120.915 532.735 119.628 533.127 118.394C533.502 117.167 534.077 116.01 534.83 114.97C535.559 113.968 536.486 113.127 537.555 112.5C538.667 111.856 539.933 111.526 541.217 111.546C541.791 111.552 542.359 111.65 542.901 111.836C543.386 111.986 543.85 112.198 544.28 112.467L545.677 103.814C545.878 103.771 546.084 103.748 546.29 103.746C546.568 103.714 546.849 103.747 547.112 103.842C547.374 103.936 547.612 104.09 547.806 104.291C548.106 104.706 548.256 105.21 548.232 105.722C548.229 105.87 548.218 106.018 548.198 106.165C548.175 106.347 548.153 106.494 548.13 106.608L545.134 124.697ZM554.604 127.66C554.29 127.835 553.951 127.961 553.599 128.034C553.259 128.118 552.91 128.164 552.56 128.171C552.18 128.204 551.797 128.158 551.437 128.035C551.076 127.911 550.745 127.714 550.465 127.455C550.237 127.196 550.064 126.893 549.956 126.565C549.848 126.238 549.807 125.892 549.835 125.548C549.835 125.434 549.84 125.315 549.851 125.19C549.863 125.066 549.88 124.935 549.903 124.798L552.049 111.892C552.251 111.85 552.456 111.827 552.663 111.824C552.935 111.798 553.21 111.837 553.465 111.937C553.719 112.038 553.946 112.198 554.127 112.403C554.435 112.828 554.591 113.344 554.57 113.868C554.57 113.981 554.565 114.117 554.554 114.276C554.545 114.413 554.528 114.55 554.502 114.685L552.833 124.7C552.81 124.837 552.793 124.961 552.781 125.074C552.77 125.187 552.764 125.301 552.765 125.415C552.745 125.686 552.817 125.956 552.969 126.182C553.067 126.277 553.185 126.35 553.315 126.394C553.444 126.438 553.582 126.453 553.718 126.437C553.937 126.431 554.154 126.397 554.365 126.335L554.604 127.66ZM554.025 108.582C553.803 108.597 553.58 108.559 553.375 108.47C553.17 108.381 552.99 108.244 552.85 108.071C552.588 107.729 552.45 107.309 552.458 106.879C552.447 106.321 552.634 105.778 552.986 105.346C553.166 105.13 553.393 104.96 553.65 104.847C553.908 104.735 554.187 104.684 554.468 104.699C554.692 104.684 554.916 104.724 555.121 104.816C555.326 104.908 555.506 105.049 555.643 105.227C555.903 105.576 556.041 106.001 556.035 106.436C556.048 106.992 555.853 107.532 555.49 107.952C555.309 108.161 555.083 108.325 554.829 108.435C554.576 108.544 554.301 108.594 554.025 108.583V108.582ZM566.183 113.794C565.397 113.798 564.631 114.042 563.986 114.492C563.258 114.994 562.638 115.637 562.164 116.383C561.613 117.242 561.194 118.178 560.921 119.16C560.608 120.262 560.453 121.403 560.46 122.549C560.46 124.865 561.38 126.024 563.219 126.024C563.622 126.016 564.021 125.935 564.395 125.785C564.84 125.611 565.25 125.358 565.604 125.037C566.015 124.666 566.36 124.228 566.626 123.743C566.941 123.161 567.149 122.527 567.24 121.872L568.466 114.378C568.173 114.198 567.859 114.055 567.531 113.953C567.092 113.836 566.639 113.783 566.186 113.796L566.183 113.794ZM569.692 124.695C569.67 124.831 569.652 124.956 569.641 125.069C569.629 125.182 569.623 125.295 569.624 125.409C569.604 125.68 569.676 125.951 569.829 126.176C569.926 126.272 570.044 126.344 570.174 126.388C570.303 126.433 570.441 126.447 570.577 126.431C570.796 126.426 571.014 126.391 571.224 126.329L571.462 127.658C571.148 127.833 570.809 127.959 570.457 128.032C570.117 128.116 569.768 128.162 569.418 128.169C568.755 128.213 568.096 128.033 567.548 127.658C567.07 127.228 566.777 126.63 566.73 125.989C566.21 126.668 565.569 127.246 564.839 127.692C564.086 128.151 563.218 128.387 562.336 128.373C561.579 128.395 560.828 128.243 560.139 127.93C559.547 127.642 559.034 127.215 558.642 126.687C558.234 126.131 557.939 125.5 557.774 124.83C557.587 124.084 557.495 123.317 557.501 122.548C557.506 121.224 557.713 119.909 558.115 118.648C558.504 117.38 559.096 116.184 559.868 115.105C560.612 114.064 561.563 113.189 562.661 112.533C563.779 111.87 565.058 111.528 566.357 111.545C566.877 111.545 567.396 111.597 567.907 111.699C568.399 111.796 568.884 111.933 569.354 112.108C569.779 112.265 570.194 112.447 570.597 112.653C570.931 112.822 571.255 113.009 571.568 113.214L569.692 124.695ZM575.381 128.442C575.141 128.46 574.9 128.418 574.68 128.321C574.46 128.223 574.268 128.072 574.12 127.881C573.849 127.511 573.706 127.062 573.712 126.603C573.698 126.006 573.904 125.424 574.29 124.969C574.483 124.744 574.724 124.565 574.996 124.447C575.267 124.329 575.562 124.275 575.858 124.288C576.098 124.27 576.339 124.311 576.559 124.409C576.779 124.507 576.971 124.658 577.119 124.849C577.39 125.219 577.533 125.668 577.527 126.126C577.541 126.724 577.335 127.306 576.948 127.761C576.756 127.986 576.515 128.164 576.244 128.282C575.973 128.4 575.678 128.455 575.383 128.442H575.381Z" fill="white"/>
</svg>
