<svg width="460" height="158" viewBox="0 0 460 158" fill="none" xmlns="http://www.w3.org/2000/svg">
<g clip-path="url(#clip0_999_35585)">
<path d="M168.606 24.3519C169.693 24.2397 170.786 24.1881 171.879 24.1974C173.223 24.1612 174.563 24.3432 175.849 24.7361C176.775 25.0196 177.62 25.5213 178.313 26.1992C178.884 26.7836 179.307 27.497 179.545 28.2791C179.776 29.0537 179.893 29.8581 179.891 30.6665C179.891 30.9109 179.879 31.1551 179.852 31.3981C179.827 31.6287 179.789 31.8726 179.738 32.1296L174.35 64.0147H184.824C185.99 63.9782 187.153 64.1609 188.251 64.5535C189.068 64.8567 189.805 65.3415 190.408 65.9712C190.949 66.5655 191.344 67.2775 191.563 68.051C191.8 68.8904 191.916 69.7592 191.909 70.6313C191.906 71.5874 191.816 72.5413 191.64 73.481C191.455 74.4621 191.233 75.4148 190.973 76.3392H157.245C157.245 76.3392 167.707 24.4497 168.606 24.3519ZM204.689 24.8141C205.564 24.6082 206.451 24.4538 207.345 24.3519C208.433 24.2397 209.526 24.1881 210.619 24.1974C211.963 24.1612 213.303 24.3432 214.589 24.7361C215.515 25.0196 216.36 25.5213 217.053 26.1992C217.624 26.7836 218.047 27.497 218.285 28.2791C218.516 29.0537 218.633 29.8581 218.631 30.6665C218.631 30.9109 218.619 31.1551 218.592 31.3981C218.567 31.6287 218.529 31.8726 218.478 32.1296L211.003 76.3392H195.985L204.689 24.8141ZM227.409 25.3528C230.339 24.9937 233.099 24.7371 235.689 24.583C238.279 24.4289 240.576 24.3519 242.582 24.3519C245.464 24.296 248.34 24.6328 251.131 25.3528C253.22 25.8876 255.183 26.8301 256.907 28.1259C258.331 29.2215 259.445 30.668 260.142 32.3239C260.821 33.9991 261.161 35.792 261.143 37.5993C261.218 40.004 260.577 42.3767 259.3 44.4158C257.881 46.4582 255.975 48.1149 253.755 49.2362C255.576 50.3421 257.139 51.8258 258.337 53.5872C259.514 55.3803 260.118 57.4884 260.07 59.6325C260.167 62.4277 259.571 65.2036 258.337 67.7136C257.211 69.8399 255.518 71.6128 253.446 72.8359C251.111 74.1766 248.555 75.0889 245.898 75.5296C242.668 76.0943 239.394 76.3648 236.116 76.3378H218.782L227.409 25.3528ZM236.958 66.0194C239.21 66.214 241.459 65.6119 243.312 64.3181C244.001 63.657 244.535 62.8511 244.874 61.9586C245.214 61.0662 245.351 60.1094 245.276 59.1575C245.319 58.5342 245.227 57.9089 245.007 57.3242C244.787 56.7395 244.443 56.2091 244 55.7691C243.021 54.9527 241.768 54.5396 240.495 54.6137H236.881C236.573 56.5645 236.252 58.4127 235.919 60.1585C235.585 61.9042 235.264 63.8555 234.956 66.0123L236.958 66.0194ZM241.425 44.9163C242.156 44.9399 242.884 44.8086 243.561 44.531C244.238 44.2535 244.848 43.8359 245.352 43.3057C246.475 41.9491 247.027 40.2098 246.892 38.4542C246.923 37.9276 246.847 37.4002 246.668 36.9038C246.49 36.4074 246.212 35.9524 245.853 35.5663C245.441 35.1981 244.96 34.9164 244.437 34.7379C243.914 34.5593 243.361 34.4877 242.81 34.5271C242.243 34.5271 241.743 34.5398 241.309 34.5653C240.96 34.5807 240.613 34.6191 240.27 34.6802C239.962 36.5289 239.666 38.2104 239.384 39.7245C239.101 41.2387 238.806 42.9716 238.497 44.9234L241.425 44.9163ZM271.154 24.661H305.195C305.249 26.1528 305.184 27.6466 305.002 29.1283C304.859 30.4531 304.453 31.736 303.809 32.9023C303.159 34.0128 302.213 34.9198 301.075 35.5209C299.578 36.2534 297.92 36.5976 296.255 36.5218H284.17L282.784 44.2981H297.263L295.338 56.0824H280.858L279.395 64.6314H291.333C292.521 64.604 293.705 64.7755 294.837 65.139C295.678 65.4058 296.443 65.8679 297.07 66.4873C297.61 67.0527 298.006 67.7391 298.226 68.4891C298.461 69.2892 298.577 70.1193 298.572 70.9532C298.568 71.8576 298.478 72.7597 298.302 73.6469C298.123 74.5712 297.904 75.4692 297.647 76.3406H262.45L271.154 24.661ZM311.433 25.1997C314.154 24.8406 316.888 24.5967 319.635 24.4682C322.382 24.3396 324.705 24.2753 326.605 24.2753C333.433 24.2753 338.504 25.5986 341.816 28.245C343.427 29.5045 344.716 31.1279 345.579 32.9821C346.441 34.8363 346.852 36.8685 346.778 38.9121C346.81 40.9642 346.564 43.0112 346.046 44.9971C345.607 46.6329 344.918 48.1913 344.005 49.6175C343.153 50.9293 342.1 52.099 340.886 53.0839C339.667 54.0674 338.366 54.9435 336.997 55.7025L345.007 75.0334C343.671 75.689 342.282 76.2287 340.854 76.6468C339.254 77.1175 337.593 77.3511 335.925 77.3401C333.995 77.424 332.075 77.027 330.338 76.1846C328.73 75.1688 327.541 73.609 326.987 71.7896L322.367 59.39H320.13L317.287 76.3392H302.731L311.433 25.1997ZM324.603 48.8434C325.596 48.877 326.583 48.6663 327.476 48.2298C328.369 47.7933 329.141 47.1443 329.725 46.3397C331.055 44.438 331.718 42.1502 331.613 39.8323C331.692 39.1113 331.596 38.3821 331.335 37.7055C331.074 37.029 330.654 36.4248 330.112 35.9434C329.074 35.1869 327.815 34.7942 326.531 34.8262H325.452C325.065 34.8207 324.679 34.8463 324.297 34.9028L321.909 48.8434H324.603ZM370.043 25.8916C371.518 25.3548 373.039 24.9552 374.587 24.6978C376.138 24.423 377.71 24.2807 379.285 24.2725C381.647 24.1519 383.984 24.7985 385.949 26.1156C386.822 26.8095 387.548 27.6713 388.084 28.65C388.62 29.6288 388.954 30.7049 389.068 31.8149L395.768 76.3392H381.057L379.356 64.5549H366.187L361.11 76.3392H345.784L370.043 25.8916ZM378.053 54.6959L377.283 44.6072C377.232 43.8879 377.168 43.0278 377.09 42.0269C377.013 41.026 376.977 40.0638 376.981 39.1404C376.981 38.7292 376.994 38.3313 377.02 37.9467C377.045 37.562 377.083 37.2156 377.134 36.9074H376.903C376.749 37.4745 376.557 38.0889 376.326 38.7505C376.096 39.4121 375.852 40.1054 375.595 40.8303C375.338 41.5496 375.094 42.2301 374.863 42.8719C374.633 43.5137 374.414 44.0656 374.208 44.5278L370.049 54.6945L378.053 54.6959Z" fill="white"/>
<path d="M125.94 0.698267C108.032 -0.95743 90.0233 2.53114 74.0291 10.7543C70.6751 12.5139 67.9784 15.3089 66.3398 18.7237C64.7012 22.1385 64.2083 25.9908 64.9343 29.7082L70.9979 61.0077L27.2095 69.4886L15.0849 71.8379L12.2494 72.3865C8.31457 73.1629 4.84661 75.4644 2.60265 78.7886C0.358687 82.1129 -0.479031 86.1898 0.272336 90.1296L10.9054 145.003C11.6733 148.943 13.9726 152.418 17.2989 154.664C20.6253 156.911 24.7069 157.747 28.6485 156.988L110.828 141.068C114.763 140.298 118.23 137.998 120.469 134.672C122.708 131.347 123.535 127.268 122.767 123.333L112.134 68.4579C111.359 64.5218 109.058 61.0521 105.734 58.8067C102.409 56.5612 98.3314 55.7226 94.3907 56.4738L83.1196 58.657L77.0588 27.3646C76.8245 26.2846 76.9465 25.1578 77.4066 24.153C77.8667 23.1482 78.64 22.3196 79.6107 21.7915C93.5407 14.5738 109.258 11.5291 124.875 13.0227C125.973 13.1497 127.001 13.6293 127.803 14.3894C128.606 15.1496 129.14 16.1495 129.327 17.2391L131.312 27.522C131.623 29.1287 132.559 30.5461 133.915 31.4627C135.271 32.3794 136.935 32.7202 138.542 32.4104C140.149 32.0991 141.566 31.1627 142.483 29.8069C143.4 28.4511 143.74 26.7869 143.431 25.1799L141.439 14.897C140.727 11.1774 138.835 7.78662 136.043 5.22853C133.25 2.67045 129.707 1.08164 125.94 0.698267Z" fill="white"/>
<path d="M180.35 146.435C177.12 146.521 173.911 145.892 170.953 144.592C168.478 143.47 166.291 141.797 164.561 139.701C162.896 137.631 161.665 135.248 160.941 132.693C160.164 130.002 159.775 127.214 159.786 124.413C159.792 120.524 160.364 116.657 161.484 112.933C162.569 109.222 164.318 105.738 166.645 102.651C168.984 99.5709 171.964 97.0352 175.378 95.2192C179.246 93.2369 183.549 92.257 187.894 92.3695C191.111 92.2807 194.308 92.9103 197.251 94.2126C199.719 95.3485 201.902 97.0193 203.644 99.1038C205.335 101.176 206.581 103.575 207.302 106.151C208.073 108.83 208.462 111.605 208.457 114.393C208.449 118.28 207.876 122.146 206.756 125.868C205.674 129.579 203.93 133.064 201.606 136.154C199.265 139.235 196.282 141.771 192.865 143.586C188.997 145.568 184.694 146.548 180.35 146.435ZM181.66 134.42C183.339 134.425 184.975 133.885 186.32 132.88C187.842 131.724 189.079 130.236 189.94 128.529C191.027 126.414 191.817 124.16 192.289 121.829C192.878 119.005 193.164 116.126 193.14 113.242C193.279 110.945 192.714 108.662 191.522 106.694C190.964 105.922 190.219 105.305 189.356 104.901C188.494 104.497 187.543 104.319 186.593 104.384C184.913 104.378 183.278 104.918 181.932 105.923C180.411 107.08 179.173 108.568 178.313 110.274C177.226 112.389 176.436 114.644 175.964 116.975C175.374 119.798 175.089 122.677 175.113 125.562C174.994 127.843 175.589 130.104 176.814 132.031C177.354 132.806 178.082 133.432 178.929 133.85C179.777 134.268 180.716 134.465 181.66 134.421V134.42ZM218.936 93.3705H253.363C253.416 94.8623 253.352 96.3561 253.17 97.8378C253.026 99.1626 252.621 100.446 251.976 101.612C251.327 102.722 250.38 103.629 249.243 104.23C247.745 104.963 246.088 105.307 244.422 105.231H231.946L230.483 113.395H245.352L243.43 125.179H228.563L225.175 145.05H210.233L218.936 93.3705ZM258.831 93.3705H292.872C292.926 94.8623 292.861 96.3561 292.68 97.8378C292.536 99.1626 292.13 100.446 291.486 101.612C290.836 102.722 289.89 103.629 288.752 104.23C287.255 104.963 285.597 105.307 283.932 105.231H271.847L270.461 113.01H284.94L283.015 124.795H268.535L267.072 133.344H279.015C280.203 133.314 281.388 133.483 282.52 133.844C283.36 134.111 284.125 134.573 284.753 135.193C285.292 135.758 285.689 136.444 285.908 137.194C286.141 137.995 286.254 138.825 286.246 139.658C286.243 140.563 286.152 141.465 285.976 142.352C285.797 143.277 285.579 144.174 285.321 145.046H250.129L258.831 93.3705ZM299.11 93.9092C301.832 93.5501 304.565 93.3062 307.312 93.1777C310.059 93.0491 312.382 92.9848 314.282 92.9848C321.111 92.9848 326.181 94.3081 329.493 96.9545C331.104 98.214 332.393 99.8374 333.256 101.692C334.119 103.546 334.529 105.578 334.455 107.622C334.487 109.674 334.241 111.721 333.723 113.707C333.284 115.342 332.595 116.901 331.682 118.327C330.83 119.639 329.778 120.809 328.563 121.793C327.344 122.777 326.043 123.653 324.674 124.412L332.684 143.743C331.347 144.4 329.956 144.941 328.526 145.361C326.925 145.831 325.265 146.065 323.596 146.054C321.668 146.137 319.75 145.74 318.013 144.898C316.406 143.883 315.217 142.323 314.663 140.503L310.043 128.104H307.81L304.96 145.049H290.408L299.11 93.9092ZM312.28 117.553C313.273 117.587 314.26 117.376 315.153 116.939C316.046 116.503 316.818 115.854 317.402 115.049C318.731 113.147 319.395 110.86 319.289 108.542C319.367 107.821 319.272 107.092 319.011 106.415C318.749 105.739 318.33 105.134 317.788 104.653C316.75 103.896 315.491 103.504 314.207 103.536H313.128C312.741 103.53 312.355 103.556 311.972 103.612L309.585 117.553H312.28ZM351.251 105.927H336.849C336.898 104.367 337.04 102.811 337.275 101.267C337.473 99.8536 337.916 98.4853 338.585 97.2239C339.225 96.044 340.187 95.0694 341.358 94.4125C342.895 93.6457 344.604 93.2878 346.32 93.3733H382.369C382.423 94.9559 382.346 96.5402 382.138 98.11C381.967 99.5131 381.534 100.872 380.862 102.115C380.197 103.293 379.208 104.256 378.012 104.888C376.471 105.644 374.765 106.001 373.05 105.927H366.348L359.725 145.057H344.629L351.251 105.927ZM392.224 94.6053C393.698 94.0685 395.219 93.6689 396.768 93.4116C398.319 93.1368 399.891 92.9945 401.466 92.9863C403.828 92.8657 406.165 93.5122 408.129 94.8293C409.003 95.5233 409.729 96.385 410.265 97.3638C410.8 98.3426 411.135 99.4187 411.248 100.529L417.949 145.046H403.238L401.537 133.262H388.367L383.285 145.046H367.965L392.224 94.6053ZM400.232 123.408L399.463 113.32C399.412 112.6 399.347 111.74 399.27 110.739C399.192 109.738 399.154 108.776 399.155 107.851C399.155 107.44 399.168 107.042 399.193 106.658C399.219 106.273 399.257 105.926 399.308 105.618H399.077C398.923 106.185 398.731 106.8 398.5 107.461C398.269 108.123 398.026 108.816 397.768 109.541C397.511 110.261 397.267 110.941 397.037 111.583C396.806 112.225 396.588 112.777 396.382 113.239L392.225 123.408H400.232ZM425.494 128.029C427.05 129.895 428.978 131.416 431.155 132.496C433.093 133.412 435.211 133.885 437.355 133.883C440.333 133.883 441.822 132.625 441.822 130.108C441.814 129.583 441.696 129.065 441.477 128.587C441.257 128.11 440.94 127.683 440.546 127.335C439.214 126.172 437.755 125.164 436.195 124.331C434.52 123.387 432.91 122.332 431.375 121.174C430.034 120.166 428.83 118.988 427.793 117.669C426.816 116.407 426.061 114.987 425.56 113.471C425.021 111.753 424.761 109.959 424.791 108.158C424.752 105.874 425.226 103.61 426.177 101.534C427.09 99.6008 428.434 97.9032 430.106 96.5717C431.915 95.1516 433.981 94.0927 436.191 93.4527C438.742 92.7071 441.389 92.3435 444.046 92.3738C446.933 92.2877 449.81 92.7585 452.519 93.7604C454.302 94.4098 455.967 95.3465 457.448 96.5335C458.236 97.2892 458.887 98.175 459.374 99.152C459.771 99.9682 459.982 100.863 459.99 101.771C459.999 103.536 459.398 105.249 458.289 106.622C457.003 108.165 455.287 109.291 453.36 109.857C452.151 108.328 450.693 107.013 449.047 105.969C447.546 105.032 445.81 104.541 444.041 104.551C443.003 104.432 441.959 104.707 441.115 105.321C440.855 105.596 440.654 105.921 440.524 106.277C440.393 106.632 440.336 107.01 440.355 107.388C440.38 107.966 440.544 108.53 440.832 109.033C441.12 109.535 441.524 109.961 442.011 110.276C443.253 111.215 444.551 112.077 445.899 112.856C447.855 114.017 449.733 115.303 451.522 116.707C452.94 117.811 454.197 119.107 455.258 120.557C456.177 121.827 456.868 123.248 457.299 124.755C457.721 126.298 457.929 127.892 457.916 129.492C457.969 132.017 457.442 134.52 456.375 136.809C455.379 138.875 453.916 140.682 452.101 142.084C450.189 143.541 448.02 144.625 445.708 145.28C443.168 146.013 440.535 146.376 437.891 146.359C436.756 146.359 435.55 146.294 434.271 146.166C433.001 146.04 431.741 145.834 430.497 145.549C429.291 145.275 428.107 144.914 426.953 144.47C425.89 144.069 424.881 143.539 423.949 142.891C422.844 142.15 421.901 141.194 421.175 140.079C420.537 138.996 420.217 137.755 420.251 136.498C420.269 134.945 420.71 133.425 421.527 132.103C422.552 130.484 423.904 129.096 425.497 128.029H425.494Z" fill="#FFE900"/>
</g>
<defs>
<clipPath id="clip0_999_35585">
<rect width="460" height="156.956" fill="white" transform="translate(0 0.309814)"/>
</clipPath>
</defs>
</svg>
