<svg width="460" height="153" viewBox="0 0 460 153" fill="none" xmlns="http://www.w3.org/2000/svg">
<path d="M150.185 9.14571C151.341 9.02652 152.503 8.97177 153.665 8.98171C155.093 8.94381 156.517 9.13744 157.883 9.55506C158.868 9.85653 159.767 10.3902 160.503 11.1111C161.111 11.7322 161.56 12.4905 161.813 13.3219C162.059 14.1438 162.183 14.9974 162.181 15.8553C162.182 16.115 162.168 16.3745 162.14 16.6326C162.113 16.878 162.072 17.1371 162.017 17.41L156.284 51.3112H167.42C168.66 51.2724 169.896 51.4669 171.064 51.8845C171.934 52.2106 172.719 52.7304 173.358 53.4046C173.934 54.0369 174.355 54.7947 174.587 55.618C174.839 56.5102 174.963 57.4337 174.955 58.3608C174.952 59.3772 174.856 60.3912 174.669 61.3902C174.477 62.4267 174.245 63.436 173.973 64.4183H138.106C138.106 64.4183 149.229 9.25372 150.185 9.14571ZM188.549 9.6364C189.48 9.41768 190.424 9.25384 191.374 9.14571C192.531 9.02652 193.692 8.97177 194.855 8.98171C196.282 8.94381 197.706 9.13744 199.072 9.55506C200.057 9.85653 200.956 10.3902 201.692 11.1111C202.3 11.7322 202.75 12.4905 203.003 13.3219C203.249 14.1438 203.373 14.9974 203.371 15.8553C203.371 16.115 203.358 16.3745 203.33 16.6326C203.302 16.878 203.261 17.1371 203.207 17.41L195.263 64.4183H179.295L188.549 9.6364ZM212.706 10.2098C215.817 9.82752 218.751 9.55462 221.506 9.39105C224.262 9.22749 226.706 9.14571 228.84 9.14571C231.904 9.08717 234.962 9.44604 237.929 10.2124C240.151 10.7809 242.238 11.7828 244.071 13.1605C245.582 14.324 246.765 15.8593 247.506 17.6167C248.228 19.3978 248.591 21.3043 248.572 23.2262C248.65 25.7833 247.966 28.3058 246.607 30.4731C245.097 32.642 243.071 34.4007 240.711 35.5906C242.647 36.7667 244.309 38.3444 245.583 40.2175C246.834 42.124 247.477 44.3657 247.426 46.6457C247.529 49.6196 246.896 52.573 245.583 55.2433C244.386 57.5038 242.586 59.3886 240.383 60.6888C237.9 62.1162 235.182 63.088 232.357 63.5583C228.924 64.1589 225.443 64.4468 221.957 64.4183H203.534L212.706 10.2098ZM222.858 53.4459C225.969 53.4459 228.222 52.8455 229.614 51.6445C230.347 50.9416 230.914 50.0848 231.275 49.1359C231.637 48.187 231.782 47.1698 231.703 46.1577C231.749 45.4958 231.652 44.8317 231.419 44.2106C231.186 43.5894 230.822 43.0256 230.352 42.5575C229.311 41.6898 227.979 41.2507 226.626 41.3295H222.777C222.45 43.4042 222.108 45.3696 221.753 47.2257C221.397 49.0818 221.056 51.1561 220.729 53.4486L222.858 53.4459ZM227.613 31.0091C228.391 31.0333 229.165 30.8926 229.885 30.5961C230.605 30.2997 231.254 29.8542 231.789 29.2891C232.983 27.8465 233.57 25.997 233.427 24.1302C233.459 23.5709 233.378 23.0108 233.188 22.4838C232.998 21.9567 232.703 21.4736 232.321 21.0635C231.884 20.6719 231.372 20.3723 230.816 20.1824C230.26 19.9925 229.672 19.9162 229.086 19.9581C228.486 19.9581 227.952 19.9719 227.486 19.9994C227.116 20.0159 226.746 20.0569 226.381 20.1221C226.054 22.0875 225.74 23.8756 225.44 25.4863C225.139 27.097 224.825 28.9393 224.498 31.0131L227.613 31.0091ZM259.214 9.47239H295.407C295.464 11.0585 295.395 12.6466 295.202 14.2219C295.049 15.6303 294.618 16.9941 293.933 18.234C293.242 19.415 292.236 20.3794 291.026 21.0181C289.436 21.7966 287.677 22.1634 285.908 22.0848H273.055L271.581 30.3518H286.975L284.928 42.8856H269.533L267.978 51.9712H280.671C281.934 51.9401 283.193 52.1204 284.396 52.5046C285.29 52.7882 286.104 53.2794 286.771 53.9379C287.345 54.5405 287.766 55.2722 287.999 56.0713C288.249 56.922 288.373 57.8048 288.367 58.6914C288.364 59.6536 288.268 60.6131 288.081 61.5569C287.889 62.5391 287.657 63.4943 287.384 64.4223H249.963L259.214 9.47239ZM302.041 10.0457C304.934 9.66351 307.841 9.40439 310.761 9.26838C313.681 9.13238 316.152 9.06393 318.172 9.06304C325.433 9.06304 330.824 10.4689 334.345 13.2805C336.059 14.6191 337.431 16.3449 338.349 18.3164C339.267 20.2879 339.705 22.4489 339.626 24.6222C339.661 26.804 339.399 28.9803 338.849 31.0918C338.383 32.8306 337.653 34.4874 336.684 36.004C335.778 37.3986 334.659 38.6423 333.367 39.6894C332.073 40.735 330.69 41.6665 329.234 42.4735L337.75 63.0262C336.327 63.7255 334.846 64.3009 333.323 64.7463C331.622 65.2468 329.857 65.4952 328.083 65.4837C326.034 65.5715 323.995 65.149 322.15 64.2543C320.442 63.1757 319.178 61.5196 318.588 59.5875L313.675 46.4043H311.296L308.265 64.4183H292.789L302.041 10.0457ZM316.041 35.1853C317.098 35.2204 318.147 34.9956 319.097 34.5306C320.046 34.0657 320.867 33.3747 321.487 32.5185C322.898 30.4956 323.601 28.0633 323.487 25.5996C323.57 24.833 323.467 24.0577 323.189 23.3386C322.911 22.6195 322.464 21.9775 321.887 21.4661C320.783 20.6621 319.444 20.2449 318.079 20.2794H316.932C316.521 20.2736 316.111 20.3008 315.704 20.3608L313.171 35.1826L316.041 35.1853ZM364.354 10.7844C365.922 10.2137 367.539 9.78873 369.185 9.51506C370.834 9.22341 372.505 9.07264 374.18 9.06438C376.691 8.93828 379.175 9.62772 381.262 11.0298C382.192 11.7675 382.964 12.6838 383.533 13.7246C384.103 14.7654 384.458 15.9097 384.579 17.09L391.708 64.4183H376.068L374.266 51.8845H360.266L354.859 64.4183H338.564L364.354 10.7844ZM372.87 41.4095L372.051 30.6825C371.997 29.918 371.929 29.0037 371.846 27.9397C371.763 26.8757 371.723 25.8534 371.723 24.8729C371.723 24.4365 371.737 24.0133 371.765 23.6035C371.792 23.1938 371.833 22.8253 371.887 22.4982H371.642C371.479 23.0991 371.274 23.7542 371.027 24.4636C370.781 25.1729 370.522 25.9099 370.25 26.6743C369.977 27.4388 369.718 28.1619 369.473 28.8437C369.227 29.5255 368.995 30.1122 368.777 30.6038L364.355 41.4122L372.87 41.4095Z" fill="white"/>
<path d="M162.678 138.946C159.24 139.037 155.825 138.366 152.677 136.981C150.044 135.788 147.718 134.009 145.877 131.781C144.11 129.58 142.804 127.046 142.037 124.33C141.211 121.469 140.798 118.506 140.809 115.529C140.814 111.397 141.421 107.287 142.61 103.329C143.764 99.3828 145.623 95.6784 148.097 92.3951C150.586 89.1192 153.757 86.4232 157.391 84.4935C161.503 82.386 166.079 81.3443 170.698 81.4641C174.119 81.3713 177.518 82.0427 180.648 83.4295C183.272 84.6369 185.595 86.4132 187.448 88.6297C189.246 90.8327 190.57 93.3834 191.337 96.1219C192.157 98.97 192.571 101.92 192.565 104.884C192.56 109.016 191.953 113.126 190.764 117.084C189.61 121.03 187.751 124.734 185.277 128.018C182.788 131.294 179.617 133.99 175.983 135.919C171.871 138.026 167.296 139.066 162.678 138.946ZM164.07 126.172C165.855 126.178 167.593 125.603 169.023 124.535C170.641 123.305 171.957 121.723 172.871 119.908C174.027 117.659 174.867 115.262 175.369 112.784C175.994 109.782 176.296 106.721 176.27 103.654C176.417 101.213 175.817 98.7853 174.55 96.694C173.957 95.8735 173.164 95.2176 172.248 94.7879C171.331 94.3582 170.32 94.169 169.31 94.2379C167.525 94.2325 165.786 94.8071 164.356 95.8753C162.739 97.1053 161.423 98.6876 160.508 100.502C159.353 102.749 158.513 105.144 158.011 107.62C157.385 110.622 157.083 113.683 157.109 116.749C156.98 119.174 157.61 121.578 158.911 123.628C159.485 124.453 160.258 125.12 161.16 125.565C162.061 126.01 163.06 126.219 164.064 126.172H164.07ZM203.698 82.5268H240.3C240.357 84.1129 240.288 85.701 240.095 87.2763C239.942 88.6847 239.511 90.0485 238.826 91.2884C238.135 92.4694 237.128 93.4338 235.919 94.0725C234.329 94.851 232.57 95.2178 230.801 95.1392H217.535L215.979 103.82H231.784L229.737 116.353H213.933L210.333 137.479H194.444L203.698 82.5268ZM246.115 82.5268H282.308C282.365 84.1129 282.296 85.701 282.103 87.2763C281.95 88.6847 281.519 90.0485 280.834 91.2884C280.143 92.4694 279.137 93.4338 277.927 94.0725C276.337 94.851 274.578 95.2178 272.809 95.1392H259.953L258.48 103.406H273.875L271.828 115.94H256.431L254.875 125.03H267.568C268.831 124.999 270.09 125.179 271.293 125.563C272.187 125.847 273.001 126.338 273.668 126.996C274.242 127.599 274.663 128.331 274.896 129.13C275.146 129.98 275.27 130.863 275.264 131.75C275.261 132.712 275.165 133.672 274.977 134.615C274.786 135.598 274.554 136.553 274.281 137.481H236.861L246.115 82.5268ZM288.942 83.1002C291.835 82.7179 294.742 82.4588 297.662 82.3228C300.582 82.1868 303.053 82.1183 305.073 82.1175C312.334 82.1175 317.725 83.5233 321.246 86.3349C322.96 87.6735 324.332 89.3993 325.25 91.3708C326.168 93.3423 326.606 95.5033 326.527 97.6767C326.562 99.858 326.3 102.034 325.75 104.145C325.283 105.884 324.552 107.542 323.581 109.058C322.675 110.453 321.556 111.697 320.264 112.744C318.969 113.789 317.586 114.721 316.131 115.528L324.647 136.082C323.225 136.781 321.746 137.356 320.226 137.802C318.524 138.303 316.759 138.551 314.986 138.539C312.936 138.628 310.896 138.206 309.049 137.311C307.341 136.233 306.077 134.577 305.488 132.645L300.574 119.461H298.2L295.17 137.477H279.687L288.942 83.1002ZM302.942 108.24C303.999 108.275 305.048 108.05 305.998 107.585C306.947 107.12 307.768 106.429 308.388 105.573C309.799 103.55 310.502 101.118 310.388 98.654C310.47 97.8874 310.368 97.1121 310.09 96.393C309.812 95.6739 309.365 95.0319 308.788 94.5206C307.684 93.7165 306.345 93.2994 304.98 93.3338H303.833C303.422 93.328 303.012 93.3552 302.605 93.4152L300.072 108.237L302.942 108.24ZM344.377 95.8753H329.065C329.116 94.2166 329.267 92.5625 329.515 90.9218C329.726 89.4188 330.197 87.9641 330.907 86.6229C331.589 85.3684 332.611 84.332 333.856 83.6335C335.492 82.8171 337.311 82.4364 339.137 82.5281H377.46C377.518 84.2108 377.436 85.8953 377.214 87.5643C377.034 89.0554 376.576 90.4996 375.864 91.8218C375.157 93.0743 374.105 94.0975 372.834 94.7699C371.194 95.5742 369.378 95.9543 367.553 95.8753H360.428L353.387 137.477H337.336L344.377 95.8753ZM387.94 83.8375C389.508 83.2667 391.125 82.8418 392.771 82.5681C394.42 82.2765 396.091 82.1257 397.766 82.1175C400.277 81.9914 402.762 82.6808 404.849 84.0829C405.778 84.8206 406.55 85.7369 407.119 86.7777C407.689 87.8185 408.044 88.9628 408.165 90.1431L415.289 137.478H399.648L397.847 124.944H383.847L378.442 137.478H362.151L387.94 83.8375ZM396.456 114.463L395.638 103.736C395.583 102.971 395.515 102.057 395.432 100.993C395.35 99.9287 395.309 98.9065 395.31 97.926C395.31 97.4895 395.323 97.0664 395.351 96.6566C395.379 96.2468 395.419 95.8784 395.474 95.5513H395.228C395.065 96.1522 394.86 96.8073 394.614 97.5167C394.367 98.226 394.108 98.9629 393.836 99.7274C393.563 100.492 393.304 101.215 393.059 101.897C392.814 102.579 392.582 103.165 392.363 103.657L387.941 114.465L396.456 114.463ZM423.315 119.376C424.969 121.36 427.019 122.978 429.333 124.126C431.395 125.099 433.646 125.602 435.926 125.599C439.092 125.599 440.675 124.262 440.675 121.587C440.667 121.029 440.543 120.478 440.311 119.97C440.078 119.463 439.742 119.009 439.325 118.639C437.909 117.4 436.356 116.326 434.698 115.439C432.919 114.434 431.21 113.312 429.58 112.081C428.155 111.01 426.875 109.757 425.772 108.356C424.733 107.014 423.93 105.505 423.397 103.893C422.823 102.066 422.547 100.158 422.579 98.2433C422.538 95.8156 423.041 93.4094 424.052 91.2018C425.021 89.1446 426.45 87.3376 428.228 85.9203C430.152 84.4104 432.349 83.2845 434.698 82.6041C437.41 81.8116 440.225 81.4251 443.05 81.4574C446.119 81.3658 449.177 81.866 452.057 82.9308C453.953 83.6213 455.723 84.6172 457.297 85.8789C458.134 86.6824 458.827 87.6242 459.344 88.663C459.766 89.5308 459.99 90.4819 459.999 91.4471C460.011 93.323 459.375 95.1455 458.197 96.606C456.83 98.2461 455.006 99.443 452.957 100.045C451.672 98.4188 450.122 97.0214 448.371 95.9113C446.776 94.9134 444.93 94.3882 443.049 94.3965C441.945 94.27 440.835 94.5622 439.937 95.2152C439.657 95.509 439.441 95.8564 439.3 96.2365C439.159 96.6165 439.097 97.0212 439.118 97.426C439.145 98.0405 439.319 98.6395 439.626 99.173C439.932 99.7065 440.361 100.159 440.878 100.493C442.198 101.491 443.578 102.407 445.011 103.236C447.09 104.47 449.087 105.838 450.989 107.33C452.496 108.505 453.833 109.883 454.961 111.425C455.937 112.776 456.672 114.286 457.13 115.888C457.578 117.529 457.799 119.223 457.785 120.924C457.842 123.608 457.282 126.27 456.148 128.703C455.089 130.9 453.533 132.821 451.604 134.313C449.57 135.862 447.263 137.015 444.803 137.711C442.103 138.491 439.303 138.877 436.492 138.858C435.292 138.858 434.009 138.79 432.644 138.653C431.295 138.519 429.954 138.3 428.632 137.998C427.351 137.706 426.092 137.323 424.865 136.851C423.734 136.426 422.659 135.862 421.665 135.173C420.492 134.385 419.489 133.368 418.717 132.183C418.047 131.032 417.713 129.715 417.753 128.383C417.772 126.734 418.239 125.121 419.104 123.716C420.19 121.992 421.625 120.513 423.316 119.375L423.315 119.376Z" fill="#FFE900"/>
<path d="M92.0737 47.651L89.3616 48.1843L83.7748 15.4712C82.4041 7.44556 76.2505 1.32934 68.8302 0.509307C51.356 -1.39154 33.7172 2.07629 18.2631 10.451C14.9109 12.3973 12.2434 15.3337 10.6269 18.8568C9.01036 22.38 8.52409 26.3171 9.23483 30.1277L14.8217 62.8408L12.0669 63.3835C4.10265 64.9489 -1.21886 73.2212 0.241194 81.7655L10.0362 139.119C11.5029 147.709 19.2072 153.373 27.1688 151.808L107.22 136.074C115.181 134.509 120.469 126.288 119.003 117.7L109.206 60.3461C107.748 51.7844 100.038 46.0789 92.0737 47.651ZM21.0459 27.8036C20.8174 26.6954 20.9384 25.5437 21.3922 24.5072C21.846 23.4707 22.6101 22.6005 23.5793 22.0167C37.0382 14.6664 52.4346 11.6402 67.6742 13.3498C68.7736 13.5267 69.7858 14.0559 70.5586 14.8575C71.3314 15.6592 71.8231 16.6901 71.9597 17.7953L77.5465 50.5084L26.6288 60.5194L21.0459 27.8036Z" fill="white"/>
</svg>
